<?xml version="1.0" encoding="utf-8" ?>
<svg xmlns="http://www.w3.org/2000/svg" xmlns:xlink="http://www.w3.org/1999/xlink" width="1980" height="990">
	<path fill="#F7EFE0" transform="scale(0.966583 0.966583)" d="M0 0L2046.25 0C2048.75 3.75313 2047.99 9.76244 2047.99 14.1208L2048.02 767.612L2048.01 954.147C2048.01 967.073 2049.66 1011.74 2047.62 1020.8C2047.36 1021.98 2046.85 1022.96 2046.25 1024L0 1024L0 0Z"/>
	<path fill="#010404" transform="scale(0.966583 0.966583)" d="M1418.87 76.8664C1420.37 68.8484 1422.84 64.5621 1429.66 59.8987C1439.41 53.229 1452.51 51.5495 1463.94 53.769C1471.5 55.237 1481.63 59.0793 1486.04 65.8C1488.69 69.8467 1488.18 74.5525 1489.67 78.883C1492.36 86.757 1504.75 81.1191 1502.1 96.3632C1496.38 105.64 1487.44 96.7612 1489.24 112.343C1487.74 116.089 1480.54 118.856 1476.89 120.491C1484.33 126.686 1488.17 140.264 1489.01 149.537C1490.32 163.952 1485.27 187.704 1476.08 199.114C1475.37 199.992 1474.56 200.721 1473.7 201.436C1473.57 201.543 1473.44 201.652 1473.31 201.759L1473.9 202.171C1478.97 205.773 1481.1 212.456 1487.93 212.241L1492.31 209.457C1498.29 213.797 1502.74 219.795 1508.6 224.09C1515.49 229.131 1523.6 232.937 1530.83 237.536C1548.9 249.049 1566.17 264.387 1578.88 281.711C1581.47 285.255 1585.76 289.971 1586.73 294.3C1597.25 293.762 1608.97 296.779 1619.29 298.807Q1624.32 299.761 1629.32 300.836Q1634.32 301.911 1639.3 303.106Q1644.27 304.302 1649.22 305.617Q1654.16 306.933 1659.08 308.367Q1663.99 309.802 1668.86 311.355Q1673.74 312.907 1678.58 314.578Q1683.41 316.248 1688.21 318.035Q1693 319.821 1697.75 321.723Q1702.5 323.625 1707.21 325.642Q1711.91 327.658 1716.56 329.787Q1721.22 331.917 1725.82 334.158Q1730.42 336.399 1734.96 338.751Q1739.5 341.102 1743.99 343.563Q1748.48 346.024 1752.9 348.593Q1757.33 351.161 1761.69 353.836Q1766.05 356.511 1770.35 359.29C1770.57 360.275 1770.79 360.924 1770.67 361.926C1800.69 362.643 1830.73 361.808 1860.76 362.556C1861.7 367.666 1842.58 416.839 1838.51 422.884C1838.27 423.24 1837.87 423.675 1837.61 423.981C1854.29 441.248 1869.64 460.496 1880.76 481.893C1888.66 478.079 1894.41 470.491 1901.78 465.782C1908.5 461.484 1925.84 455.57 1930.15 450.878C1932.31 464.324 1913.42 496.884 1905.44 507.941C1903 511.327 1900.08 515.446 1896.79 518.007C1900.78 523.14 1911.17 552.958 1910.14 558.518C1910.11 558.705 1910.04 558.881 1909.98 559.063C1923.97 557.97 1937.57 557.253 1951.58 558.187C1949.22 566.762 1929.23 578.433 1921.46 582.854Q1919.14 584.147 1916.69 585.174C1926.64 605.181 1922.16 661.898 1919.24 685.398C1918.92 687.947 1917.12 693.648 1919.72 695.128C1935.81 693.431 1969.57 686.498 1983.59 691.928C1983.45 694.006 1982.07 695.284 1980.79 696.805L1984.65 694.446C1990.67 706.51 1998.75 774.327 1994.37 788.658C1994.32 788.811 1994.27 788.962 1994.22 789.114L1994.09 791.012C1994.88 799.606 1993.35 808.899 1991.98 817.367Q1991.44 820.875 1990.79 824.362Q1990.14 827.849 1989.37 831.313Q1988.6 834.776 1987.71 838.212Q1986.82 841.647 1985.82 845.05Q1984.82 848.454 1983.7 851.821Q1982.58 855.189 1981.35 858.517Q1980.12 861.845 1978.78 865.13Q1977.44 868.414 1975.99 871.651Q1974.53 874.889 1972.97 878.075Q1971.41 881.262 1969.74 884.394Q1968.08 887.526 1966.31 890.599Q1964.53 893.673 1962.66 896.685Q1960.78 899.698 1958.81 902.645Q1956.83 905.592 1954.76 908.471Q1952.68 911.35 1950.51 914.157Q1948.34 916.964 1946.08 919.696C1928.15 941.242 1910.21 953.036 1888.84 969.985C1912.69 970.782 1936.78 970.016 1960.67 970.027C1970.28 970.031 1982.91 968.737 1992.17 971.05C1979.41 974.452 1944.94 972.412 1929.81 972.477L1772.32 972.709L1117.72 972.168L348.201 972.082L151.261 972.122L103.16 972.19C91.6851 972.248 79.9506 973.419 68.6561 971.02C72.0838 968.768 126.104 970.002 134.208 970.01C125.766 964.555 118.026 958.779 111.03 951.505C93.772 933.56 83.7488 911.71 78.262 887.649C77.1129 882.61 75.4825 877.156 75.5926 871.985C76.371 871.477 77.1583 871.044 78.0394 870.735C82.3975 869.209 89.4633 870.615 94.0182 871.116C116.907 873.631 137.126 877.953 158.162 887.678C158.785 881.151 160.268 875.316 165.581 870.981C170.756 866.758 178.099 865.697 184.553 866.534C209.917 869.821 235.029 898.405 250.512 916.677C251.363 914.447 250.44 911.661 250.019 909.368C245.232 889.561 238.742 858.997 221.75 846.551C223.599 845.441 225.237 845.229 227.351 844.932C227.458 840.141 218.705 825.232 216.226 820.118C210.689 813.028 206.949 803.192 202.075 795.455C195.764 785.436 189.211 781.097 177.959 778.559C165.567 779.271 153.968 782.561 141.966 785.456C127.012 789.063 106.975 792.954 93.0945 784.179C88.1101 781.028 84.9044 776.192 83.62 770.476C81.9222 762.922 83.2276 753.059 87.4839 746.514C90.5126 741.856 95.3542 739.09 100.711 737.969C120.301 733.869 141.476 750.459 157.3 759.877C164.572 764.205 172.317 767.908 179.334 772.629L189.61 776.925C175.194 757.179 162.62 735.44 141.87 721.627C116.363 713.824 86.2727 724.255 63.9247 706.351C59.7413 703 56.7293 698.592 56.2592 693.151C55.6365 685.943 59.2267 678.205 63.9263 672.911C68.1062 668.203 73.6002 665.383 79.9267 665.177C104.481 664.377 128.61 701.633 145.502 717.921C149.28 721.146 153.127 724.313 156.662 727.806C156.63 714.307 134.833 682.787 129.772 667.067C126.554 657.067 125.34 644.759 130.449 635.176C134.091 628.345 141.201 623.325 148.428 620.998Q148.162 615.382 148.028 609.762Q147.895 604.142 147.893 598.52Q147.892 592.898 148.023 587.278Q148.154 581.658 148.417 576.042Q148.68 570.426 149.076 564.818Q149.471 559.21 149.999 553.613Q150.526 548.016 151.185 542.433Q151.844 536.85 152.635 531.284Q153.425 525.718 154.346 520.172Q155.267 514.627 156.319 509.104Q157.37 503.581 158.551 498.085Q159.733 492.589 161.043 487.122Q162.353 481.655 163.792 476.22Q165.231 470.785 166.797 465.386Q168.363 459.987 170.056 454.626Q171.749 449.265 173.568 443.946Q175.386 438.626 177.33 433.351Q179.273 428.076 181.34 422.848Q183.407 417.62 185.597 412.442Q187.787 407.264 190.097 402.139Q192.408 397.014 194.839 391.945Q197.27 386.876 199.82 381.865Q202.37 376.855 205.037 371.906Q207.703 366.957 210.486 362.072Q213.269 357.187 216.166 352.369Q219.063 347.551 222.072 342.803Q225.082 338.055 228.202 333.378Q231.323 328.702 234.553 324.101Q237.783 319.499 241.12 314.975Q244.457 310.451 247.9 306.007Q251.343 301.562 254.889 297.2Q258.436 292.838 262.084 288.561C372.396 156.905 539.779 86.1862 708.353 71.4234C823.915 61.3032 966.003 87.6228 1040.18 185.298C1067.59 221.399 1082.17 261.972 1118.02 291.901C1183.02 346.167 1278.55 355.115 1359.28 342.001C1370.89 340.114 1382.39 337.925 1393.79 334.99C1404.65 332.193 1416.04 328.06 1427.2 327.046C1428.05 326.104 1428.69 325.117 1429.08 323.907C1430.38 319.841 1431.2 315.129 1431.11 310.859C1430.98 304.878 1426.2 270.232 1424.17 266.436C1428.16 263.983 1432.86 259.193 1434.23 254.689C1434.21 253.995 1434.24 253.811 1434.1 253.214C1432.64 246.953 1424.46 239.293 1419.07 236.223C1418.87 238.172 1417.46 239.677 1416.06 240.945C1410.64 245.838 1402.19 251.657 1394.54 251.231C1382.14 250.539 1370.87 233.939 1363.21 225.336C1355.44 226.226 1350.61 223.127 1343.63 220.303C1346.47 218.221 1348 215.48 1349.52 212.355C1351.31 208.676 1353.63 203.051 1352.09 198.961C1350.44 194.563 1336.2 190.952 1331.68 189.067C1321.83 184.957 1314.88 177.177 1310.9 167.388C1292.85 122.999 1336.85 119.214 1341.86 106.569C1341.93 106.38 1341.99 106.187 1342.06 105.995C1345.27 102.664 1348.25 99.0406 1351.58 95.8433C1370.36 77.8543 1394.33 76.3434 1418.87 76.8664Z"/>
	<path fill="#E9DBBD" transform="scale(0.966583 0.966583)" d="M148.428 620.998Q148.162 615.382 148.028 609.762Q147.895 604.142 147.893 598.52Q147.892 592.898 148.023 587.278Q148.154 581.658 148.417 576.042Q148.68 570.426 149.076 564.818Q149.471 559.21 149.999 553.613Q150.526 548.016 151.185 542.433Q151.844 536.85 152.635 531.284Q153.425 525.718 154.346 520.172Q155.267 514.627 156.319 509.104Q157.37 503.581 158.551 498.085Q159.733 492.589 161.043 487.122Q162.353 481.655 163.792 476.22Q165.231 470.785 166.797 465.386Q168.363 459.987 170.056 454.626Q171.749 449.265 173.568 443.946Q175.386 438.626 177.33 433.351Q179.273 428.076 181.34 422.848Q183.407 417.62 185.597 412.442Q187.787 407.264 190.097 402.139Q192.408 397.014 194.839 391.945Q197.27 386.876 199.82 381.865Q202.37 376.855 205.037 371.906Q207.703 366.957 210.486 362.072Q213.269 357.187 216.166 352.369Q219.063 347.551 222.072 342.803Q225.082 338.055 228.202 333.378Q231.323 328.702 234.553 324.101Q237.783 319.499 241.12 314.975Q244.457 310.451 247.9 306.007Q251.343 301.562 254.889 297.2Q258.436 292.838 262.084 288.561C372.396 156.905 539.779 86.1862 708.353 71.4234C823.915 61.3032 966.003 87.6228 1040.18 185.298C1067.59 221.399 1082.17 261.972 1118.02 291.901C1183.02 346.167 1278.55 355.115 1359.28 342.001C1370.89 340.114 1382.39 337.925 1393.79 334.99C1404.65 332.193 1416.04 328.06 1427.2 327.046C1431.44 333.742 1419.11 372.691 1426.73 392.211C1432.87 407.93 1445.48 418.225 1454.61 431.855C1455.43 433.089 1456.33 434.341 1456.41 435.863C1438.45 448.511 1390.49 467.465 1369.25 471.726C1372.54 466.45 1372.07 429.846 1370.75 422.533C1370.52 421.263 1369.95 420.105 1369.27 419.022L1347.52 418.868C1343.32 419.456 1338.64 419 1334.38 418.952C1327.31 419.179 1320.22 419.505 1313.15 419.432C1315.36 424.927 1315.78 470.961 1313.68 476.009C1313.1 477.425 1312.23 477.95 1311.09 478.927C1308.67 479.203 1308.14 479.206 1305.92 478.25C1302.55 464.222 1309.33 426.37 1303.44 416.762Q1285.33 416.664 1267.23 416.353C1269.72 420.871 1270.1 467.613 1268.14 473.483C1267.9 474.207 1267.57 474.771 1267.17 475.417C1257.68 474.398 1248.54 473.026 1239.29 470.585C1233.26 468.994 1227.29 466.703 1221.17 465.538C1221.38 465.689 1221.59 465.837 1221.8 465.992C1230.88 472.729 1236.05 485.57 1248.04 493.932C1258.46 501.199 1271.12 503.711 1282.88 507.942C1293.53 511.773 1303.69 517.707 1314.66 520.536C1348.69 529.311 1401.77 522.533 1436.74 518.126C1451.08 516.318 1467.54 514.716 1481.32 510.418C1480.8 514.942 1475.94 519.28 1473.04 522.647L1472.89 522.291C1431.78 531.056 1322.39 563.801 1299.49 598.413C1290.31 612.296 1291.22 627.074 1294.51 642.559C1296.6 652.434 1306.62 682.868 1304.67 690.734C1304.12 695.222 1296.05 704.368 1292.58 707.15C1291.98 707.628 1291.38 708.06 1290.74 708.471C1293.2 704.637 1294.94 700.396 1293.85 695.765C1293.21 693.033 1291.52 690.388 1291.3 687.587C1291.06 684.558 1292.32 681.518 1292.14 678.436C1291.69 670.783 1285.56 655.653 1278.92 651.369C1277.54 650.485 1276.5 650.57 1274.91 650.437C1272.77 651.579 1272.19 651.469 1271.49 653.875C1269.83 659.612 1271.28 666.432 1269.24 672.007C1264.25 685.63 1237.06 709.271 1224.34 716.469C1215.96 721.211 1210.05 721.823 1200.93 719.223C1190.22 716.167 1174.45 711.579 1165.93 704.184C1166.07 702.565 1167.93 700.448 1167.22 699.579C1163.03 694.415 979.416 612.04 959.649 604.133C947.834 599.407 932.751 592.597 920 591.97C875.896 589.802 787.874 677.236 751.943 704.492C737.63 703.822 671.401 694.188 658.803 689.095C648.575 684.961 638.456 676.715 628.745 671.208C618.143 633.143 601.505 627.667 572.374 604.839C557.681 593.326 543.093 580.717 526.757 571.547C521.983 568.868 517.025 566.705 511.942 564.688Q508.934 555.102 506.233 545.424C517.805 544.127 533.195 541.867 540.854 532.169C544.328 527.769 545.248 522.405 544.477 516.94C543.217 508.014 538.433 499.417 534.287 491.543C536.445 488.384 540.11 483.903 540.684 480.124C541.102 477.37 540.419 476.707 538.86 474.621C535.502 472.521 530.796 472.878 526.927 472.737C520.535 469.201 506.881 452.766 505.684 445.573C504.456 438.2 509.403 435.373 504.762 426.313C501.498 419.939 495.434 416.044 488.705 414.058C478.331 410.996 470.273 412.978 461.1 417.901C441.939 415.29 426.726 424.863 411.265 435.202C410.598 430.635 410.319 424.56 407.471 420.774C402.083 409.474 389.025 398.101 377.41 393.891C369.774 391.124 363.204 391.429 355.433 393.287C338.485 397.34 321.975 407.152 306.255 414.595C285.641 424.354 264.838 433.758 244.299 443.666C235.268 448.022 228.536 453.018 225.082 462.857C223.815 466.469 223.06 470.345 222.237 474.082C210.466 483.084 201.02 493.351 199.008 508.72C195.935 532.191 212.057 551.934 225.65 569.23Q264.138 617.649 303.947 664.989C330.272 696.746 356.341 728.599 383.921 759.294C397.42 774.317 412.451 787.835 426.017 802.693L260.301 964.036L254.794 970.036L206.323 970.063Q170.265 970.457 134.208 970.01C125.766 964.555 118.026 958.779 111.03 951.505C93.772 933.56 83.7488 911.71 78.262 887.649C77.1129 882.61 75.4825 877.156 75.5926 871.985C76.371 871.477 77.1583 871.044 78.0394 870.735C82.3975 869.209 89.4633 870.615 94.0182 871.116C116.907 873.631 137.126 877.953 158.162 887.678C158.785 881.151 160.268 875.316 165.581 870.981C170.756 866.758 178.099 865.697 184.553 866.534C209.917 869.821 235.029 898.405 250.512 916.677C251.363 914.447 250.44 911.661 250.019 909.368C245.232 889.561 238.742 858.997 221.75 846.551C223.599 845.441 225.237 845.229 227.351 844.932C227.458 840.141 218.705 825.232 216.226 820.118C210.689 813.028 206.949 803.192 202.075 795.455C195.764 785.436 189.211 781.097 177.959 778.559C165.567 779.271 153.968 782.561 141.966 785.456C127.012 789.063 106.975 792.954 93.0945 784.179C88.1101 781.028 84.9044 776.192 83.62 770.476C81.9222 762.922 83.2276 753.059 87.4839 746.514C90.5126 741.856 95.3542 739.09 100.711 737.969C120.301 733.869 141.476 750.459 157.3 759.877C164.572 764.205 172.317 767.908 179.334 772.629L189.61 776.925C175.194 757.179 162.62 735.44 141.87 721.627C116.363 713.824 86.2727 724.255 63.9247 706.351C59.7413 703 56.7293 698.592 56.2592 693.151C55.6365 685.943 59.2267 678.205 63.9263 672.911C68.1062 668.203 73.6002 665.383 79.9267 665.177C104.481 664.377 128.61 701.633 145.502 717.921C149.28 721.146 153.127 724.313 156.662 727.806C156.63 714.307 134.833 682.787 129.772 667.067C126.554 657.067 125.34 644.759 130.449 635.176C134.091 628.345 141.201 623.325 148.428 620.998Z"/>
	<path fill="#83A17D" transform="scale(0.966583 0.966583)" d="M256.291 914.633C262.037 886.536 253.423 827.872 279.4 810.38C284.871 806.696 291.236 806.037 297.586 807.422C304.739 808.982 310.522 813.453 314.348 819.68C317.89 825.444 319.074 833.017 317.473 839.584C310.107 869.8 267.231 865.676 259.529 920.89C257.533 935.199 260.405 949.648 260.301 964.036L254.794 970.036L206.323 970.063Q170.265 970.457 134.208 970.01C125.766 964.555 118.026 958.779 111.03 951.505C93.772 933.56 83.7488 911.71 78.262 887.649C77.1129 882.61 75.4825 877.156 75.5926 871.985C76.371 871.477 77.1583 871.044 78.0394 870.735C82.3975 869.209 89.4633 870.615 94.0182 871.116C116.907 873.631 137.126 877.953 158.162 887.678C158.785 881.151 160.268 875.316 165.581 870.981C170.756 866.758 178.099 865.697 184.553 866.534C209.917 869.821 235.029 898.405 250.512 916.677C251.363 914.447 250.44 911.661 250.019 909.368L252.962 907.993L253.788 905.155L256.291 914.633Z"/>
	<path fill="#6D8B6C" transform="scale(0.966583 0.966583)" d="M134.208 970.01C125.766 964.555 118.026 958.779 111.03 951.505C93.772 933.56 83.7488 911.71 78.262 887.649C77.1129 882.61 75.4825 877.156 75.5926 871.985C76.371 871.477 77.1583 871.044 78.0394 870.735C82.3975 869.209 89.4633 870.615 94.0182 871.116C116.907 873.631 137.126 877.953 158.162 887.678C172.405 895.929 181.712 903.088 191.932 916.024C197.145 928.039 200.574 939.67 203.043 952.531C204.148 958.286 204.673 964.457 206.323 970.063Q170.265 970.457 134.208 970.01Z"/>
	<path fill="#E9DBBD" transform="scale(0.966583 0.966583)" d="M191.932 916.024C207.788 915.765 233.427 909.458 245.827 921.379C256.091 931.246 255.616 949.289 255.643 962.552C255.649 965.169 255.438 967.495 254.794 970.036L206.323 970.063C204.673 964.457 204.148 958.286 203.043 952.531C200.574 939.67 197.145 928.039 191.932 916.024Z"/>
	<path fill="#83A17D" transform="scale(0.966583 0.966583)" d="M148.428 620.998C156.13 621.274 162.96 623.531 168.31 629.344C174.612 636.192 178.549 646.926 178.045 656.208C177.117 673.322 163.191 686.688 161.624 704.461C160.691 715.036 163.554 724.951 164.572 735.342C175.57 749.021 186.939 763.661 196.032 778.683L195.93 777.905C192.22 751.226 171.321 708.079 189.509 683.386C193.213 678.358 198.457 674.482 204.734 673.553C211.176 672.599 217.559 675.052 222.605 678.948C228.99 683.879 233.574 691.417 234.461 699.489C235.771 711.399 228.367 722.08 221.149 730.824C206.927 748.051 198.894 759.557 200.949 783.076L201.014 783.762C205.012 795.271 214.055 805.773 219.336 816.993L217.598 816.804L216.226 820.118C210.689 813.028 206.949 803.192 202.075 795.455C195.764 785.436 189.211 781.097 177.959 778.559C165.567 779.271 153.968 782.561 141.966 785.456C127.012 789.063 106.975 792.954 93.0945 784.179C88.1101 781.028 84.9044 776.192 83.62 770.476C81.9222 762.922 83.2276 753.059 87.4839 746.514C90.5126 741.856 95.3542 739.09 100.711 737.969C120.301 733.869 141.476 750.459 157.3 759.877C164.572 764.205 172.317 767.908 179.334 772.629L189.61 776.925C175.194 757.179 162.62 735.44 141.87 721.627C116.363 713.824 86.2727 724.255 63.9247 706.351C59.7413 703 56.7293 698.592 56.2592 693.151C55.6365 685.943 59.2267 678.205 63.9263 672.911C68.1062 668.203 73.6002 665.383 79.9267 665.177C104.481 664.377 128.61 701.633 145.502 717.921C149.28 721.146 153.127 724.313 156.662 727.806C156.63 714.307 134.833 682.787 129.772 667.067C126.554 657.067 125.34 644.759 130.449 635.176C134.091 628.345 141.201 623.325 148.428 620.998Z"/>
	<path fill="#83A17D" transform="scale(0.966583 0.966583)" d="M229.069 835.862C226.316 814.182 227.47 787.547 232.239 766.129C234.626 755.406 239.108 742.562 248.901 736.524C254.36 733.158 260.858 732.323 267.043 733.939C274.659 735.93 280.854 741.402 284.705 748.165C300.881 776.579 255.633 793.956 242.32 811.439C237.477 817.798 235.681 825.227 233.674 832.797L233.436 833.367C232.553 835.51 231.922 837.619 231.333 839.855L230.67 839.88C230.126 838.583 229.432 837.214 229.069 835.862Z"/>
	<path fill="#E2A26F" transform="scale(0.966583 0.966583)" d="M1334.38 418.952C1336.17 413.314 1330.72 407.922 1331.84 401.319C1332.85 395.417 1340 389.303 1340.2 383.805C1346.53 388.809 1352.84 396.195 1353.88 404.503C1354.37 408.463 1353.43 412.644 1350.88 415.777C1349.89 417.002 1348.82 417.98 1347.52 418.868C1343.32 419.456 1338.64 419 1334.38 418.952Z"/>
	<path fill="#6D8B6C" transform="scale(0.966583 0.966583)" d="M216.226 820.118L217.598 816.804L219.336 816.993L229.069 835.862C229.432 837.214 230.126 838.583 230.67 839.88L231.333 839.855C231.922 837.619 232.553 835.51 233.436 833.367L233.674 832.797C235.389 857.584 246.626 881.466 253.788 905.155L252.962 907.993L250.019 909.368C245.232 889.561 238.742 858.997 221.75 846.551C223.599 845.441 225.237 845.229 227.351 844.932C227.458 840.141 218.705 825.232 216.226 820.118Z"/>
	<path fill="#DDC7A1" transform="scale(0.966583 0.966583)" d="M734.592 151.565C744.161 137.378 751.052 120.551 754.727 103.8C755.778 99.0114 755.233 94.2481 756.55 89.4784L757.688 89.661C760.039 97.7446 759.713 112.146 758.678 120.625C759.361 124.472 759.839 128.555 761.318 132.183C766.778 144.331 773.853 154.451 782.213 164.77C792.677 164.765 802.49 165.901 810.348 173.664C813.836 177.11 816.669 181.539 818.631 186.025C810.957 189.18 800.462 192.529 792.396 189.182C787.24 187.043 783.16 181.375 781.164 176.315C779.907 173.13 779.822 170.071 779.904 166.692C775.093 161.194 770.803 155.728 767.021 149.464C765.487 146.923 762.451 139.246 760.483 137.648C760.131 137.362 759.597 137.452 759.154 137.353C759.792 155.928 758.068 184.467 764.767 201.339C766.584 205.915 769.756 209.86 773.349 213.174C784.961 223.885 798.631 227.949 814.092 228.749C817.697 228.936 822.237 228.543 825.514 230.202C822.027 232.886 809.822 231.187 805.336 230.598C787.509 228.258 774.811 219.444 763.917 205.395C768.757 225.898 776.762 238.165 794.736 249.201C799.767 252.29 805.152 255.018 810.695 257.069C814.153 258.037 817.464 259.067 820.773 260.467C829.776 258.78 839.125 257.315 847.141 262.982C853.269 267.314 857.038 274.832 859.858 281.622C851.029 284.806 842.38 286.929 833.408 282.585C828.94 280.422 824.008 275.657 822.385 270.887C821.491 268.259 820.869 265.547 820.177 262.862C816.907 261.804 813.591 260.814 810.36 259.646C798.187 254.244 787.694 247.891 777.084 239.843C787.046 256.518 802.241 278.029 801.799 298.242L800.778 298.367C797.769 293.757 795.874 279.366 792.744 272.57C787.117 260.352 779.127 249.169 772.686 237.369C769.418 231.381 766.914 224.823 764.256 218.539C765.985 235.495 769.061 253.962 769.005 270.952C770.851 285.306 771.941 299.783 773.33 314.189C775.813 339.931 778.969 361.254 800.869 377.952C805.95 381.827 812.166 384.887 817.748 388.006L817.939 389.351C814.069 390.182 812.091 389.359 808.798 387.194C795.311 378.327 785.737 367.569 778.017 353.473C779.027 365.125 780.881 377.575 780.119 389.24C784.749 398.625 789.772 404.486 786.105 415.61C784.495 420.493 781.053 424.735 776.411 427.016C773.705 428.346 770.269 429.111 767.31 428.205Q766.873 428.069 766.452 427.888Q766.031 427.707 765.631 427.483Q765.231 427.26 764.856 426.996Q764.482 426.732 764.136 426.431Q763.791 426.13 763.479 425.795Q763.166 425.46 762.89 425.094Q762.614 424.728 762.378 424.336Q762.141 423.944 761.946 423.529C759.946 419.169 761.083 413.478 762.824 409.216C766.362 400.554 771.589 396.489 778.135 390.251C776.073 362.396 773.337 334.253 769.373 306.601C765.898 320.146 760.91 333.419 751.975 344.323C748.346 353.784 749.205 360.279 739.534 366.265C734.535 369.36 726.674 372.518 720.715 370.721C718.758 370.131 716.878 368.74 715.951 366.934C713.868 362.874 716.27 357.918 717.581 353.863C719.096 352.369 720.627 350.868 722.255 349.496C730.158 342.836 739.929 343.219 749.576 343.999C763.183 323.237 768.419 305.893 766.696 281.026Q765.986 283.765 765.06 286.439C759.764 302.176 750.853 313.092 735.923 320.454L734.421 319.708L735.61 320.541L736.468 320.34L734.854 318.606C737.268 315.403 741.045 313.595 744.353 311.435C756.192 303.701 761.34 292.127 764.57 278.877C768.326 267.056 763.38 241.83 762.434 228.528C759.912 236.352 756.545 242.968 752.435 250.042C747.201 257.231 747.243 266.212 741.592 273.697C737.834 278.676 732.37 282.639 726.081 283.44C723.071 283.824 716.55 283.398 714.254 281.37C713.329 280.553 713.592 280.295 713.575 279.157C713.37 265.557 721.644 259.134 734.168 256.292C736.964 255.658 741.31 255.442 743.823 254.115C745.809 253.066 747.688 250.899 749.259 249.294Q750.262 248.104 751.183 246.849Q752.105 245.595 752.942 244.283Q753.778 242.97 754.527 241.606Q755.275 240.241 755.931 238.83Q756.587 237.418 757.149 235.967Q757.71 234.515 758.174 233.029Q758.639 231.544 759.004 230.031Q759.369 228.518 759.633 226.984C763.093 207.275 756.727 167.027 756.676 144.16C752.565 159.106 749.762 174.453 743.704 188.804C741.063 195.06 733.802 210.178 727.431 212.786L726.319 211.877C729.61 206.352 733.938 201.501 737.068 195.853C748.18 175.796 754.822 148.811 755.892 126.063C755.821 122.769 756.221 118.405 754.697 115.468C754.32 115.825 734.712 163.406 730.139 169.772C726.093 175.406 720.8 178.577 713.932 179.604C710.498 180.117 704.222 181.09 701.3 178.74C700.523 178.115 700.15 175.929 700.061 174.914C699.761 171.505 701.492 168.212 703.602 165.677C711.407 156.3 722.916 152.617 734.592 151.565Z"/>
	<path fill="#F7EFE0" transform="scale(0.966583 0.966583)" d="M631.366 343.599C638.537 342.88 646.471 343.859 653.762 343.873Q681.148 343.726 708.531 344.167C705.991 350.964 703.477 357.804 700.559 364.449C691.622 384.796 680.972 397.254 659.901 405.474C649.129 407.886 638.092 407.65 627.817 403.346C603.701 393.244 593.482 366.615 584.398 344.132C600.031 343.614 615.723 343.731 631.366 343.599Z"/>
	<path fill="#F7EFE0" transform="scale(0.966583 0.966583)" d="M503.453 253.499C514.386 253.348 587.95 253.162 590.608 255.378C591.01 257.896 590.71 260.068 590.045 262.514C584.203 284.009 572.865 300.032 553.677 311.155C550.971 312.127 548.244 313.101 545.475 313.879C532.265 317.59 517.663 315.281 505.892 308.393C487.617 297.7 475.981 273.748 470.775 254.001C481.658 253.619 492.572 254.096 503.453 253.499Z"/>
	<path fill="#F7EFE0" transform="scale(0.966583 0.966583)" d="M477.591 304.549L481.38 304.662L482.553 306.472C483.076 316.925 473.911 332.403 467.273 340.058C460.161 348.262 450.737 354.338 439.679 354.995C427.814 355.7 418.308 350.392 409.757 342.765C399.806 331.947 394.268 319.321 391.031 305.111L477.591 304.549Z"/>
	<path fill="#E2A26F" transform="scale(0.966583 0.966583)" d="M650.419 290.79C650.743 290.853 651.085 290.855 651.39 290.978C653.53 291.842 654.093 295.427 655.034 297.383C657.355 302.204 662.641 306.334 665.534 311.133C668.318 315.751 670.043 321.09 668.636 326.46C666.47 334.731 658.205 339.187 651.397 343.201C649.173 343.414 647.424 343.644 645.28 342.785C645.319 341.345 645.244 339.887 645.309 338.453C645.796 327.757 631.571 320.905 634.051 308.795C635.515 301.646 644.599 294.533 650.419 290.79Z"/>
	<path fill="#E2A26F" transform="scale(0.966583 0.966583)" d="M527.16 196.721C529.528 197.841 529.306 202.039 529.949 204.585C531.448 210.529 537.405 216.207 540.722 221.389C543.482 225.701 546.145 231.012 544.767 236.265C542.712 244.101 533.074 249.427 526.564 253.235C524.87 253.298 524.125 253.251 522.621 252.472C522.455 249.986 523.479 247.104 522.944 244.766C520.599 234.515 507.358 227.181 510.311 214.902C512.141 207.292 520.846 200.712 527.16 196.721Z"/>
	<path fill="#E2A26F" transform="scale(0.966583 0.966583)" d="M433.254 248.77C435.618 250.087 434.919 252.969 435.208 255.586C436.035 263.086 442.522 269.769 446.124 276.32C448.069 279.859 449.554 284.163 448.31 288.187C445.982 295.722 436.071 300.681 429.512 304.106C428.781 304.007 427.99 303.585 427.315 303.311C427.183 301.9 426.967 300.508 426.812 299.101C425.67 288.755 412.144 281.521 413.705 270.404C414.912 261.804 426.611 253.473 433.254 248.77Z"/>
	<path fill="#E2A26F" transform="scale(0.966583 0.966583)" d="M1284.25 380.496C1284.41 380.491 1284.58 380.469 1284.74 380.481C1287.63 380.677 1289.78 382.804 1291.66 384.819Q1292.02 385.202 1292.35 385.603Q1292.69 386.004 1293 386.421Q1293.32 386.839 1293.61 387.271Q1293.9 387.704 1294.17 388.151Q1294.44 388.597 1294.69 389.057Q1294.94 389.517 1295.17 389.989Q1295.39 390.461 1295.59 390.944Q1295.79 391.426 1295.97 391.919Q1296.14 392.411 1296.29 392.911Q1296.45 393.412 1296.57 393.919Q1296.7 394.426 1296.8 394.939Q1296.9 395.452 1296.97 395.97Q1297.04 396.487 1297.09 397.008Q1297.14 397.528 1297.16 398.051Q1297.18 398.573 1297.18 399.096Q1297.17 399.618 1297.14 400.14C1297.29 401.471 1297.27 402.71 1296.89 404.003C1295.51 408.712 1292.54 411.19 1288.37 413.465C1288.06 414.15 1288.28 413.787 1287.48 414.563C1287.26 414.782 1287.03 414.997 1286.8 415.215L1287.71 414.482L1285.59 415.001C1284.23 413.9 1282.94 412.764 1281.95 411.313C1272.12 396.966 1282.42 390.694 1284.17 380.996C1284.2 380.83 1284.22 380.662 1284.25 380.496Z"/>
	<path fill="#83A17D" transform="scale(0.966583 0.966583)" d="M1822.51 461.977C1822.88 461.641 1822.89 461.639 1823.28 461.218C1826.47 457.762 1837.8 428.713 1837.61 423.981C1854.29 441.248 1869.64 460.496 1880.76 481.893C1888.66 478.079 1894.41 470.491 1901.78 465.782C1908.5 461.484 1925.84 455.57 1930.15 450.878C1932.31 464.324 1913.42 496.884 1905.44 507.941C1903 511.327 1900.08 515.446 1896.79 518.007C1900.78 523.14 1911.17 552.958 1910.14 558.518C1910.11 558.705 1910.04 558.881 1909.98 559.063C1923.97 557.97 1937.57 557.253 1951.58 558.187C1949.22 566.762 1929.23 578.433 1921.46 582.854Q1919.14 584.147 1916.69 585.174C1926.64 605.181 1922.16 661.898 1919.24 685.398C1918.92 687.947 1917.12 693.648 1919.72 695.128C1935.81 693.431 1969.57 686.498 1983.59 691.928C1983.45 694.006 1982.07 695.284 1980.79 696.805L1984.65 694.446C1990.67 706.51 1998.75 774.327 1994.37 788.658C1994.32 788.811 1994.27 788.962 1994.22 789.114L1994.09 791.012C1981.76 788.288 1967.09 789.652 1954.49 789.665C1934.01 789.686 1913.46 789.629 1893.1 787.168C1889.44 792.826 1880.79 802.4 1875.07 805.562C1875.69 800.875 1889.21 792.784 1890.89 786.622C1890.93 786.476 1890.96 786.327 1890.99 786.18C1891.18 785.464 1891.19 785.549 1891.23 784.664C1891.43 779.869 1867.2 716.092 1863.37 711.78C1861.11 715.023 1840.94 723.219 1835.79 726.075C1824.11 732.552 1813.48 741.532 1801.45 747.18C1801.69 746.603 1801.88 746.014 1802.05 745.409C1803.18 741.313 1802.55 738.138 1800.51 734.484C1793.35 742.44 1779.07 748.438 1770.48 756.683C1759.88 766.846 1751.65 783.058 1741.02 791.37C1741.37 790.723 1741.68 790.068 1742 789.406C1744.18 784.914 1744.64 781.845 1742.99 777.098C1743.51 776.124 1743.97 775.102 1744.15 774.003C1745.11 768.076 1746.06 755.122 1742.65 750.118C1743.11 748.459 1743.46 748.218 1742.61 746.655C1735.65 745.155 1727.74 746.175 1720.56 745.819L1721.99 745.034C1724.74 740.102 1726.9 736.641 1725.91 730.895C1725.91 730.71 1725.91 730.524 1725.91 730.338C1725.82 726.912 1725.41 723.548 1722.9 721.164C1720.15 721.136 1718.62 721.453 1716.24 722.836C1715.18 723.454 1714.1 722.993 1712.9 722.811C1711.36 717.482 1701.14 710.521 1697.56 705.503C1691.42 696.888 1688.25 683.181 1681.68 675.998C1695.03 675.798 1709.58 674.619 1722.84 676.125C1728.64 675.752 1734.61 675.998 1740.42 675.99C1743.15 673.563 1743.78 669.53 1744 666.048C1744.1 665.918 1744.22 665.793 1744.32 665.656C1746.93 662.026 1750.91 652.387 1750.42 647.878C1754.38 643.347 1767.33 609.365 1767.1 604.106C1771.21 599.557 1785.59 562.189 1785.5 556.989C1789.27 552.277 1800.38 525.295 1800.14 519.116C1800.59 518.634 1800.99 518.182 1801.37 517.64C1805.36 511.927 1823.33 466.177 1822.51 461.977Z"/>
	<path fill="#E9DBBD" transform="scale(0.966583 0.966583)" d="M1818.58 604.442C1849.16 606.79 1891.71 605.992 1916.69 585.174C1926.64 605.181 1922.16 661.898 1919.24 685.398C1918.92 687.947 1917.12 693.648 1919.72 695.128C1935.81 693.431 1969.57 686.498 1983.59 691.928C1983.45 694.006 1982.07 695.284 1980.79 696.805L1984.65 694.446C1990.67 706.51 1998.75 774.327 1994.37 788.658C1994.32 788.811 1994.27 788.962 1994.22 789.114L1994.09 791.012C1981.76 788.288 1967.09 789.652 1954.49 789.665C1934.01 789.686 1913.46 789.629 1893.1 787.168C1889.44 792.826 1880.79 802.4 1875.07 805.562C1875.69 800.875 1889.21 792.784 1890.89 786.622C1890.93 786.476 1890.96 786.327 1890.99 786.18C1891.18 785.464 1891.19 785.549 1891.23 784.664C1891.43 779.869 1867.2 716.092 1863.37 711.78C1861.11 715.023 1840.94 723.219 1835.79 726.075C1824.11 732.552 1813.48 741.532 1801.45 747.18C1801.69 746.603 1801.88 746.014 1802.05 745.409C1803.18 741.313 1802.55 738.138 1800.51 734.484C1793.35 742.44 1779.07 748.438 1770.48 756.683C1759.88 766.846 1751.65 783.058 1741.02 791.37C1741.37 790.723 1741.68 790.068 1742 789.406C1744.18 784.914 1744.64 781.845 1742.99 777.098C1743.34 776.748 1743.36 776.744 1743.72 776.303C1746.34 773.069 1756.87 729.697 1756.36 725.054C1773.31 725.222 1790.7 725.917 1807.44 722.91C1826.97 719.404 1844.56 711.119 1861.39 700.91C1864.61 698.962 1869.06 697.096 1871.22 694.006C1867.76 691.874 1863.47 690.715 1859.54 689.708C1830.3 682.221 1803.62 687.947 1779.49 705.55C1772.34 710.768 1765.72 717.701 1758.12 722.095L1757.45 722.474C1760.98 718.824 1769.64 692.081 1772.99 684.533C1784.49 658.621 1801.28 626.856 1818.58 604.442Z"/>
	<path fill="#6D8B6C" transform="scale(0.966583 0.966583)" d="M1919.72 695.128C1935.81 693.431 1969.57 686.498 1983.59 691.928C1983.45 694.006 1982.07 695.284 1980.79 696.805L1984.65 694.446C1990.67 706.51 1998.75 774.327 1994.37 788.658C1994.32 788.811 1994.27 788.962 1994.22 789.114C1960.44 790.556 1926.2 788.047 1892.43 787.038C1902.92 781.834 1921.34 761.796 1928.17 751.812C1924.78 752.591 1901.14 780.289 1892.53 785.12C1892.28 785.257 1892.04 785.388 1891.79 785.522C1891.93 784.86 1892.01 784.238 1892.02 783.558C1892.12 778.512 1868.25 715.057 1864.83 711.848C1874.55 709.016 1883.93 705.135 1893.67 702.272C1901.82 699.875 1912.21 698.781 1919.72 695.128Z"/>
	<path fill="#83A17D" transform="scale(0.966583 0.966583)" d="M1848.33 628.499C1867.05 626.958 1889.94 627.252 1906.66 637.155C1906.47 637.505 1906.21 638.039 1905.94 638.367C1896.82 649.357 1856.58 659.906 1842.12 661.965C1822.5 664.27 1803.78 660.899 1784.26 659.792C1791.21 656.746 1797.54 650.986 1803.66 646.501C1817.08 636.675 1832.3 632.179 1848.33 628.499Z"/>
	<path fill="#E9DBBD" transform="scale(0.966583 0.966583)" d="M1822.51 461.977C1822.88 461.641 1822.89 461.639 1823.28 461.218C1826.47 457.762 1837.8 428.713 1837.61 423.981C1854.29 441.248 1869.64 460.496 1880.76 481.893C1880.44 484.8 1865.01 502.547 1862.23 507.197C1856.18 517.295 1853.19 530.352 1851.08 541.781C1850.23 546.396 1850.45 551.796 1848.16 555.949C1848.12 556.371 1848.13 556.544 1847.93 556.974C1845.24 562.508 1829.63 579.54 1824.19 582.196C1832.39 570.642 1835.3 552.411 1836.71 538.552C1839.06 515.58 1837.94 480.908 1822.51 461.977Z"/>
	<path fill="#E9DBBD" transform="scale(0.966583 0.966583)" d="M1896.79 518.007C1900.78 523.14 1911.17 552.958 1910.14 558.518C1910.11 558.705 1910.04 558.881 1909.98 559.063C1909.59 559.361 1909.44 559.516 1908.93 559.706C1905.76 560.881 1901.53 561.189 1898.19 561.994C1886.36 564.841 1874.25 567.872 1863.4 573.52C1848.47 581.296 1828.67 599.497 1815.93 604.351C1827.86 596.135 1842.17 569.989 1853.65 557.903C1864.39 546.609 1890.56 531.474 1896.79 518.007Z"/>
	<path fill="#E9DBBD" transform="scale(0.966583 0.966583)" d="M1800.14 519.116C1803.3 521.202 1803.37 522.8 1804.16 526.453C1808.68 547.284 1815.79 564.073 1825.68 583.045C1821.13 590.689 1814.86 597.545 1809.84 604.935C1804.23 613.197 1799.53 622.157 1793.81 630.3C1792.62 631.989 1790.8 633.326 1789.15 634.539C1798.08 616.778 1795.13 581.375 1788.89 562.951C1788.14 560.729 1787.38 558.499 1785.5 556.989C1789.27 552.277 1800.38 525.295 1800.14 519.116Z"/>
	<path fill="#E9DBBD" transform="scale(0.966583 0.966583)" d="M1767.1 604.106C1774.03 605.799 1780.45 618.333 1784.09 624.323C1786.03 627.521 1789.25 631.624 1789.14 635.489C1789.15 636.432 1789.12 637.471 1788.73 638.346C1787.35 641.412 1762.93 688.42 1762.66 688.72C1762.14 689.282 1761.59 689.802 1761.02 690.303C1763.78 682.544 1756.97 658.963 1753.52 651.486C1752.83 649.996 1751.68 648.883 1750.42 647.878C1754.38 643.347 1767.33 609.365 1767.1 604.106Z"/>
	<path fill="#E9DBBD" transform="scale(0.966583 0.966583)" d="M1744 666.048C1748.54 667.785 1752.88 679.439 1754.89 683.918C1756.37 687.228 1759.51 692.677 1758.73 696.277C1759.62 700.154 1748 735.629 1745.13 739.83C1744.19 741.209 1743.03 742.492 1741.94 743.753C1747.31 731.205 1740.04 709.913 1735.17 697.826C1732.34 690.786 1728.33 681.465 1722.84 676.125C1728.64 675.752 1734.61 675.998 1740.42 675.99C1743.15 673.563 1743.78 669.53 1744 666.048Z"/>
	<path fill="#F7EFE0" transform="scale(0.966583 0.966583)" d="M1725.91 730.895C1730.37 732.294 1738.11 738.896 1740.44 742.952C1740.84 743.643 1740.89 744.121 1741 744.898C1734.79 745.044 1728.16 745.624 1721.99 745.034C1724.74 740.102 1726.9 736.641 1725.91 730.895Z"/>
	<path fill="#E9DBBD" transform="scale(0.966583 0.966583)" d="M1588.82 675.562C1617.25 675.508 1653.97 673.609 1681.68 675.998C1688.25 683.181 1691.42 696.888 1697.56 705.503C1701.14 710.521 1711.36 717.482 1712.9 722.811C1714.1 722.993 1715.18 723.454 1716.24 722.836C1718.62 721.453 1720.15 721.136 1722.9 721.164C1725.41 723.548 1725.82 726.912 1725.91 730.338C1725.91 730.524 1725.91 730.71 1725.91 730.895C1726.9 736.641 1724.74 740.102 1721.99 745.034L1720.56 745.819L1701.99 745.801C1697.28 746.026 1692.48 745.81 1687.77 745.793C1684.31 745.945 1682.12 745.542 1679.23 747.526C1674.21 757.766 1681.58 769.894 1676.73 780.029C1677.17 780.761 1677.59 781.551 1677.81 782.379C1679.44 788.477 1679.52 803.395 1676.63 808.865L1612.86 808.846C1613.43 809.786 1613.87 810.646 1614.13 811.724C1616.31 820.801 1614.55 848.144 1614.55 859.462C1614.57 894.459 1615.98 930.019 1614.47 964.939C1614.39 966.992 1614.09 968.386 1612.98 970.155L1511.51 970.059C1512.4 969.031 1513.23 967.941 1513.85 966.722C1517.32 959.862 1526.85 916.685 1529.62 905.934Q1550.63 823.832 1572.59 741.981C1575.06 732.758 1590.6 681.269 1588.82 675.562Z"/>
	<path fill="#83A17D" transform="scale(0.966583 0.966583)" d="M1648.26 708.356C1657.81 712.985 1667.44 720.936 1675.2 728.112C1679.41 732.001 1687.55 739.892 1687.77 745.793C1684.31 745.945 1682.12 745.542 1679.23 747.526C1674.21 757.766 1681.58 769.894 1676.73 780.029C1672.94 770.447 1663.62 762.967 1659.68 752.781C1655.97 743.2 1651.99 712.946 1648.26 708.356Z"/>
	<path fill="#E2A26F" transform="scale(0.966583 0.966583)" d="M1712.9 722.811C1714.1 722.993 1715.18 723.454 1716.24 722.836C1718.62 721.453 1720.15 721.136 1722.9 721.164C1725.41 723.548 1725.82 726.912 1725.91 730.338C1725.91 730.524 1725.91 730.71 1725.91 730.895C1726.9 736.641 1724.74 740.102 1721.99 745.034L1720.56 745.819L1701.99 745.801C1704.84 741.972 1697.77 737.246 1698.88 731.989C1700.95 730.469 1701.46 730.312 1704.02 730.013C1706.32 731.278 1707.03 731.481 1708.27 733.746L1709.34 732.074C1709.34 730.758 1709.3 729.369 1709.49 728.066C1709.92 725.09 1710.63 724.551 1712.9 722.811Z"/>
	<path fill="#3C2B24" transform="scale(0.966583 0.966583)" d="M325.309 449.42C323.495 447.663 321.603 445.955 319.907 444.084Q319.516 443.656 319.172 443.19Q318.828 442.723 318.534 442.224Q318.24 441.724 318 441.197Q317.76 440.669 317.576 440.12Q317.392 439.57 317.266 439.004Q317.14 438.439 317.074 437.863Q317.007 437.287 317.001 436.708Q316.995 436.128 317.049 435.551C317.233 433.474 318.144 431.479 319.804 430.177C324.226 426.707 330.977 427.001 336.208 427.703L336.878 427.028C334.815 424.199 332.391 420.83 332.96 417.1C333.323 414.723 334.99 412.714 336.999 411.493C345.057 406.595 350.817 412.203 358.521 414.129C360.118 410.398 361.693 406.112 364.557 403.163C366.029 401.647 368.106 400.363 370.292 400.493C376.997 400.894 383.458 410.426 387.375 415.14C390.746 413.13 393.295 411.892 397.221 411.466C399.831 414.889 403.465 417.397 406.342 420.613L407.471 420.774C410.319 424.56 410.598 430.635 411.265 435.202C426.726 424.863 441.939 415.29 461.1 417.901C470.273 412.978 478.331 410.996 488.705 414.058C495.434 416.044 501.498 419.939 504.762 426.313C509.403 435.373 504.456 438.2 505.684 445.573C506.881 452.766 520.535 469.201 526.927 472.737C530.796 472.878 535.502 472.521 538.86 474.621C540.419 476.707 541.102 477.37 540.684 480.124C540.11 483.903 536.445 488.384 534.287 491.543L532.714 490.296C532.672 490.6 532.617 490.901 532.588 491.206C531.713 500.342 553.532 518.009 538.007 532.195C527.764 541.555 508.928 543.944 495.524 543.104C484.053 542.384 477.875 538.975 468.421 533.21C467.346 532.554 466.816 531.779 465.632 532.305C464.004 534.504 462.617 536.222 460.318 537.796L459.836 539.003C462.035 538.419 465.136 537.594 466.533 535.699L469.888 538.017L469.601 538.403L470.908 539.228C469.26 542.549 468.099 546.2 466.421 549.439C464.738 551.874 464.69 554.867 464.389 557.724L465.45 558.414C464.053 560.99 461.613 563.894 459.255 565.623C456.635 567.545 453.229 568.69 449.982 567.956C442.655 566.299 439.437 560.676 435.83 554.754C432.898 556.697 430.175 558.084 426.76 559.003C414.764 562.228 419.05 550.435 412.151 547.074C407.983 545.044 402.135 547.35 397.469 544.34C391.159 540.27 393.324 534.212 391.904 528.058C391.168 524.87 389.157 522.832 386.492 521.099L380.979 523.915C373.468 523.589 376.117 520.163 371.562 517.166Q371.032 518.161 370.447 519.125C368.055 523.049 363.689 528.06 358.921 528.896C349.913 530.476 351.36 515.771 349.342 514.594C347.503 513.523 335.462 517.755 328.518 513.022C327.987 512.11 326.989 510.913 327.007 509.864C327.097 504.542 329.782 500.916 333.522 497.422C326.85 495.776 317.97 494.149 314.112 487.894C313.749 486.239 313.403 484.628 313.98 482.976C315.158 479.601 318.076 477.949 321.034 476.378C321.85 475.944 321.934 475.912 322.511 475.121C317.708 472.319 312.034 469.592 309.036 464.731C308.666 462.269 308.309 461.161 309.564 458.875C312.545 453.449 319.799 450.948 325.309 449.42Z"/>
	<path fill="#CB926E" transform="scale(0.966583 0.966583)" d="M459.031 510.435C475.34 484.768 463.152 463.051 469.911 438.784C470.398 437.034 471.296 434.444 472.993 433.604C476.608 431.816 481.966 432.544 485.577 433.946C499.964 439.535 507.977 454.086 513.805 467.396C521.933 474.006 529.611 475.769 539.81 476.348C538.054 481.277 535.289 485.761 532.714 490.296C532.672 490.6 532.617 490.901 532.588 491.206C531.713 500.342 553.532 518.009 538.007 532.195C527.764 541.555 508.928 543.944 495.524 543.104C484.053 542.384 477.875 538.975 468.421 533.21C467.346 532.554 466.816 531.779 465.632 532.305L459.809 530.307C459.741 530.164 459.676 530.02 459.607 529.879C457.369 525.341 454.979 524.607 450.445 522.995C448.758 520.398 448.918 519.059 448.724 516.014L450.757 514.537C451.338 514.659 451.871 514.78 452.471 514.737C456.34 514.459 456.721 513.188 459.031 510.435Z"/>
	<path fill="#E2A26F" transform="scale(0.966583 0.966583)" d="M460.318 537.796C458.524 537.4 456.598 537.341 454.772 537.083C447.382 536.037 439.429 532.722 434.901 526.52Q434.646 526.175 434.409 525.818Q434.172 525.46 433.954 525.091Q433.736 524.721 433.538 524.341Q433.339 523.961 433.16 523.572Q432.981 523.182 432.823 522.783Q432.664 522.385 432.526 521.979Q432.389 521.572 432.272 521.16Q432.155 520.747 432.06 520.329Q431.965 519.911 431.891 519.488Q431.818 519.066 431.766 518.64Q431.715 518.214 431.685 517.786Q431.655 517.358 431.648 516.93Q431.64 516.501 431.655 516.072Q431.67 515.644 431.706 515.216Q431.743 514.789 431.802 514.364Q431.861 513.939 431.941 513.518C432.682 509.433 435.015 505.611 438.507 503.317C441.483 501.362 445.314 500.499 448.81 501.309C454.105 502.535 456.391 505.996 459.031 510.435C456.721 513.188 456.34 514.459 452.471 514.737C451.871 514.78 451.338 514.659 450.757 514.537L448.724 516.014C448.918 519.059 448.758 520.398 450.445 522.995C454.979 524.607 457.369 525.341 459.607 529.879C459.676 530.02 459.741 530.164 459.809 530.307L465.632 532.305C464.004 534.504 462.617 536.222 460.318 537.796Z"/>
	<path fill="#F7EFE0" transform="scale(0.966583 0.966583)" d="M462.345 590.754C442.258 601.012 423.059 616.068 404.224 628.603C396.298 633.878 388.248 639.809 379.379 643.378C373.9 645.583 367.703 646.673 361.856 645.499C357.87 644.699 353.904 643.344 350.861 640.564C338.118 628.925 318.826 602.186 307.417 588.081Q281.869 556.684 256.947 524.789C248.446 513.967 239.206 503.283 231.614 491.821C226.632 484.299 224.125 475.983 226.054 467.005C227.509 460.234 231.977 453.198 237.897 449.478C249.98 441.884 264.87 436.682 277.818 430.594C299.947 420.19 336.176 399.95 357.553 394.468C362.232 393.268 368.094 393.859 372.739 394.941C382.047 397.109 392.159 403.145 397.221 411.466C393.295 411.892 390.746 413.13 387.375 415.14C383.458 410.426 376.997 400.894 370.292 400.493C368.106 400.363 366.029 401.647 364.557 403.163C361.693 406.112 360.118 410.398 358.521 414.129C350.817 412.203 345.057 406.595 336.999 411.493C334.99 412.714 333.323 414.723 332.96 417.1C332.391 420.83 334.815 424.199 336.878 427.028L336.208 427.703C330.977 427.001 324.226 426.707 319.804 430.177C318.144 431.479 317.233 433.474 317.049 435.551Q316.995 436.128 317.001 436.708Q317.007 437.287 317.074 437.863Q317.14 438.439 317.266 439.004Q317.392 439.57 317.576 440.12Q317.76 440.669 318 441.197Q318.241 441.724 318.534 442.224Q318.828 442.723 319.172 443.19Q319.516 443.656 319.907 444.084C321.603 445.955 323.495 447.663 325.309 449.42C319.799 450.948 312.545 453.449 309.564 458.875C308.309 461.161 308.666 462.269 309.036 464.731C312.034 469.592 317.708 472.319 322.511 475.121C321.934 475.912 321.85 475.944 321.034 476.378C318.076 477.949 315.158 479.601 313.98 482.976C313.403 484.628 313.749 486.239 314.112 487.894C317.97 494.149 326.85 495.776 333.522 497.422C329.782 500.916 327.097 504.542 327.007 509.864C326.989 510.913 327.987 512.11 328.518 513.022C335.462 517.755 347.503 513.523 349.342 514.594C351.36 515.771 349.913 530.476 358.921 528.896C363.689 528.06 368.055 523.049 370.447 519.125Q371.032 518.161 371.562 517.166C376.117 520.163 373.468 523.589 380.979 523.915L386.492 521.099C389.157 522.832 391.168 524.87 391.904 528.058C393.324 534.212 391.159 540.27 397.469 544.34C402.135 547.35 407.983 545.044 412.151 547.074C419.05 550.435 414.764 562.228 426.76 559.003C430.175 558.084 432.898 556.697 435.83 554.754C439.437 560.676 442.655 566.299 449.982 567.956C453.229 568.69 456.635 567.545 459.255 565.623C461.613 563.894 464.053 560.99 465.45 558.414C468.625 564.183 468.736 573.463 469.393 579.924C466.761 583.32 464.6 587.101 462.345 590.754Z"/>
	<path fill="#6D8B6C" transform="scale(0.966583 0.966583)" d="M1801.45 747.18C1813.48 741.532 1824.11 732.552 1835.79 726.075C1840.94 723.219 1861.11 715.023 1863.37 711.78C1867.2 716.092 1891.43 779.869 1891.23 784.664C1891.19 785.549 1891.18 785.464 1890.99 786.18C1890.96 786.327 1890.93 786.476 1890.89 786.622C1889.21 792.784 1875.69 800.875 1875.07 805.562C1880.79 802.4 1889.44 792.826 1893.1 787.168C1913.46 789.629 1934.01 789.686 1954.49 789.665C1967.09 789.652 1981.76 788.288 1994.09 791.012C1994.88 799.606 1993.35 808.899 1991.98 817.367Q1991.44 820.875 1990.79 824.362Q1990.14 827.849 1989.37 831.313Q1988.6 834.776 1987.71 838.212Q1986.82 841.647 1985.82 845.05Q1984.82 848.454 1983.7 851.821Q1982.58 855.189 1981.35 858.517Q1980.12 861.845 1978.78 865.13Q1977.44 868.414 1975.99 871.651Q1974.53 874.889 1972.97 878.075Q1971.41 881.262 1969.74 884.394Q1968.08 887.526 1966.31 890.599Q1964.53 893.673 1962.66 896.685Q1960.78 899.698 1958.81 902.645Q1956.83 905.592 1954.76 908.471Q1952.68 911.35 1950.51 914.157Q1948.34 916.964 1946.08 919.696C1928.15 941.242 1910.21 953.036 1888.84 969.985C1887.59 970.043 1886.28 969.863 1885.03 969.783C1880.29 961.985 1887.73 817.709 1881.17 809.034L1839.19 809.04C1839.88 807.934 1840.47 806.758 1840.71 805.465C1841.86 799.064 1842.77 782.816 1839.52 777.563C1832.8 776.476 1823.9 779.36 1817.88 776.044L1816.63 777.437C1810.73 778.86 1804.85 772.868 1799.91 769.853C1801.95 772.27 1807.43 775.609 1808.33 778.009C1802.09 777.24 1795.55 775.476 1790.12 779.534C1784.24 787.343 1791.23 800.723 1785.51 809.186C1779.33 809.128 1772.99 809.351 1766.84 808.894C1758.81 809.192 1750.86 809.031 1742.83 808.747C1742.87 796.911 1745.52 759.286 1742.65 750.118C1746.06 755.122 1745.11 768.076 1744.15 774.003C1743.97 775.102 1743.51 776.124 1742.99 777.098C1744.64 781.845 1744.18 784.914 1742 789.406C1741.68 790.068 1741.37 790.723 1741.02 791.37C1751.65 783.058 1759.88 766.846 1770.48 756.683C1779.07 748.438 1793.35 742.44 1800.51 734.484C1802.55 738.138 1803.18 741.313 1802.05 745.409C1801.88 746.014 1801.69 746.603 1801.45 747.18Z"/>
	<path fill="#CB926E" transform="scale(0.966583 0.966583)" d="M1813.83 760.165C1816.03 758.63 1817.64 756.992 1820.54 757.327C1822.75 757.583 1824.16 758.969 1825.38 760.689C1826.2 763.217 1825.87 764.662 1825.08 767.16L1823.44 768.859C1823.1 771.471 1822.87 772.489 1820.63 774.189C1819.75 774.856 1818.81 775.451 1817.88 776.044L1816.63 777.437C1810.73 778.86 1804.85 772.868 1799.91 769.853C1800.78 766.435 1800.91 764.817 1803.34 762.194C1807.4 760.794 1809.6 761.885 1813.65 762.54L1813.83 760.165Z"/>
	<path fill="#E9DBBD" transform="scale(0.966583 0.966583)" d="M1742.83 808.747C1743.5 805.395 1744.54 799.742 1742.65 796.671C1754.62 798.676 1766.75 799.107 1778.65 801.036C1775.8 804.394 1770.62 806.668 1766.84 808.894C1758.81 809.192 1750.86 809.031 1742.83 808.747Z"/>
	<path fill="#E9DBBD" transform="scale(0.966583 0.966583)" d="M1586.73 294.3C1597.25 293.762 1608.97 296.779 1619.29 298.807Q1624.32 299.761 1629.32 300.836Q1634.32 301.911 1639.3 303.106Q1644.27 304.302 1649.22 305.617Q1654.16 306.933 1659.08 308.367Q1663.99 309.802 1668.86 311.355Q1673.74 312.907 1678.58 314.578Q1683.41 316.248 1688.21 318.035Q1693 319.821 1697.75 321.723Q1702.5 323.625 1707.21 325.642Q1711.91 327.658 1716.56 329.787Q1721.22 331.917 1725.82 334.158Q1730.42 336.399 1734.96 338.751Q1739.5 341.102 1743.99 343.563Q1748.48 346.024 1752.9 348.593Q1757.33 351.161 1761.69 353.836Q1766.05 356.511 1770.35 359.29C1770.57 360.275 1770.79 360.924 1770.67 361.926C1754.83 363.651 1737.4 362.21 1721.4 362.052L1721.8 363.758C1718.42 378.951 1709.38 396.859 1703.56 411.56C1696.87 428.461 1691.07 447.08 1682.73 463.097C1681.84 464.8 1680.79 466.001 1679.31 467.209C1679.31 467.011 1679.33 466.812 1679.32 466.615C1678.76 460.366 1658.4 433.481 1653.84 424.966C1638.96 397.208 1605.88 312.604 1586.73 294.3Z"/>
	<path fill="#6D4B3F" transform="scale(0.966583 0.966583)" d="M1342.06 105.995C1345.27 102.664 1348.25 99.0406 1351.58 95.8433C1370.36 77.8543 1394.33 76.3434 1418.87 76.8664C1424.62 87.3006 1436.1 88.7989 1445.95 94.4325C1477.02 112.217 1494.12 139.844 1483.77 175.822C1481.39 184.073 1477.89 196.081 1471.45 202.062C1457.2 198.822 1451.98 195.283 1439.24 189.448C1445.6 186.197 1449.89 183.066 1452.2 176.051Q1452.41 175.394 1452.59 174.727Q1452.77 174.061 1452.92 173.386Q1453.06 172.711 1453.17 172.03Q1453.29 171.349 1453.36 170.664Q1453.44 169.978 1453.49 169.289Q1453.53 168.601 1453.54 167.91Q1453.55 167.22 1453.53 166.53Q1453.51 165.841 1453.45 165.153Q1453.39 164.465 1453.3 163.781Q1453.21 163.096 1453.09 162.418Q1452.96 161.739 1452.81 161.067Q1452.65 160.395 1452.46 159.731Q1452.27 159.068 1452.04 158.415Q1451.82 157.762 1451.57 157.12Q1451.31 156.479 1451.02 155.851Q1450.74 155.223 1450.42 154.61C1448.2 150.209 1444.55 146.542 1439.79 145.005C1436.17 143.835 1431.31 143.513 1427.91 145.398C1425.61 146.675 1423.56 149.189 1421.24 150.124C1396.61 151.788 1370.56 150.591 1349.7 135.751L1348.22 135.924C1349.86 139.94 1352.31 141.036 1356.22 142.691C1376.61 151.328 1397.41 153.193 1419.35 152.757C1420.03 155.238 1419.48 161.948 1418.21 164.32C1417.79 165.106 1418.03 164.931 1417.2 165.129C1404.14 168.259 1361.25 159.99 1350.24 152.908C1344.05 148.929 1338.83 140.272 1332.72 137.435L1332.8 138.188C1333.75 148.256 1330.42 157.728 1333.19 167.916C1335.37 175.898 1347.18 188.25 1347.62 193.666L1347.09 193.417C1331.08 186.076 1318.81 183.34 1311.62 164.555C1308.26 155.788 1308.07 146.08 1311.94 137.451C1320.45 118.462 1340 115.491 1343.12 107.673L1342.06 105.995Z"/>
	<path fill="#CB926E" transform="scale(0.966583 0.966583)" d="M466.421 549.439C468.099 546.2 469.26 542.549 470.908 539.228C482.073 544.291 491.804 546.507 504.127 546.157C509.7 567.326 512.604 579.144 532.83 590.947C545.959 598.608 559.17 605.996 571.533 614.888C561.632 615.067 551.655 615.576 541.878 613.713C524.718 610.445 488.898 592.02 472.089 583.227C470.866 571.766 468.871 560.695 466.421 549.439Z"/>
	<path fill="#F7EFE0" transform="scale(0.966583 0.966583)" d="M1470.92 528.498C1483.23 527.24 1504.59 534.991 1517.09 538.423C1567.9 552.382 1616 564.523 1669.31 558.772C1679.92 557.627 1692.35 556.156 1702.39 552.432C1702.77 553.371 1703.1 554.334 1703.22 555.345C1704.96 569.209 1691.33 599.524 1682.83 611.039C1671.85 625.899 1656.25 636.509 1639.04 642.912C1612.6 652.751 1582.75 652.668 1555.05 656.842C1514.86 662.896 1474.88 670.351 1434.68 676.416C1434.64 675.91 1434.65 675.846 1434.53 675.379C1432.2 666.184 1417.58 653.207 1409.88 648.385L1408.22 649.601L1409.18 648.116L1408.06 648.613C1411.54 654.893 1425.22 662.431 1431.05 672.853C1436.68 682.909 1450.76 724.2 1447.82 734.498C1448.34 735.159 1448.82 735.805 1449.23 736.543C1453.61 744.379 1474.75 871.936 1473.83 875.429C1449.45 884.862 1397.99 885.062 1371.27 883.445C1372.2 877.247 1365.01 858.883 1363.22 851.644C1351.99 806.065 1339.69 760.697 1329.25 714.931C1323.96 691.769 1318.1 667.941 1315.7 644.312C1314.61 633.539 1314.11 621.536 1317.27 611.053C1328.21 574.796 1407.06 550.068 1441.07 538.662C1450.44 535.519 1461.79 533.616 1470.38 528.814C1470.57 528.712 1470.74 528.604 1470.92 528.498Z"/>
	<path fill="#E9DBBD" transform="scale(0.966583 0.966583)" d="M1316.63 752.497C1317.49 752.686 1317.94 753.086 1318.65 753.583C1321.63 764.125 1340.96 873.213 1340.11 877.057C1348.28 878.471 1360.58 877.33 1367.79 881.114C1372.52 883.598 1373.65 885.891 1379.49 886.374C1382.05 891.434 1386.59 900.28 1385.2 905.835C1379.32 921.169 1309.91 938.975 1294.72 952.452C1292.51 954.416 1291.66 956.164 1291.48 959.124C1294.79 965.617 1303.45 964.938 1309.23 968.8L1309.11 969.947C1302.22 971.355 1294.03 970.316 1286.94 970.273L1241.31 970.046C1241.26 969.85 1241.24 969.647 1241.17 969.458C1239.52 965.019 1207.7 934.643 1202.78 932.029C1218.16 931.781 1239.71 935.215 1251.65 923.547Q1252.11 923.092 1252.55 922.614Q1252.99 922.136 1253.41 921.638Q1253.83 921.139 1254.22 920.62Q1254.61 920.101 1254.97 919.563Q1255.34 919.026 1255.67 918.47Q1256.01 917.915 1256.32 917.344Q1256.63 916.773 1256.91 916.187Q1257.19 915.602 1257.44 915.003Q1257.69 914.404 1257.91 913.793Q1258.14 913.182 1258.33 912.561Q1258.52 911.94 1258.68 911.311Q1258.84 910.681 1258.97 910.044Q1259.09 909.407 1259.19 908.765Q1259.29 908.123 1259.35 907.476Q1259.42 906.83 1259.45 906.181Q1259.48 905.533 1259.48 904.883Q1259.47 904.187 1259.43 903.493Q1259.4 902.798 1259.32 902.106Q1259.25 901.415 1259.14 900.727Q1259.03 900.04 1258.89 899.359Q1258.75 898.677 1258.58 898.003Q1258.41 897.33 1258.2 896.665Q1258 896.001 1257.76 895.347Q1257.52 894.693 1257.25 894.052Q1256.98 893.411 1256.68 892.784Q1256.38 892.156 1256.05 891.544Q1255.72 890.932 1255.36 890.337Q1255 889.742 1254.61 889.165Q1254.22 888.588 1253.8 888.031Q1253.39 887.474 1252.94 886.937Q1252.5 886.401 1252.03 885.887Q1251.56 885.373 1251.07 884.882C1246.42 880.317 1240.99 878.413 1234.62 877.643C1223.32 876.275 1211.13 877.14 1199.72 877.178L1142.67 877.159L934.5 877.312Q860.788 876.987 787.079 877.745Q849.893 832.014 912.108 785.473C920.579 779.249 946.129 758.608 953.988 755.777C956.054 755.033 956.553 755.65 958.498 756.533L959.776 756.019L959.606 753.601C961.342 752.923 961.359 752.921 963.14 753.466C964.064 755.213 964.581 756.615 966.466 757.422L966.922 754.821L967.069 756.362L967.178 754.37L969.25 753.866C972.924 754.341 975.643 756.67 978.571 758.765L980.512 756.608C989.699 758.053 1000.37 764.018 1009.37 767.295C1024.7 772.869 1040.67 777.688 1056.59 781.194C1084.07 787.243 1111.83 791.199 1139.51 796.075C1152.39 798.343 1167.35 799.984 1179.57 804.575C1180.1 804.005 1180.56 803.485 1180.98 802.824C1183.24 799.197 1185.36 793.924 1184.22 789.667C1198.4 790.123 1219.02 791.431 1230.92 799.464C1238.16 804.354 1244.61 810.565 1252.32 814.758C1258.99 818.386 1267.91 820.724 1275.37 818.346C1293.38 812.608 1294.71 788.086 1302.2 773.81C1306.18 766.243 1312.78 760.141 1316.63 752.497Z"/>
	<path fill="#B8C39E" transform="scale(0.966583 0.966583)" d="M222.123 476.894C225.832 480.803 227.38 489.601 230.725 494.59C241.645 510.875 255.233 526.285 267.454 541.65Q320.04 608.71 375.703 673.239C424.182 729.457 474.438 784.605 535.691 827.253C569.109 850.521 611.973 870.203 652.104 877.515C666.777 880.188 682.084 879.566 696.951 879.586L751.055 879.631L1004.75 879.211L1070.64 879.207C1084.03 879.084 1098.48 877.736 1111.71 879.381C1117.26 880.07 1122.7 881.988 1127.1 885.502C1132.03 889.44 1134.96 895.301 1135.65 901.528C1136.38 908.113 1134.82 913.962 1130.65 919.113C1125.97 924.897 1120.68 928.322 1113.22 929.12C1105.31 931.548 1063.45 929.543 1051.95 929.517L878.546 929.335L736.002 929.302C710.594 929.325 684.608 930.93 659.288 928.898C533.503 918.805 423.502 803.352 346.338 712.946C315.865 677.244 286.154 640.586 256.56 604.136C240.354 584.175 220.333 563.154 208.073 540.531C203.025 531.216 200.09 521.005 201.056 510.321C202.401 495.436 211.133 485.881 222.123 476.894Z"/>
	<path fill="#6D4B3F" transform="scale(0.966583 0.966583)" d="M953.456 665.356C962.134 663.901 971.51 665.155 979.995 667.202C1000.26 672.089 1020.5 679.628 1040.33 686.15Q1093.96 703.708 1147.37 721.916C1161.22 726.594 1195.16 735.354 1205 741.911C1205.05 745.806 1197.94 754.969 1195.73 758.678C1188.62 770.577 1185.07 793.929 1178.52 802.241C1168.41 797.343 1125.83 791.917 1111.48 789.518C1091.26 786.141 1071.11 782.584 1051.17 777.798C1037.37 774.485 1023.57 770.656 1010.24 765.788C999.392 761.829 988.894 756.929 977.81 753.655Q978.069 747.972 978.14 742.284L977.625 741.823C975.341 743.62 976.177 748.776 974.818 751.861C971.611 753.236 967.917 752.058 964.475 751.583C965.622 742.591 966.293 733.244 967.946 724.353C969.677 715.046 972.615 705.978 973.475 696.52L972.357 695.461C969.568 699.256 965.506 725.429 964.631 731.635C963.911 736.736 964.277 742.093 963.343 747.136C962.945 749.286 962.693 750.117 960.85 751.361C957.032 749.979 954.04 744.924 951.146 742.006C951.964 745.878 953.764 748.891 955.759 752.272C944.511 758.952 934.031 766.973 923.43 774.622Q853.8 826.544 783.567 877.649Q721.733 878.541 659.917 876.805C684.541 844.906 709.315 802.424 710.283 761.038C723.367 760.664 736.272 757.183 749.162 757.05C758.74 756.951 781.017 763.581 788.873 758.172L789.236 756.172C787.703 753.068 784.056 751.898 781.096 750.463C788.521 752.466 794.103 754.595 801.629 751.742C804.868 750.515 808.137 748.155 809.45 744.838C810.526 742.121 810.101 739.202 808.938 736.596C805.877 729.737 800.001 728.064 793.562 725.477C816.053 714.851 839.57 705.645 862.622 696.29C890.351 685.038 923.812 669.237 953.456 665.356Z"/>
	<path fill="#E9DBBD" transform="scale(0.966583 0.966583)" d="M451.052 826.83C463.175 834.716 474.464 846.162 486.059 855.033C519.19 880.379 556.572 902.989 596.012 916.962C615.512 923.871 635.792 928.954 656.431 930.837C677.986 932.803 699.901 931.925 721.532 931.916L823.34 931.9L1154.09 931.95C1155.1 932.47 1156.05 933.143 1156.97 933.817C1162.24 937.681 1192.45 966.072 1193.06 970.104L1048.75 970.023L304.602 969.939C321.057 951.199 340.553 934.259 358.417 916.815Q404.372 871.452 451.052 826.83Z"/>
	<path fill="#6D8B6C" transform="scale(0.966583 0.966583)" d="M1507.78 228.498C1507.97 228.494 1508.17 228.482 1508.36 228.486C1519.77 228.708 1549.61 253.327 1557.96 261.418C1600.69 302.855 1617.46 358.993 1643.78 410.452C1647.45 417.617 1663.56 441.67 1663.64 446.892C1661.73 454.224 1655.43 460.782 1649.77 465.603C1621.66 489.509 1569.02 502.253 1532.66 499.41C1544.12 498.104 1556.5 493.82 1567.52 490.198C1576.35 487.297 1597.36 481.056 1601.39 471.793C1607.02 458.841 1592.28 408.43 1586.26 394.649C1589.14 393.455 1592.27 392.49 1594.55 390.29C1594.55 389.663 1594.52 389.048 1594.44 388.424C1593.33 378.884 1561.21 307.491 1555.06 302.581C1560.33 318.253 1592.56 377.991 1592.03 389.2C1592.02 389.36 1592 389.518 1591.99 389.676C1586.36 395.743 1549.74 406.745 1541.19 408.241C1534.18 412.66 1518.56 413.693 1510.17 414.423C1510.69 412.839 1510.65 411.839 1510.17 410.256C1500.73 379.288 1482.7 349.267 1478.54 316.744C1477.09 305.41 1478.48 293.588 1485.76 284.376C1493.72 274.3 1509.24 270.714 1521.46 273.893C1525 274.814 1528.84 277.595 1532.48 277.15C1531.89 275.043 1531.74 274.235 1529.58 273.212C1521.46 269.36 1505.52 270.835 1497.54 273.747C1488.82 276.926 1483.68 281.807 1479.83 290.296C1467.3 317.948 1492.35 370.224 1502.96 397.439C1504.27 400.808 1508.93 415.524 1512.21 416.304C1514.58 416.869 1516.71 414.867 1519.6 416.133C1523.07 422.293 1529.85 436.929 1529.31 443.848C1525.28 447.628 1488.94 460.732 1481.14 463.49C1480.76 454.897 1434.46 410.178 1428.11 387.905C1422.95 369.81 1428.1 349.997 1430.95 331.94C1431.58 327.978 1431.34 321.747 1433.24 318.369C1433.33 318.538 1433.43 318.705 1433.52 318.877C1435.8 323.244 1434.37 327.468 1433.11 331.91C1443.44 317.724 1441.38 296.817 1445.31 280.388C1445.55 280.728 1445.79 281.072 1446.01 281.429C1449.7 287.486 1453.81 303.664 1452.3 310.307C1452.67 309.76 1453.01 309.199 1453.38 308.65C1457.12 303.071 1458.36 295.292 1460.19 288.837C1463.58 276.879 1468.75 263.986 1476.57 254.196C1482.06 247.329 1489.09 241.599 1496.35 236.721C1499.97 234.293 1504.49 232.072 1507.46 228.868C1507.57 228.748 1507.67 228.622 1507.78 228.498Z"/>
	<path fill="#6D4B3F" transform="scale(0.966583 0.966583)" d="M1722.83 364.499C1736.44 362.413 1752.08 363.942 1765.92 363.924L1857.97 363.843C1858.01 364.139 1858.06 364.453 1858.08 364.75C1858.29 367.954 1749.84 648.964 1745.65 653.987L1710.75 653.939C1674.61 653.965 1637.51 655.763 1601.49 653.361C1623.06 650.894 1644.46 645.682 1662.62 633.288C1683.88 618.776 1696.66 596.69 1702.52 571.937C1703.82 566.456 1703.74 560.593 1705.12 555.233C1705.85 552.392 1708.87 551.483 1711.2 550.221C1712.48 546.604 1711.45 541.058 1710.75 537.261C1708.3 523.778 1691.82 476.649 1681.1 469.247C1681.46 468.865 1681.81 468.473 1682.15 468.07C1687.61 461.506 1723.24 369.478 1722.83 364.499Z"/>
	<path fill="#F7EFE0" transform="scale(0.966583 0.966583)" d="M512.795 567.663C530.9 573.074 547.886 588.286 562.514 599.878C579.887 613.646 602.203 625.967 615.212 644.231C620.363 651.464 623.338 660.474 625.842 668.911C635.629 701.898 641.409 712.769 670.562 731.187C665.066 732.068 653.668 736.227 648.751 734.455C648.247 733.051 647.697 731.698 647.087 730.338C639.681 729.141 612.395 736.685 603.107 738.224C595.251 739.526 587.398 740.173 579.453 740.635C542.427 706.275 535.944 654.575 483.384 637.092C477.425 635.11 463.059 631.488 457.476 634.268L457.953 634.563L458.115 635.7L459.769 634.811C467.21 636.023 475.139 636.729 482.315 639.037C525.36 652.882 534.79 687.785 558.199 720.558C562.777 726.967 568.627 732.766 574.036 738.478C569.747 742.021 565.882 745.745 562.368 750.067C559.573 753.504 554.577 760.153 555.043 764.678C558.79 762.413 560.601 755.721 563.403 752.031C566.333 748.171 569.676 745.073 573.357 741.957C574.643 741.81 575.668 742.061 576.925 742.296C577.085 744.556 567.02 760.937 565.62 767.072L566.424 767.584C571.923 760.868 572.533 752.586 580.808 743.291C602.669 740.526 623.949 736.58 645.523 732.095C647.059 749.146 653.482 766.297 659.979 781.988L592.768 800.835C580.7 804.213 567.887 808.84 555.494 810.505C552.106 810.961 548.909 811.202 545.798 809.541C535.008 803.779 525.226 789.506 517.61 779.969C487.736 742.566 455.275 699.61 441.629 653.022C440.321 648.558 438.799 643.254 439.456 638.604C440.742 629.511 456.17 607.716 461.303 598.371Q474.016 605.844 487.413 612.008Q500.81 618.171 514.757 622.963C519.796 619.585 525.317 616.695 530.574 613.653C546.092 617.908 561.078 617.329 576.99 616.662C561.766 603.503 528.505 588.519 518.147 577.196C515.802 574.631 514.26 570.797 512.795 567.663Z"/>
	<path fill="#6D4B3F" transform="scale(0.966583 0.966583)" d="M912.692 594.12C920.357 593.662 927.324 594.534 934.63 596.872C956.29 603.802 977.509 613.89 998.359 622.942Q1063.72 651.814 1128.13 682.765C1138.63 687.847 1154.4 693.224 1163.26 700.246C1162.82 704.633 1153.62 717.665 1150.62 721.5C1150.53 721.4 1150.44 721.29 1150.33 721.201C1145.96 717.569 994.796 668.608 978.619 664.669C971.079 662.832 963.668 662.899 955.955 662.94C945.796 663.952 936.336 666.748 926.668 669.918C925.851 658.85 924.428 647.253 921.9 636.426C919.647 640.259 923.116 652.334 923.878 656.915C924.695 661.829 925.447 666.933 922.384 671.207C920.219 672.884 918.765 673.186 916.057 673.343C913.982 669.059 914.254 663.256 912.595 658.616C911.697 663.778 912.796 669.138 913.474 674.284C875.853 687.67 839.639 704.461 802.641 719.318L800.91 718.022L802.844 719.48L803.971 718.704C787.403 715.062 771.612 709.653 755.533 704.342C789.788 674.263 869.33 602.098 912.692 594.12Z"/>
	<path fill="#E9DBBD" transform="scale(0.966583 0.966583)" d="M1459.66 674.497C1468.55 673.114 1480.22 675.598 1489.5 675.746C1516.26 676.171 1543.09 675.715 1569.85 675.627C1569.93 676.136 1569.94 676.137 1569.97 676.724C1570.36 682.718 1528.62 829.705 1523.33 849.731C1515.99 877.553 1510.08 906.261 1501.9 933.798C1501.47 935.252 1500.73 936.371 1499.75 937.524C1501.44 944.547 1495.1 962.277 1493 969.678L1491.68 969.952L1490.7 968.687C1491.25 966.287 1492.14 964.118 1493.06 961.847C1491.65 944.43 1478.56 919.577 1472.27 902.703C1469.86 896.245 1468.15 885.119 1463.79 880.081C1467.94 879.376 1471.78 878.641 1475.7 877.087C1476.18 876.11 1476.58 875.066 1476.57 873.962C1476.44 855.249 1443.54 686.439 1436.09 678.508C1443.99 677.352 1451.83 676.078 1459.66 674.497Z"/>
	<path fill="#CB926E" transform="scale(0.966583 0.966583)" d="M1615.99 838.499C1624.47 837.137 1634.1 837.926 1642.73 837.913L1694.7 837.886L1879.59 838.032C1880.11 838.795 1880.55 839.604 1880.8 840.498C1882.59 846.924 1882.55 898.796 1880.16 903.367C1877.22 905.509 1637.65 904.355 1615.21 904.451C1615.3 904.311 1615.41 904.175 1615.49 904.03C1618.72 898.728 1617.84 845.206 1615.99 838.499Z"/>
	<path fill="#CB926E" transform="scale(0.966583 0.966583)" d="M1615.98 907.499C1624.45 906.029 1634.34 906.826 1642.97 906.823L1692.53 906.851C1755.07 906.903 1817.66 907.424 1880.19 906.735C1880.82 907.751 1881.35 908.847 1881.57 910.033C1882.78 916.612 1882.72 964.877 1880.01 968.502L1879.43 969.476C1876.67 970.959 1639.65 970.004 1615.18 970.015C1615.26 969.847 1615.34 969.678 1615.43 969.513C1618.5 963.646 1618.07 915.039 1615.98 907.499Z"/>
	<path fill="#CB926E" transform="scale(0.966583 0.966583)" d="M1581.72 396.499L1584.41 397.071C1590.05 404.967 1601.34 455.665 1600.97 465.236C1600.81 469.276 1599.66 471.642 1596.61 474.356C1585.74 484.029 1566.49 488.571 1552.67 492.509C1492.75 509.578 1404.09 525.025 1342.61 521.74C1325.56 520.829 1312.38 517.897 1296.52 511.637C1292.74 510.143 1287.32 508.51 1284.62 505.337C1282.96 503.397 1283.11 502.823 1283.34 500.449C1284.23 499.731 1285.24 498.608 1286.36 498.357C1290.11 497.51 1293.59 499.057 1296.68 501.152C1296.84 501.264 1297 501.382 1297.17 501.498C1311.73 504.798 1328.81 510.936 1343.83 504.91C1339.03 500.824 1328.86 500.486 1322.72 499.223C1318.62 498.379 1312.91 497.642 1310.45 493.9C1310.6 492.596 1310.4 491.764 1311.5 490.914C1316.83 486.803 1348.93 490.486 1356.5 491.96C1365.15 493.644 1373.57 496.501 1382.25 498.013C1387.1 498.855 1392.38 499.335 1397.21 498.163C1410.61 494.912 1423.84 489.294 1436.66 484.279C1458.72 475.653 1480.49 466.553 1502.35 457.448C1511.65 453.573 1524.06 450.284 1532.09 444.651C1532.19 444.092 1532.29 443.47 1532.26 442.902C1531.95 436.562 1524.71 419.547 1520.33 415.341C1536.51 413.268 1568.58 405.382 1581.72 396.499Z"/>
	<path fill="#6D8B6C" transform="scale(0.966583 0.966583)" d="M1663.98 450.498L1665.84 450.668C1675.89 456.023 1696.27 499.4 1700.82 511.167C1703.97 519.29 1712.23 540.38 1708.56 548.719C1708.35 548.85 1708.14 548.987 1707.93 549.114C1701.91 552.689 1689.49 553.65 1682.52 554.684C1630.67 562.371 1584.07 554.65 1534.18 541.136C1525.01 536.033 1485.2 528.199 1472.44 525.382C1476.57 522.592 1483.94 514.527 1485.65 509.908C1499.86 507.418 1514.31 503.419 1528.58 501.773C1537.76 500.714 1547.24 501.861 1556.5 501.166C1586.37 498.923 1620.4 489.836 1644.81 471.821C1650.86 467.352 1662.82 458.194 1663.98 450.498Z"/>
	<path fill="#83A17D" transform="scale(0.966583 0.966583)" d="M460.385 594.134C460.411 601.015 449.646 614.376 445.755 620.506C440.259 629.162 435.304 637.259 437.798 647.879C448.72 694.393 487.426 746.078 517.078 782.837C524.421 791.939 533.366 804.939 543.374 810.875C550.09 814.858 555.554 813.418 562.6 811.511C576.718 828.129 590.181 845.823 605.232 861.581C585.553 853.503 567.062 844.454 548.915 833.335C472.743 784.942 413.856 714.161 355.491 646.551C363.139 647.89 370.408 648.83 378.005 646.457C390.643 642.51 444.623 604.427 460.385 594.134Z"/>
	<path fill="#CB926E" transform="scale(0.966583 0.966583)" d="M1371.72 232.86C1380.27 230.747 1391.18 223.037 1395.58 215.149C1396.6 213.322 1396.54 212.875 1396.32 210.894L1395.18 210.366C1389.75 217.039 1383.24 229.335 1373.52 230.252C1371.52 230.441 1370.48 229.754 1369.05 228.385C1366.28 225.744 1365.97 223.533 1361.53 223.219C1357.49 222.933 1352.83 223.61 1349.9 220.196C1349.68 219.943 1349.49 219.67 1349.28 219.407C1351.72 211.284 1357.1 202.602 1352.44 194.208C1347.77 185.789 1339.58 179.627 1336.43 170.316C1333.89 162.81 1336.06 147.208 1333.89 142.797C1356.32 159.76 1371.99 164.767 1400.29 166.517C1406.43 166.896 1413.58 167.958 1419.66 167.386C1420.12 167.343 1420.82 167.194 1421.23 167.113C1422.76 160.883 1421.46 149.926 1428.06 146.423C1431.18 144.764 1435.57 145.604 1438.73 146.77C1444.11 148.755 1447.45 153.964 1449.7 158.962C1451.84 163.717 1453.55 169.552 1451.68 174.662C1449.88 179.579 1436.89 186.752 1438.3 189.639C1440.48 194.116 1451.22 199.077 1455.88 200.444C1461.3 202.032 1466.9 203.186 1472.55 203.334C1475.66 206.421 1481.76 211.117 1483.2 215.194C1480.46 221.263 1465.08 231.276 1459.72 238.28C1452.79 247.333 1448.08 264.763 1443.29 270.413C1444.02 264.364 1437.59 252.859 1433.82 248.067C1432.93 246.941 1431.92 245.901 1430.75 245.073C1429.68 240.82 1424.16 236.686 1420.58 234.487C1421.65 233.638 1422.66 232.716 1423.53 231.653C1428.12 226.025 1435.46 213.502 1434.78 206.065L1435.03 203.325C1431.97 207.796 1430.88 214.248 1428.59 219.292C1423.77 229.891 1410.25 246.817 1398.36 249.236C1394.26 250.069 1390.42 249.034 1387 246.701C1381.37 242.867 1377.33 236.864 1371.72 232.86Z"/>
	<path fill="#3C2B24" transform="scale(0.966583 0.966583)" d="M1434.78 206.065C1438.68 211.576 1437.63 222.408 1436.52 228.978C1435.52 234.918 1434.03 239.965 1430.75 245.073C1429.68 240.82 1424.16 236.686 1420.58 234.487C1421.65 233.638 1422.66 232.716 1423.53 231.653C1428.12 226.025 1435.46 213.502 1434.78 206.065Z"/>
	<path fill="#E2A26F" transform="scale(0.966583 0.966583)" d="M1432.23 155.5C1435.68 155.254 1438 155.181 1441.16 156.712L1441.54 158.118C1439.47 159.544 1437.61 160.011 1435.2 160.541L1431.81 162.999L1430.6 162.706C1430.31 159.784 1431.05 158.066 1432.23 155.5Z"/>
	<path fill="#F7EFE0" transform="scale(0.966583 0.966583)" d="M698.243 761.021C701.133 760.747 705.671 760.416 708.073 761.958C708.145 762.337 708.21 762.718 708.255 763.101C708.804 767.807 707.03 774.319 706.088 778.993C698.847 814.944 679.854 847.784 657.526 876.392C641.6 873.237 624.563 869.71 610.142 861.985C605.152 859.312 601.799 854.822 598.195 850.565Q581.73 830.567 564.66 811.083C597.008 800.706 630.355 793.181 662.841 783.142L658.6 772.876Q678.665 767.763 698.243 761.021Z"/>
	<path fill="#CB926E" transform="scale(0.966583 0.966583)" d="M1304.1 695.494L1306.1 695.889C1306.61 696.549 1307.04 697.069 1307.33 697.864C1310.06 705.184 1318.36 741.999 1316.03 748.129C1315.78 754.458 1302.69 768.002 1299.34 774.527C1295.56 781.862 1293.87 790.666 1290.84 798.377C1287.45 806.998 1283.32 812.138 1274.88 815.866C1242.1 818.551 1243.23 795.768 1214.21 791.102C1205.13 788.852 1194.24 788.38 1184.87 787.747C1184.99 787.643 1185.1 787.544 1185.21 787.437C1186.6 786.058 1203.93 747.67 1203.95 746.421C1216.62 749 1241.93 760.92 1253.89 754.55C1264.22 749.049 1300.72 706.836 1304.1 695.494Z"/>
	<path fill="#CB926E" transform="scale(0.966583 0.966583)" d="M427.049 804.754C433.277 807.857 443.9 819.752 449.68 825.058C420.113 852.838 391.487 881.551 362.487 909.911C342.169 929.781 321.054 949.127 301.591 969.832L282.5 969.909L257.75 969.888C273.571 953.247 290.708 937.487 307.119 921.408L427.049 804.754Z"/>
	<path fill="#CB926E" transform="scale(0.966583 0.966583)" d="M1616.05 811.499C1624.28 810.111 1633.89 810.91 1642.26 810.914L1693.49 810.99L1879.44 811.022C1880.27 812.244 1880.76 813.381 1880.98 814.84C1881.79 820.314 1882.61 830.864 1879.24 835.383C1870.98 837.757 1821.04 835.502 1808.84 835.474L1615.44 835.657C1618.4 830.559 1617.44 817.217 1616.05 811.499Z"/>
	<path fill="#83A17D" transform="scale(0.966583 0.966583)" d="M1122.12 879.496C1142.47 877.74 1164.04 879.195 1184.52 879.203C1199.63 879.209 1215.83 877.801 1230.82 879.057C1235.4 879.442 1239.91 880.571 1243.96 882.792Q1244.53 883.102 1245.08 883.439Q1245.63 883.776 1246.16 884.141Q1246.7 884.505 1247.21 884.895Q1247.73 885.285 1248.22 885.7Q1248.72 886.115 1249.19 886.554Q1249.67 886.993 1250.12 887.455Q1250.57 887.917 1251 888.4Q1251.43 888.884 1251.83 889.388Q1252.24 889.893 1252.62 890.416Q1253 890.94 1253.35 891.482Q1253.7 892.023 1254.03 892.582Q1254.35 893.14 1254.65 893.714Q1254.95 894.288 1255.22 894.875Q1255.48 895.463 1255.72 896.064Q1255.96 896.664 1256.17 897.275Q1256.38 897.887 1256.56 898.508C1258.23 904.307 1257.8 910.853 1254.79 916.152Q1254.47 916.697 1254.13 917.225Q1253.79 917.754 1253.42 918.265Q1253.05 918.776 1252.66 919.268Q1252.27 919.761 1251.85 920.233Q1251.44 920.705 1251 921.157Q1250.56 921.608 1250.1 922.037Q1249.64 922.466 1249.15 922.872Q1248.67 923.278 1248.17 923.66Q1247.67 924.042 1247.15 924.399Q1246.63 924.755 1246.1 925.086Q1245.56 925.417 1245.01 925.721Q1244.46 926.024 1243.89 926.301Q1243.33 926.577 1242.75 926.825Q1242.17 927.074 1241.58 927.293Q1240.99 927.512 1240.39 927.703Q1239.79 927.893 1239.18 928.053C1234.88 931.826 1132.9 929.815 1120.21 929.777C1126.1 927.092 1130.82 923.271 1134.16 917.654Q1134.5 917.089 1134.82 916.507Q1135.13 915.925 1135.42 915.328Q1135.7 914.731 1135.95 914.12Q1136.21 913.509 1136.43 912.887Q1136.65 912.264 1136.84 911.631Q1137.04 910.998 1137.19 910.356Q1137.35 909.714 1137.48 909.065Q1137.61 908.415 1137.7 907.761Q1137.79 907.106 1137.85 906.447Q1137.91 905.789 1137.94 905.128Q1137.96 904.467 1137.96 903.806Q1137.95 903.145 1137.91 902.484Q1137.87 901.824 1137.8 901.167Q1137.72 900.51 1137.62 899.857Q1137.51 899.204 1137.37 898.558Q1137.23 897.912 1137.06 897.273C1134.83 888.912 1129.4 883.676 1122.12 879.496Z"/>
	<path fill="#F7EFE0" transform="scale(0.966583 0.966583)" d="M1466.14 525.499L1469.77 525.599C1469.13 527.602 1466.93 528.149 1465 528.876C1422.59 544.865 1374.37 555.086 1337.08 582.146C1325.59 590.489 1316.56 601.667 1313.81 615.939C1306.22 655.294 1345.45 790.212 1357.42 836.085C1359.81 845.243 1367.8 868.048 1366.31 876.058C1366.27 876.267 1366.22 876.471 1366.17 876.678C1361.87 876.661 1357.55 876.495 1353.25 876.399L1341.56 875.218C1343.65 869.419 1315.95 726.881 1311.83 707.899C1306.76 684.489 1296.14 649.786 1294.78 627.148C1294.26 618.306 1295.59 609.724 1299.89 601.881C1319.96 565.317 1427.6 536.619 1466.14 525.499Z"/>
	<path fill="#6D4B3F" transform="scale(0.966583 0.966583)" d="M1576.27 675.5C1578.56 675.29 1582.08 674.585 1584.26 675.278C1586.31 675.932 1586.41 676.648 1587.41 678.447C1587.72 682.169 1556.97 793.089 1553.19 807.277L1526.67 909.666C1522.74 924.762 1518.97 939.861 1514.79 954.878C1513.53 959.39 1513.94 964.039 1511.56 968.231C1508.95 970.249 1507.93 969.95 1504.75 969.976C1502.13 970.003 1499.49 969.852 1496.87 969.76L1496.14 968.51C1497.7 953.351 1503.31 937.129 1506.97 922.23C1516.92 881.607 1527.84 841.362 1538.54 800.929C1543.27 783.038 1566.93 686.23 1572.85 676.586C1573.31 675.853 1575.39 675.697 1576.27 675.5Z"/>
	<path fill="#CB926E" transform="scale(0.966583 0.966583)" d="M734.67 717.385C739.124 716.427 744.6 716.682 749.151 716.931C762.296 717.651 797.388 725.906 806.48 735.927C804.368 736.653 766.785 723.829 753.225 725.803C764.265 728.3 775.435 730.108 786.415 732.916C793.201 734.652 804.376 737.51 808.131 743.821C802.411 747.504 782.358 738.99 775.056 737.544C767.696 736.087 760.224 735.096 752.713 735.192L752.271 735.985C759.045 740.103 790.494 739.898 802.313 748.296L802.112 749.742C795.915 752.776 792.183 751.077 785.873 749.409Q779.395 747.941 772.878 746.653C767.983 745.727 754.452 742.712 750.419 745.469L753.514 745.453C754.969 746.642 758.966 746.671 760.97 747.03C767.94 748.278 782.681 750.736 786.941 756.856C781.974 760.721 759.057 755.393 751.793 754.963C743.778 754.489 735.054 756.373 727.064 757.287C717.611 758.368 707.837 757.915 698.478 759.475C685.06 761.711 671.076 767.203 657.86 770.8C653.466 760.292 651.003 748.852 648.292 737.816C659.211 735.667 670.182 733.454 680.918 730.51C698.828 725.6 716.11 719.514 734.67 717.385Z"/>
	<path fill="#CB926E" transform="scale(0.966583 0.966583)" d="M1272.9 653.493C1273.85 653.336 1274.91 653.118 1275.88 653.181C1278.24 653.337 1279.98 654.74 1281.36 656.569C1285.02 661.436 1283.99 667.87 1283.21 673.448C1284.99 676.77 1287.34 675.473 1289.94 677.968C1290.91 682.162 1287.9 684.783 1287.76 688.907Q1288.66 690.143 1289.48 691.428C1292.52 696.227 1292.3 701.366 1290.99 706.74C1287.97 719.035 1266.2 744.522 1255.23 750.823C1236.1 761.811 1214.18 744.202 1197.77 736.403C1192.61 733.946 1186.71 732.529 1181.19 731.092C1175.02 726.829 1159.97 723.901 1152.33 721.838C1156.44 718.805 1160.17 710.411 1163.3 705.975C1177.82 712.847 1196.53 723.772 1212.98 722.894C1229.03 722.035 1252.36 697.136 1262.35 685.977C1271.76 675.471 1273.64 667.312 1272.9 653.493Z"/>
	<path fill="#CB926E" transform="scale(0.966583 0.966583)" d="M1456.33 881.5C1459.01 881.246 1460.81 880.533 1463.13 882.04C1465.5 889.644 1467.75 897.397 1470.6 904.836C1474.3 914.507 1489.56 943.565 1486.92 952.596C1478.65 957.82 1435.95 959.089 1424.78 959.13C1409.11 954.837 1410.86 932.432 1401.59 923.037C1402.19 922.859 1402.77 922.683 1403.35 922.45C1410.38 919.646 1422.68 914.805 1425.92 907.679C1426.1 907.138 1426.27 906.545 1426.31 905.974C1426.63 901.461 1422.16 888.694 1418.92 885.441C1431.35 885.156 1444.19 884.261 1456.33 881.5Z"/>
	<path fill="#DDC7A1" transform="scale(0.966583 0.966583)" d="M1396.29 924.497L1400.03 924.526C1403.04 927.087 1409.13 946.204 1412.87 951.839C1415.28 955.461 1418.48 959.2 1422.59 960.911C1435.21 966.162 1476.82 953.652 1488.84 956.172C1489.46 956.932 1489.96 957.695 1490.31 958.622C1491.12 960.783 1491.43 963.748 1490.52 965.869C1487.86 968.327 1484.4 969.123 1480.9 969.623C1472.54 970.813 1463.41 970.106 1454.94 970.094L1405.75 969.946Q1379.6 969.756 1353.44 969.917C1342.43 970.025 1330.47 971.094 1319.57 969.657C1316.06 969.195 1310.97 968.078 1308.4 965.418C1306.58 963.542 1306.65 962.239 1306.56 959.812C1312.84 948.33 1379.59 933.761 1395.72 924.824C1395.91 924.718 1396.1 924.606 1396.29 924.497Z"/>
	<path fill="#6D4B3F" transform="scale(0.966583 0.966583)" d="M1583.32 656.5C1602.33 655.565 1621.63 656.115 1640.68 656.085L1745.06 656.265C1746.1 661.56 1741.55 669.455 1738.9 673.87Q1686.83 673.287 1634.75 673.378C1620.18 673.307 1481.63 672.846 1478.63 674.037C1478.43 674.115 1478.26 674.242 1478.07 674.345L1477.56 672.822L1474.78 673.038C1480.27 669.617 1571.33 657.152 1583.32 656.5Z"/>
	<path fill="#F7EFE0" transform="scale(0.966583 0.966583)" d="M1679.39 748.499C1699.11 746.675 1719.77 748.174 1739.63 747.62C1740.16 748.508 1740.53 749.428 1740.8 750.428C1741.93 754.695 1742.04 802.033 1740.73 805.935C1740.45 806.777 1739.63 807.822 1739.17 808.614C1730.39 810.876 1689.66 808.914 1678.77 808.847C1678.85 808.663 1678.93 808.479 1679.02 808.297C1682.35 801.289 1681.35 757.383 1679.39 748.499Z"/>
	<path fill="#B8C39E" transform="scale(0.966583 0.966583)" d="M1338.34 421.501L1367.33 421.232C1367.72 421.824 1368.03 422.386 1368.3 423.051C1370.43 428.26 1370.05 473.158 1367.49 478.748C1360.14 479.537 1352.18 479.015 1344.75 479.091C1334.84 479.362 1324.87 479.114 1314.95 479.086C1315.54 478.16 1316.02 477.206 1316.32 476.15C1317.97 470.317 1317.78 426.361 1314.94 421.637L1338.34 421.501Z"/>
	<path fill="#6D4B3F" transform="scale(0.966583 0.966583)" d="M1228.49 470.495C1238.28 470.758 1250.8 476.146 1261.6 477.218C1312.72 482.295 1358.44 483.578 1409.38 474.936C1409.24 475.686 1409.24 475.873 1409.01 476.535C1406.56 483.821 1391.63 493.558 1384.94 496.89C1379.35 495.187 1373.97 493.717 1368.17 492.864C1368.01 492.736 1367.86 492.579 1367.67 492.48C1359.58 488.186 1325.14 485.691 1315.67 487.359C1312.99 487.83 1310.54 488.432 1308.87 490.752C1308.57 492.84 1308.93 494.67 1310.17 496.427C1314.01 501.869 1326.52 501.523 1332.65 502.938L1333.48 503.132C1315.39 510.439 1298.32 493.596 1283.54 496.402C1280.52 499.055 1281.48 501.282 1279.53 504.317C1279.37 504.566 1279.19 504.807 1279.03 505.052C1256.54 497.207 1243.12 489.638 1228.49 470.495Z"/>
	<path fill="#CB926E" transform="scale(0.966583 0.966583)" d="M1455.66 438.497C1457.87 438.345 1458.85 438.014 1460.67 439.484C1465.04 443.004 1478.41 458.945 1479.02 464.511C1474.47 469.504 1399.06 496.172 1389.29 497.258C1394.31 493.986 1401.55 489.973 1404.24 484.499C1405.31 483.955 1406.11 483.304 1406.99 482.49C1409.63 480.047 1413.32 476.083 1413.46 472.33C1405.75 473.232 1375.94 479.319 1371.15 476.601L1371.1 474.743C1376.09 471.191 1385.84 469.506 1391.75 467.392C1403.8 463.081 1447.66 445.985 1455.66 438.497Z"/>
	<path fill="#6D4B3F" transform="scale(0.966583 0.966583)" d="M1446.41 55.4985C1460.15 54.3393 1480.61 55.9161 1485.85 71.2758C1486.76 73.933 1486.64 79.732 1488.1 81.7744C1489.78 84.1115 1495.25 85.3254 1497.75 87.4783C1499.96 89.3886 1500.19 91.3809 1500.33 94.1258C1499.23 96.4018 1498.1 97.7099 1495.86 98.8234C1487.77 102.839 1480.7 94.222 1473.26 91.6656L1472.3 91.3453C1472.4 90.9938 1472.56 90.5608 1472.6 90.1836C1473.2 85.5359 1471.29 80.3589 1468.24 76.9086C1461.32 69.0965 1450.25 66.1619 1440.24 65.4756C1439.61 65.482 1438.87 65.8114 1438.27 65.9957C1441.41 68.5712 1455.36 69.6111 1461.95 74.1966C1466.42 77.3071 1470.1 82.8158 1470.78 88.2922C1471.16 91.3485 1469.56 94.5533 1467.76 96.927C1465.69 99.6439 1463.61 100.389 1460.35 100.845C1454.06 96.9807 1425.57 82.4735 1423.72 80.5601C1423.1 79.9256 1422.23 77.9579 1421.95 77.0392Q1421.8 76.5667 1421.7 76.0818Q1421.61 75.597 1421.56 75.1047Q1421.51 74.6125 1421.51 74.1177Q1421.51 73.623 1421.56 73.1307Q1421.61 72.6384 1421.7 72.1536Q1421.8 71.6687 1421.95 71.1962Q1422.1 70.7236 1422.29 70.2681Q1422.48 69.8126 1422.72 69.3787C1427.1 61.2047 1438.13 57.8984 1446.41 55.4985Z"/>
	<path fill="#B8C39E" transform="scale(0.966583 0.966583)" d="M1270.02 419.497C1280.23 418.214 1291.09 418.965 1301.39 419.012C1302.07 420.098 1302.63 421.267 1302.88 422.531C1304.2 429.262 1304.39 473.158 1301.59 477.505C1295.41 479.9 1276.79 476.557 1269.35 475.768C1272.33 469.42 1271.85 426.081 1270.02 419.497Z"/>
	<path fill="#F7EFE0" transform="scale(0.966583 0.966583)" d="M629.243 674.671C637.064 677.579 645.159 683.355 652.101 688.07L651.984 686.987L651.212 690.167C648.9 691.181 646.709 692.274 644.497 693.485L644.125 695.162L645.499 695.53L649.328 692.471C660.574 689.735 690.345 697.593 703.551 699.601C700.64 702.738 698.358 706.151 696.011 709.708C692.918 714.83 690.789 720.657 688.432 726.149C683.664 727.55 678.798 728.634 673.966 729.796Q673.303 729.479 672.648 729.146C648.191 716.738 637.702 700.303 629.243 674.671Z"/>
	<path fill="#CB926E" transform="scale(0.966583 0.966583)" d="M1158.46 932.495C1172.1 931.103 1186.53 932.019 1200.26 932.071C1201.38 932.707 1202.52 933.395 1203.52 934.206C1208.78 938.467 1236.43 965.136 1236.99 969.504C1229.85 971.778 1205 970.106 1196.17 970.004C1194.23 963.807 1164.77 937.567 1158.46 932.495Z"/>
	<path fill="#6D8B6C" transform="scale(0.966583 0.966583)" d="M1491.49 212.5C1492.1 212.606 1492.6 212.677 1493.14 213.01C1496.77 215.233 1504.79 222.714 1506.17 226.668C1499.73 234.757 1483.83 240.575 1474.79 252.707C1466.99 263.18 1457.85 290.2 1454.77 293.507C1455.31 295.126 1455.21 296.387 1455.06 298.072C1453 298.105 1448.58 278.012 1444.67 274.382C1448.33 270.335 1450.26 261.369 1452.31 256.21C1460.04 236.827 1475.66 225.17 1491.49 212.5Z"/>
	<path fill="#F7EFE0" transform="scale(0.966583 0.966583)" d="M1791.89 779.499C1807.29 778.619 1822.86 778.948 1838.28 778.856C1838.98 780.029 1839.54 781.198 1839.8 782.55C1840.89 788.397 1841.85 804.054 1838.43 808.881L1834.86 809.429C1819.15 809.667 1803.38 809.307 1787.66 809.183C1792.91 800.733 1785.89 788.435 1791.89 779.499Z"/>
	<path fill="#CB926E" transform="scale(0.966583 0.966583)" d="M1401.25 886.51L1416.11 885.854C1419.08 888.46 1421.95 895.028 1423.05 898.868C1423.95 902 1423.51 905.23 1421.83 908.03C1415.81 918.073 1390.45 925.366 1379.17 928.111C1377.31 929.779 1374.7 930.606 1372.31 931.02C1370.17 930.004 1369.28 929.596 1368.58 927.105C1366.05 918.168 1384.29 914.22 1387.88 906.426C1387.97 906.239 1388.04 906.046 1388.12 905.857C1388.23 905.442 1388.4 904.955 1388.43 904.509C1388.7 899.907 1383.76 889.811 1380.6 886.527C1387.54 886.829 1394.32 886.994 1401.25 886.51Z"/>
	<path fill="#CB926E" transform="scale(0.966583 0.966583)" d="M705.595 700.821C723.4 704.61 741.648 704.594 759.238 708.246C772.768 711.055 785.136 717.66 798.905 719.885C795.674 721.391 792.311 722.69 789.025 724.076L777.737 720.735C744.546 710.386 723.755 715.485 691.18 725.113C694.207 716.027 699.28 707.936 705.595 700.821Z"/>
	<path fill="#F7EFE0" transform="scale(0.966583 0.966583)" d="M469.254 583.68C484.088 593.443 512.355 604.448 529.375 611.358L518.799 617.672L514.997 619.471C501.498 619.327 474.627 603.511 462.466 596.209C464.401 591.864 466.874 587.791 469.254 583.68Z"/>
	<path fill="#DDC7A1" transform="scale(0.966583 0.966583)" d="M1361.55 923.496C1362.69 923.39 1363.85 923.456 1364.99 923.474C1365.18 923.749 1365.38 924.018 1365.56 924.3C1366.92 926.473 1367.69 930.235 1367.11 932.722C1356.03 937.185 1314.95 947.87 1308.18 954.224C1305.83 956.427 1306.02 960.658 1303.92 962.758C1302.66 964.014 1299.82 963.107 1298.15 962.878C1296.27 961.564 1294.86 960.493 1293.62 958.534C1296.68 946.611 1349.55 932.743 1361.55 923.496Z"/>
	<path fill="#6D8B6C" transform="scale(0.966583 0.966583)" d="M1434.31 258.497L1437.04 259.132C1439.73 263.119 1443.32 269.685 1443.13 274.643C1443.97 282.04 1439.71 313.05 1435.72 318.501C1435.91 316.421 1427.47 269.1 1426.53 266.787C1429.73 264.987 1432.6 261.714 1434.31 258.497Z"/>
	<path fill="#6D4B3F" transform="scale(0.966583 0.966583)" d="M1470.96 94.4984C1473.92 94.2739 1477.01 95.4108 1479.6 96.7902C1483.13 98.6759 1486.52 101.656 1487.56 105.676C1488.07 107.662 1487.85 109.908 1486.74 111.66C1484.63 115.005 1480.77 115.954 1477.21 116.865C1474.36 117.743 1465.8 105.522 1461.22 103.294C1462.93 102.463 1464.67 101.628 1466.31 100.665C1469.08 99.0387 1470.14 97.5124 1470.96 94.4984Z"/>
	<path fill="#83A17D" transform="scale(0.966583 0.966583)" d="M221.75 846.551C193.549 837.715 158.81 862.951 136.256 849.14C130.568 845.657 126.823 840.117 125.321 833.656Q125.163 832.97 125.039 832.278Q124.915 831.585 124.827 830.887Q124.738 830.189 124.684 829.488Q124.631 828.786 124.612 828.082Q124.594 827.379 124.611 826.676Q124.628 825.972 124.68 825.27Q124.732 824.569 124.819 823.87Q124.907 823.172 125.029 822.479Q125.151 821.786 125.308 821.1Q125.465 820.415 125.656 819.737Q125.847 819.06 126.072 818.393Q126.296 817.727 126.554 817.072Q126.812 816.417 127.103 815.776Q127.393 815.135 127.715 814.51Q128.037 813.884 128.391 813.276Q128.744 812.667 129.127 812.077Q129.473 811.549 129.846 811.039Q130.218 810.53 130.615 810.039Q131.013 809.549 131.434 809.078Q131.855 808.608 132.299 808.16Q132.743 807.711 133.209 807.285Q133.675 806.86 134.162 806.458Q134.649 806.056 135.155 805.678Q135.661 805.301 136.186 804.95Q136.71 804.598 137.251 804.273Q137.792 803.948 138.349 803.651Q138.906 803.353 139.477 803.084Q140.048 802.815 140.631 802.574Q141.215 802.334 141.81 802.123Q142.405 801.912 143.01 801.73Q143.614 801.549 144.227 801.399Q144.84 801.248 145.46 801.128C170.327 796.191 207.565 831.363 227.351 844.932C225.237 845.229 223.599 845.441 221.75 846.551Z"/>
</svg>
