<?xml version="1.0" encoding="utf-8" ?>
<svg xmlns="http://www.w3.org/2000/svg" xmlns:xlink="http://www.w3.org/1999/xlink" width="1980" height="990">
	<path fill="#FBF8F2" transform="scale(0.966583 0.966583)" d="M0 0L2046.25 0C2048.75 3.75313 2047.99 9.76244 2047.99 14.1208L2048.02 767.612L2048.01 954.147C2048.01 967.073 2049.66 1011.74 2047.62 1020.8C2047.36 1021.98 2046.85 1022.96 2046.25 1024L0 1024L0 0Z"/>
	<path fill="#010000" transform="scale(0.966583 0.966583)" d="M1040.91 184.79C1125.84 193.543 1219.68 168.98 1298.94 139.737C1340.27 124.488 1380.87 107.149 1423.34 95.1572C1560.68 56.3848 1726.19 63.3943 1846.16 147.334C1876.18 168.336 1902.6 194.696 1925.66 223.055C1980.39 290.353 2010.36 382.982 2001.39 469.525C1997.94 502.762 1987.25 536.61 1971.89 566.294C1966.19 577.315 1959.11 587.841 1953.77 598.981L1952.59 599.296L1950.6 601.891C1949.66 608.799 1927.37 630.441 1928.86 634.032L1928.29 635.473C1919.5 636.611 1910.1 635.93 1901.23 635.896C1897.34 644.541 1878.07 654.351 1869.26 657.673C1857.28 662.192 1846.27 663.289 1833.52 661.855C1835.12 667.53 1817.78 736.491 1815.12 750.167C1810.69 772.911 1807 795.358 1804.66 818.402C1803.97 825.171 1803.8 842.543 1800.97 847.785C1800.67 848.345 1800.63 848.37 1800.32 848.834C1811.56 848.835 1829.89 852.249 1839.31 851.26C1839.25 851.085 1839.19 850.907 1839.11 850.734C1837.3 846.516 1828.98 840.073 1825.61 834.115C1814.4 814.272 1819.91 780.42 1827.34 760.134C1844.36 713.679 1885.18 678.079 1929.3 657.702Q1940.64 652.479 1952.45 648.443Q1964.27 644.408 1976.43 641.602C1983.3 640.057 1990.45 639.246 1997.25 637.558C2002.42 647.871 1991.14 681.985 1987.32 693.482C1968.34 750.672 1927.15 814.049 1872.34 841.527C1860.3 847.563 1849.39 847.719 1836.6 850.213C1846.11 853.293 1855.86 855.173 1865.23 858.711C1895.74 870.221 1918.32 892.879 1932.95 921.674C1937.99 931.604 1952.87 967.064 1949.29 977.58C1949.09 978.151 1948.98 978.361 1948.74 978.868L713.977 978.969L332.621 978.809C259.535 978.821 186.374 979.551 113.296 978.713C144.012 946.334 189.87 924.762 232.511 912.914C222.776 905.723 208.364 901.683 197.453 896.132C170.594 882.47 146.622 862.921 125.846 841.196C65.8157 778.425 41.1634 685.011 43.171 600.043C44.4927 592.445 44.3229 584.026 44.9757 576.279Q46.9541 554.103 50.4092 532.108C62.6735 456.849 94.3478 384.425 136.84 321.467Q151.996 298.612 169.367 277.392C176.088 269.251 184.97 261.383 190.508 252.516L190.969 251.762L191.379 249.154L192.763 248.474C195.363 255.808 193.782 326.814 193.804 339.333L193.959 632.973L673.125 632.621L673.457 288.567L673.509 155.103C673.504 129.435 672.899 103.604 673.575 77.9543C673.623 76.1005 673.74 74.9746 674.753 73.3666C710.933 76.5288 749.11 87.0845 783.055 99.8428C811.544 110.55 882.719 143.074 909.041 144.099C933.677 131.804 953.139 127.059 980.627 132.603C978.466 123.851 977.06 116.551 981.92 108.257C986.086 101.147 993.596 97.0328 1001.4 95.1307C1016.01 91.5724 1032.13 94.9267 1044.82 102.758C1056.61 110.031 1066.38 121.483 1069.69 135.123C1072.06 144.884 1071.04 155.178 1065.66 163.782C1058.99 174.463 1041.99 180.509 1041.62 181.054C1041.08 181.832 1040.95 183.886 1040.91 184.79Z"/>
	<path fill="#D3DCCE" transform="scale(0.966583 0.966583)" d="M1040.91 184.79C1125.84 193.543 1219.68 168.98 1298.94 139.737C1340.27 124.488 1380.87 107.149 1423.34 95.1572C1560.68 56.3848 1726.19 63.3943 1846.16 147.334C1876.18 168.336 1902.6 194.696 1925.66 223.055C1980.39 290.353 2010.36 382.982 2001.39 469.525C1997.94 502.762 1987.25 536.61 1971.89 566.294C1966.19 577.315 1959.11 587.841 1953.77 598.981L1952.59 599.296L1950.6 601.891L1931.27 601.843L1932.24 599.888C1930.18 599.804 1928.14 599.636 1926.09 599.461L1925.09 598.251C1927.46 588.013 1931.45 578.035 1933.29 567.705C1936.88 547.564 1945.07 474.738 1935.02 460.247C1919.33 463.145 1904.14 466.548 1889.23 472.364C1848.86 488.112 1808.44 518.798 1801.14 564.178C1799.87 572.105 1800.24 592.595 1797.43 598.567C1797.34 598.743 1797.25 598.913 1797.16 599.086L1759.73 599.051C1759.58 598.251 1759.38 597.866 1758.96 597.163C1749.73 581.787 1705.8 550.874 1688.58 546.854C1689.55 549.917 1682.57 595.783 1681.1 599.05L1430.64 599.024C1430.34 594.436 1425.66 588.084 1423.32 584.167C1409.77 561.496 1391.13 541.519 1371.11 524.429C1361.23 515.988 1350.6 508.077 1341.41 498.874C1314.96 472.396 1300.6 435.962 1283.44 403.282C1271.4 380.348 1257.33 357.549 1240.75 337.627C1202.87 292.122 1152.37 274.056 1096.15 262.618C1085.88 260.528 1074.56 256.801 1064.22 255.87C1063.64 256.177 1063.06 256.484 1062.46 256.766C1057.19 259.261 1049.72 254.426 1044.52 252.51C1048.6 248.989 1049.73 241.088 1050.26 235.948C1051.56 223.282 1049.12 194.798 1040.91 184.79Z"/>
	<path fill="#49403C" transform="scale(0.966583 0.966583)" d="M1932.24 599.888C1939.01 599.179 1945.79 599.276 1952.59 599.296L1950.6 601.891L1931.27 601.843L1932.24 599.888Z"/>
	<path fill="#49403C" transform="scale(0.966583 0.966583)" d="M1695.46 115.089C1697.45 111.637 1695.36 107.072 1697.01 103.177C1697.56 101.886 1699.33 100.821 1700.56 100.327C1704.28 98.844 1709.26 99.3926 1712.84 101.019C1714.82 101.92 1716.83 103.49 1717.5 105.609C1718.32 108.158 1717.72 112.343 1716.63 114.733C1730.97 119.198 1742.13 127.173 1749.37 140.598C1755.06 151.153 1756.61 163.242 1753.03 174.765C1750.11 184.137 1742.81 194.152 1734.01 198.823L1780.1 198.828C1787.43 198.791 1795.13 197.878 1802.42 198.733C1805.11 199.048 1808.2 199.873 1810.16 201.854C1811.65 203.356 1812.43 205.47 1812.39 207.572C1812.34 210.211 1811.14 212.742 1809.24 214.554C1804.24 219.314 1762.78 217.068 1754.27 217.118C1757.6 222.554 1757.04 256.833 1755.31 263.833C1754.53 267.002 1752.95 270.585 1749.93 272.188C1747.81 273.311 1745.44 273.065 1743.24 272.329C1727.68 267.103 1740.93 230.316 1735.08 217.948C1732.24 216.567 1727.91 217.083 1724.75 217.094L1581.53 217.1C1584.91 222.22 1583.99 255.136 1582.63 262.508C1581.91 266.414 1580.59 269.997 1577.14 272.254C1575.99 273.008 1573.94 273.04 1572.65 272.667C1554.07 267.29 1569.84 230.672 1562.47 217.637C1562.38 217.472 1562.27 217.316 1562.17 217.155L1486.74 217.049C1476.77 217.043 1466.02 218.049 1456.16 217.335C1453.58 217.149 1451.1 216.201 1448.9 214.889C1445.57 212.911 1443.65 210.307 1442.72 206.57C1443.14 204.448 1443.13 203.452 1444.79 201.918C1450.77 196.364 1468.7 198.685 1476.51 198.789C1476.93 198.007 1477.39 197.087 1477.53 196.203C1477.93 193.57 1473.44 136.723 1472.58 131.533C1472.35 130.187 1471.69 128.959 1470.97 127.815L1524.59 127.847C1525.17 128.833 1525.71 129.878 1525.98 130.999C1528.33 140.811 1524.12 191.08 1519.17 198.689L1563 198.701C1570.67 187.675 1579.03 107.142 1583.96 101.519C1584.82 100.531 1587.56 100.634 1588.93 100.5C1607.25 99.958 1625.67 100.362 1644.01 100.392C1644.55 101.219 1645 102.109 1645.19 103.086C1646.77 111.447 1646.75 193.974 1643.72 198.766L1678.48 198.833C1677.03 193.574 1667.24 186.075 1664.33 179.262C1659.38 167.666 1658.49 154.93 1663.35 143.14C1669.48 128.294 1681.28 120.859 1695.46 115.089Z"/>
	<path fill="#EAD6C6" transform="scale(0.966583 0.966583)" d="M1698.22 117.499C1705.8 116.863 1712.82 116.49 1720.21 118.812C1732.12 122.555 1741.83 131.489 1747.48 142.524C1752.64 152.603 1753.72 164.207 1750.1 174.977C1746.77 184.856 1739.1 194.04 1729.74 198.716L1713.75 198.814L1683.41 198.831C1682.98 197.801 1683.23 198.079 1682.49 197.403C1674.19 189.896 1668.03 183.774 1664.61 172.796C1661.23 161.957 1661.99 150.118 1667.44 140.083C1674.12 127.792 1685.22 121.266 1698.22 117.499Z"/>
	<path fill="#FBF8F2" transform="scale(0.966583 0.966583)" d="M1705.51 126.901Q1706.33 126.857 1707.16 126.854Q1707.98 126.85 1708.8 126.886Q1709.62 126.922 1710.44 126.998Q1711.26 127.074 1712.08 127.189Q1712.89 127.305 1713.7 127.46Q1714.51 127.615 1715.31 127.808Q1716.11 128.002 1716.9 128.235Q1717.69 128.467 1718.47 128.737Q1719.25 129.008 1720.01 129.315Q1720.78 129.623 1721.52 129.967Q1722.27 130.312 1723 130.692Q1723.73 131.072 1724.44 131.487Q1725.16 131.902 1725.85 132.351Q1726.54 132.8 1727.2 133.282Q1727.87 133.764 1728.51 134.278Q1729.16 134.791 1729.78 135.336Q1730.39 135.88 1730.99 136.453Q1731.58 137.027 1732.14 137.628Q1732.7 138.23 1733.23 138.858Q1733.77 139.486 1734.27 140.139Q1734.77 140.792 1735.24 141.468Q1735.71 142.145 1736.14 142.844Q1736.58 143.542 1736.98 144.261Q1737.38 144.98 1737.75 145.717Q1738.12 146.454 1738.45 147.209Q1738.78 147.963 1739.07 148.732Q1739.36 149.502 1739.62 150.285Q1739.88 151.067 1740.09 151.861Q1740.31 152.656 1740.49 153.459Q1740.67 154.263 1740.81 155.075Q1740.95 155.886 1741.05 156.703Q1741.15 157.521 1741.21 158.342Q1741.27 159.163 1741.29 159.986Q1741.31 160.809 1741.29 161.632Q1741.27 162.456 1741.22 163.277Q1741.16 164.098 1741.06 164.915Q1740.96 165.733 1740.82 166.545Q1740.68 167.356 1740.51 168.16Q1740.33 168.964 1740.11 169.759Q1739.9 170.554 1739.64 171.337Q1739.39 172.12 1739.1 172.89Q1738.8 173.66 1738.48 174.415Q1738.15 175.169 1737.78 175.908Q1737.42 176.646 1737.02 177.365Q1736.62 178.085 1736.18 178.784Q1735.75 179.484 1735.28 180.161Q1734.81 180.839 1734.31 181.493Q1733.81 182.147 1733.28 182.776Q1732.75 183.405 1732.19 184.007Q1731.63 184.61 1731.04 185.185Q1730.45 185.759 1729.83 186.305Q1729.22 186.85 1728.57 187.365Q1727.93 187.88 1727.26 188.364Q1726.6 188.847 1725.91 189.297Q1725.22 189.748 1724.51 190.164Q1723.8 190.581 1723.07 190.963Q1722.34 191.344 1721.59 191.69Q1720.84 192.036 1720.08 192.346Q1719.32 192.655 1718.54 192.927Q1717.76 193.199 1716.98 193.433Q1716.19 193.667 1715.39 193.863Q1714.59 194.058 1713.78 194.215Q1712.97 194.372 1712.15 194.489Q1711.34 194.606 1710.52 194.684Q1709.96 194.737 1709.4 194.772Q1708.83 194.806 1708.27 194.822Q1707.71 194.838 1707.14 194.835Q1706.58 194.833 1706.02 194.811Q1705.45 194.79 1704.89 194.749Q1704.33 194.709 1703.77 194.651Q1703.21 194.592 1702.65 194.515Q1702.09 194.437 1701.54 194.342Q1700.98 194.246 1700.43 194.132Q1699.88 194.018 1699.33 193.885Q1698.78 193.753 1698.24 193.602Q1697.7 193.452 1697.16 193.284Q1696.62 193.115 1696.09 192.929Q1695.56 192.743 1695.03 192.539Q1694.5 192.336 1693.99 192.115Q1693.47 191.894 1692.96 191.656Q1692.45 191.418 1691.94 191.163Q1691.44 190.908 1690.95 190.637Q1690.45 190.365 1689.97 190.078Q1689.48 189.79 1689.01 189.487Q1688.53 189.183 1688.07 188.864Q1687.6 188.545 1687.15 188.211Q1686.7 187.877 1686.25 187.527Q1685.81 187.178 1685.38 186.815Q1684.95 186.451 1684.53 186.073Q1684.11 185.696 1683.71 185.304Q1683.3 184.913 1682.91 184.508Q1682.52 184.104 1682.14 183.686Q1681.76 183.269 1681.4 182.839Q1681.03 182.41 1680.68 181.968Q1680.33 181.527 1680 181.074Q1679.66 180.621 1679.34 180.157Q1679.02 179.693 1678.72 179.219Q1678.41 178.745 1678.12 178.261Q1677.83 177.777 1677.56 177.284Q1677.29 176.791 1677.03 176.289Q1676.77 175.786 1676.54 175.276Q1676.3 174.766 1676.07 174.248Q1675.85 173.73 1675.65 173.205Q1675.44 172.68 1675.25 172.149Q1675.07 171.617 1674.9 171.08Q1674.73 170.542 1674.57 169.999Q1674.42 169.457 1674.29 168.909Q1674.16 168.362 1674.04 167.81Q1673.92 167.258 1673.83 166.703Q1673.73 166.148 1673.65 165.59Q1673.57 165.032 1673.51 164.471Q1673.45 163.911 1673.41 163.349Q1673.37 162.787 1673.35 162.224Q1673.32 161.661 1673.32 161.097Q1673.31 160.533 1673.33 159.97Q1673.34 159.407 1673.38 158.844Q1673.41 158.281 1673.46 157.72Q1673.51 157.159 1673.58 156.6Q1673.65 156.04 1673.74 155.484Q1673.83 154.927 1673.94 154.374Q1674.04 153.821 1674.17 153.271Q1674.3 152.722 1674.44 152.177Q1674.58 151.632 1674.74 151.092Q1674.91 150.552 1675.09 150.017Q1675.27 149.483 1675.46 148.955Q1675.66 148.427 1675.87 147.906Q1676.09 147.385 1676.32 146.871Q1676.55 146.357 1676.8 145.851Q1677.05 145.345 1677.31 144.848Q1677.58 144.351 1677.86 143.862Q1678.14 143.374 1678.44 142.895Q1678.74 142.417 1679.05 141.948Q1679.36 141.48 1679.69 141.022Q1680.02 140.564 1680.37 140.117Q1680.71 139.671 1681.07 139.236Q1681.43 138.801 1681.8 138.378Q1682.17 137.955 1682.56 137.544Q1682.94 137.134 1683.34 136.737Q1683.74 136.339 1684.16 135.955Q1684.57 135.572 1684.99 135.202Q1685.42 134.832 1685.86 134.476Q1686.29 134.12 1686.74 133.779Q1687.19 133.438 1687.65 133.112Q1688.11 132.786 1688.58 132.476Q1689.05 132.166 1689.53 131.871Q1690.01 131.576 1690.5 131.297Q1690.99 131.019 1691.49 130.757Q1691.99 130.494 1692.5 130.249Q1693 130.003 1693.52 129.775Q1694.03 129.546 1694.56 129.335Q1695.08 129.123 1695.61 128.929Q1696.14 128.735 1696.67 128.559Q1697.21 128.383 1697.75 128.224Q1698.29 128.066 1698.84 127.926Q1699.38 127.785 1699.93 127.663Q1700.48 127.541 1701.04 127.437Q1701.59 127.333 1702.15 127.247Q1702.7 127.162 1703.26 127.095Q1703.82 127.028 1704.39 126.979Q1704.95 126.931 1705.51 126.901Z"/>
	<path fill="#FBF8F2" transform="scale(0.966583 0.966583)" d="M1448.48 201.499C1467.65 200.133 1487.42 201.058 1506.65 201.039L1613.73 201.016L1730.67 201.097C1752.31 201.048 1774.37 200.061 1795.96 201.075C1800.4 201.283 1805.3 201.704 1809.13 204.155C1810.15 205.982 1810.57 207.935 1809.82 210.037C1808.91 212.602 1806.46 213.213 1804.22 214.298C1804.11 214.35 1804 214.419 1803.87 214.453C1796.44 216.501 1730.13 214.742 1715.97 214.743L1491.96 214.585C1481.7 214.517 1471.44 215.292 1461.19 215.159C1457.62 215.112 1452.71 215.046 1449.53 213.208C1447.66 212.128 1446.4 210.848 1446.04 208.646C1445.59 205.939 1447.08 203.635 1448.48 201.499Z"/>
	<path fill="#FBF8F2" transform="scale(0.966583 0.966583)" d="M1612.59 103.499C1621.76 102.165 1631.99 103.005 1641.29 102.975C1644.56 107.738 1643.95 187.066 1642.82 197.624C1640.35 199.108 1638.6 198.741 1635.75 198.755L1607.63 198.682C1611.99 191.509 1608.96 155.573 1608.62 145.895C1608.43 140.719 1607.81 135.09 1608.31 129.947C1609.1 121.851 1614.22 111.388 1612.59 103.499Z"/>
	<path fill="#FBF8F2" transform="scale(0.966583 0.966583)" d="M1474.72 130.499C1490.6 129.55 1506.77 130.138 1522.68 130.139C1523.11 130.968 1523.51 131.851 1523.71 132.768C1525.68 141.93 1522.46 186.537 1517.41 194.509C1517.98 196.193 1518.29 196.33 1517.51 198.009C1508.13 200.904 1489.46 198.877 1478.99 198.746C1480.29 196.275 1475.82 138.121 1474.72 130.499Z"/>
	<path fill="#FBF8F2" transform="scale(0.966583 0.966583)" d="M1584.57 103.499C1592.75 102.564 1601.32 102.996 1609.56 102.965C1609.98 103.916 1610.3 104.933 1610.29 105.983C1610.22 113.253 1595.35 184.937 1592.59 194.093C1592.1 195.698 1591.4 196.737 1590.2 197.906C1586.2 200.387 1570.14 198.659 1564.84 198.611C1564.98 198.442 1565.13 198.28 1565.27 198.105C1568.55 193.89 1585.58 110.771 1584.57 103.499Z"/>
	<path fill="#FBF8F2" transform="scale(0.966583 0.966583)" d="M1737.65 217.499C1742.42 216.956 1747.39 217.172 1752.2 217.123C1755.28 222.336 1753.97 233.75 1753.99 239.859C1754.01 244.754 1755 262.476 1753.12 266.053C1752.73 266.792 1751.32 267.863 1750.68 268.501L1749.46 269.768C1746.83 270.195 1745.02 270.451 1742.43 269.508C1733.25 261.135 1740.41 230.569 1737.8 218.157C1737.75 217.937 1737.7 217.719 1737.65 217.499Z"/>
	<path fill="#FBF8F2" transform="scale(0.966583 0.966583)" d="M1565.46 217.499C1569.98 217.054 1574.67 217.224 1579.21 217.16C1582.5 222.521 1581.74 255.007 1580.73 262.82C1580.34 265.841 1579.58 266.225 1577.23 268.061L1576.27 269.324C1574.03 269.942 1572.6 269.864 1570.34 269.349C1561.49 262.371 1567.79 229.708 1565.6 218.157C1565.56 217.937 1565.51 217.718 1565.46 217.499Z"/>
	<path fill="#D3DCCE" transform="scale(0.966583 0.966583)" d="M1605.67 143.494C1608.56 147.761 1607.08 191.909 1606.07 198.481L1595.32 198.515C1593.54 193.994 1604.1 150.944 1605.67 143.494Z"/>
	<path fill="#FBF8F2" transform="scale(0.966583 0.966583)" d="M1709.75 114.584C1707.4 114.735 1704.58 115.105 1702.27 114.669C1700.02 114.245 1698.66 111.885 1697.55 110.092C1697.43 107.349 1697.77 106.981 1699.22 104.604C1702.3 102.912 1703.41 103.112 1706.84 103.17C1709.34 103.177 1711.81 102.54 1713.7 104.379C1715.05 105.69 1715.82 107.787 1715.69 109.66C1715.57 111.379 1714.67 112.744 1713.75 114.143C1712.32 114.463 1711.21 114.624 1709.75 114.584Z"/>
	<path fill="#D3DCCE" transform="scale(0.966583 0.966583)" d="M1709.75 114.584C1707.4 114.735 1704.58 115.105 1702.27 114.669C1700.02 114.245 1698.66 111.885 1697.55 110.092C1697.43 107.349 1697.77 106.981 1699.22 104.604C1702.3 102.912 1703.41 103.112 1706.84 103.17C1705.53 105.767 1703.59 108.678 1703.49 111.622C1705.74 114.035 1707.54 112.872 1709.75 114.584Z"/>
	<path fill="#D3DCCE" transform="scale(0.966583 0.966583)" d="M674.753 73.3666C710.933 76.5288 749.11 87.0845 783.055 99.8428C811.544 110.55 882.719 143.074 909.041 144.099C897.053 152.174 885.359 160.799 875.634 171.58C868.631 179.343 865.055 191.938 856.478 197.211C856.209 197.376 855.965 197.579 855.708 197.763C853.459 204.533 852.774 210.783 852.812 217.886C846.162 224.251 842.473 231.025 842.356 240.4C842.217 251.583 845.827 262.769 853.768 270.818C866.01 283.228 890.035 289.604 906.926 291.345C910.186 296.089 912.814 300.717 915.207 305.955C914.568 310.683 912.536 318.307 915.49 322.418C916.49 323.81 917.732 324.339 919.428 324.627C924.214 325.439 929.193 321.919 933.882 323.548C935.188 325.569 935.48 328.142 936.916 329.922C940.128 333.903 951.236 341.121 956.136 342.037C957.755 342.34 959.439 342.46 961.081 342.559C965.927 347.488 968.616 351.384 976.101 351.479C976.618 351.485 977.135 351.472 977.652 351.458C974.898 359.338 960.886 376.367 955.682 388.615C944.93 413.921 942.235 443.329 935.482 469.93C932.693 480.913 923.948 504.78 923.458 514.103C925.273 515.662 927.381 515.424 929.656 515.503L930.811 517.044C923.326 564.161 884.819 645.444 858.259 685.455C849.046 699.333 838.577 711.935 827.276 724.126C791.318 720.04 783.241 726.515 755.818 748.314C747.848 754.65 741.101 762.429 733.156 768.686C722.197 777.318 703.877 783.206 689.968 781.756C681.349 780.858 674.586 777.571 667.53 772.845C676.753 764.017 682.697 755.132 683.007 741.838Q683.032 740.7 683 739.562Q682.969 738.424 682.882 737.289Q682.794 736.154 682.65 735.025Q682.507 733.896 682.307 732.775Q682.108 731.654 681.853 730.545Q681.599 729.435 681.29 728.34Q680.981 727.244 680.618 726.165Q680.255 725.086 679.839 724.027Q679.423 722.967 678.956 721.929Q678.488 720.891 677.97 719.878Q677.451 718.865 676.883 717.878Q676.315 716.892 675.699 715.934Q675.083 714.977 674.421 714.052Q673.758 713.126 673.05 712.234Q672.343 711.343 671.592 710.487Q670.841 709.631 670.049 708.814C662.746 701.328 653.027 696.836 642.513 696.7C634.43 696.596 628.039 698.711 620.87 702.06C602.083 685.777 577.167 679.427 552.644 681.132C529.931 682.712 506.42 692.44 491.39 709.96C483.814 718.792 479.311 729.204 480.3 740.933C480.336 741.36 480.391 741.784 480.445 742.209C479.213 742.563 478.03 743.039 476.741 742.984C469.311 750.043 466.851 765.2 466.634 775.063C466.196 794.97 474.018 812.456 485.96 828.02C463.168 834.594 400.317 852.997 388.86 873.395C386.266 878.014 385.794 884.118 385.733 889.329C373.615 894.744 361.058 900.064 349.802 907.143C311.172 907.173 270.282 903.779 232.511 912.914C222.776 905.723 208.364 901.683 197.453 896.132C170.594 882.47 146.622 862.921 125.846 841.196C65.8157 778.425 41.1634 685.011 43.171 600.043C44.4927 592.445 44.3229 584.026 44.9757 576.279Q46.9541 554.103 50.4092 532.108C62.6735 456.849 94.3478 384.425 136.84 321.467Q151.996 298.612 169.367 277.392C176.088 269.251 184.97 261.383 190.508 252.516L190.969 251.762L191.379 249.154L192.763 248.474C195.363 255.808 193.782 326.814 193.804 339.333L193.959 632.973L673.125 632.621L673.457 288.567L673.509 155.103C673.504 129.435 672.899 103.604 673.575 77.9543C673.623 76.1005 673.74 74.9746 674.753 73.3666Z"/>
	<path fill="#D3DCCE" transform="scale(0.966583 0.966583)" d="M43.171 600.043C44.4927 592.445 44.3229 584.026 44.9757 576.279Q46.9541 554.103 50.4092 532.108C62.6735 456.849 94.3478 384.425 136.84 321.467Q151.996 298.612 169.367 277.392C176.088 269.251 184.97 261.383 190.508 252.516L190.969 251.762L191.309 598.846C172.247 598.858 51.0834 597.136 43.171 600.043Z"/>
	<path fill="#49403C" transform="scale(0.966583 0.966583)" d="M673.125 632.621L673.457 288.567L673.509 155.103C673.504 129.435 672.899 103.604 673.575 77.9543C673.623 76.1005 673.74 74.9746 674.753 73.3666C677.993 83.4105 675.994 111.243 675.977 123.256L675.874 211.396L675.809 598.458C697.822 598.454 873.637 596.588 878.155 600.068C877.221 600.617 876.184 601.141 875.087 601.234C869.185 601.735 862.745 601.021 856.776 601.001L813.166 600.921L675.841 600.896L675.877 635.172L212.604 635.15L116.21 635.183C102.749 635.189 74.2761 637.419 62.5392 633.885C67.4773 634.644 86.0641 633.165 93.0175 633.149L191.448 633.019Q191.314 617.217 191.345 601.415C174.525 601.471 47.4693 603.008 43.171 600.043C51.0834 597.136 172.247 598.858 191.309 598.846L190.969 251.762L191.379 249.154L192.763 248.474C195.363 255.808 193.782 326.814 193.804 339.333L193.959 632.973L673.125 632.621Z"/>
	<path fill="#D3DCCE" transform="scale(0.966583 0.966583)" d="M740.006 772.115C745.181 769.897 750.433 767.597 755.783 765.829C763.129 763.402 815.876 747.773 818.77 748.965C824.955 751.512 831.069 758.549 837.532 759.898C841.346 760.693 851.22 757.2 853.549 758.529C855.779 759.801 856.346 764.43 859.848 765.642C870.931 769.478 891.963 765.334 904.372 765.881C924.416 766.764 948.591 777.825 967.942 771.561C972.673 770.029 977.225 767.782 981.637 765.513C1000.2 769.026 1019.46 770.233 1038.31 770.91C1055.24 771.519 1071.89 771.532 1088.8 770.445C1090.99 770.304 1094.91 769.693 1097.02 770.266C1097.78 770.474 1098.92 771.378 1099.64 771.799C1102.92 776.624 1104.16 781.622 1104.86 787.367C1108.01 813.26 1105.88 847.829 1105.72 874.679C1105.63 888.989 1107.21 905.916 1104.92 919.966C1104.71 921.246 1104.16 922.417 1103.52 923.534Q1048.95 923.972 994.38 923.799C975.782 923.796 955.95 922.42 937.509 924.592C906.482 928.247 880.182 948.414 847.87 947.34C829.822 946.74 812.734 940.142 799.747 927.474C795.422 923.256 791.492 918.392 788.078 913.412C799.404 907.177 811.663 899.218 824.818 898.076C828.774 897.732 846.125 900.204 847.271 897.041C843.264 893.808 830.846 894.006 825.702 894.562C825.483 894.585 825.265 894.616 825.047 894.644C830.428 891.749 851.532 883.913 853.615 879.128C853.669 879.005 853.687 878.868 853.723 878.738C848.742 877.131 839.474 882.773 834.971 885.077C802.895 901.486 770.536 919.253 737.355 933.267C734.311 906.769 719.988 883.256 699.217 866.751C694.296 862.84 685.799 856.106 679.27 856.985C677.684 857.198 676.118 857.56 674.567 857.946L674.346 857.32C697.82 838.077 741.935 807.925 769.055 794.035C778.002 789.453 794.418 787.161 801.399 782.346L801.034 780.643C793.613 778.401 770.259 789.305 763.278 793.047C751.76 799.222 740.748 806.51 729.873 813.74L729.13 812.932L730.639 809.139L729.477 806.807C733.4 795.861 738.265 783.63 740.006 772.115Z"/>
	<path fill="#EAD6C6" transform="scale(0.966583 0.966583)" d="M615.41 745.654L615.191 748.724L616.403 749.98C626.327 746.104 626.401 723.685 642.763 730.838C648.611 733.394 652.912 739.28 655.07 745.125C656.668 749.451 657.614 755.121 655.643 759.481C654.962 760.985 653.728 761.742 652.164 762.262C650.056 762.963 647.118 762.637 645.884 764.5C647.377 766.245 648.436 767.159 650.606 767.952C652.627 767.437 654.637 766.923 656.632 766.314C666.609 777.586 674.175 784.153 690.152 785.249C707.796 786.46 723.986 778.266 740.006 772.115C738.265 783.63 733.4 795.861 729.477 806.807C725.386 810.881 723.206 816.656 718.709 820.351C700.768 835.093 676.852 844.968 663.767 864.775C667.22 854.291 669.799 843.534 670.575 832.498C671.533 818.87 670.135 796.163 660.68 785.588C659.964 784.787 659.504 785.059 658.483 785.025C657.847 788.756 662.587 796.705 663.81 800.65C670.342 821.713 666.906 844.962 659.486 865.205C648.91 870.478 635.496 879.1 623.65 879.664C587.735 881.373 551.77 864.484 525.637 840.817C525.646 840.513 525.647 840.209 525.665 839.905C525.804 837.537 527.376 834.54 528.304 832.336C533.986 818.85 540.611 822.718 549.801 814.817C548.316 813.46 547.58 812.373 545.49 812.184C542.162 811.883 538.083 814.906 535.633 816.869C527.578 823.325 523.965 828.439 522.861 838.666C508.945 824.578 495.417 804.252 494.605 783.836C494.37 777.951 495.694 772.107 499.855 767.742C514.817 752.05 556.526 760.361 575.949 759.966C591.088 759.659 604.175 755.96 614.924 744.794L615.41 745.654Z"/>
	<path fill="#010000" transform="scale(0.966583 0.966583)" d="M569.568 815.71C579.127 817.079 587.757 838.966 597.141 842.74C599.691 841.553 601.016 837.574 602.517 835.102C604.859 835.326 604.859 835.81 606.375 837.503C605.666 839.199 604.794 841.369 603.613 842.79C602.268 844.408 600.562 845.256 598.506 845.456C595.322 845.765 591.896 843.135 589.551 841.231C584.409 837.056 570.289 822.077 569.568 815.71Z"/>
	<path fill="#010000" transform="scale(0.966583 0.966583)" d="M584.222 761.758C586.342 762.043 587.384 761.766 588.825 763.411C575.176 775.409 570.057 767.844 562.388 789.629C561.666 790.8 561.399 790.953 560.187 791.634C560.111 791.491 560.03 791.352 559.96 791.206C558.581 788.339 559.66 784.551 560.713 781.685C564.523 771.309 574.785 765.967 584.222 761.758Z"/>
	<path fill="#010000" transform="scale(0.966583 0.966583)" d="M597.203 773.351L600.411 774.082C602.444 775.666 604.266 777.228 604.993 779.829C606.17 784.041 604.542 788.328 602.484 791.957C598.667 798.687 594.663 801.282 587.289 803.253L584.62 802.33L584.426 800.58Q585.26 800.255 586.087 799.913C591.662 797.6 597.206 794.928 599.507 788.905C601.656 783.277 599.572 778.497 597.203 773.351Z"/>
	<path fill="#010000" transform="scale(0.966583 0.966583)" d="M625.774 830.286C627.853 831.227 628.718 831.513 629.499 833.858C630.738 837.579 629.892 842.27 628.363 845.774C625.265 852.877 621.505 856.764 614.347 859.596C612.799 858.496 612.849 858.588 612.462 856.731C615.368 854.204 619.373 852.532 622.026 849.816C626.44 845.298 625.581 836.141 625.774 830.286Z"/>
	<path fill="#010000" transform="scale(0.966583 0.966583)" d="M563.319 835.542C564.719 836.294 565.216 837.125 566.012 838.43C565.896 840.239 565.979 841.197 565.036 842.786C561.469 848.795 553.694 851.72 547.32 853.331L545.382 851.384C546.324 848.985 552.681 847.208 555.292 845.798C560.367 843.057 561.646 841.005 563.319 835.542Z"/>
	<path fill="#937A71" transform="scale(0.966583 0.966583)" d="M480.445 742.209C482.397 746.089 484.334 749.753 486.895 753.283L485.807 753.829L489.893 753.444L487.439 754.106L489.107 755.262C491.498 748.103 483.643 741.272 483.498 734.331C483.169 718.648 505.015 700.653 517.787 694.222C540.059 683.009 567.148 681.571 590.744 689.381C609.932 695.732 625.284 708.609 636.338 725.415C619.192 732.767 623.522 740.326 615.41 745.654L614.924 744.794C616.697 742.176 618.407 739.52 619.743 736.647C621.015 733.911 621.729 730.804 620.693 727.952L619.071 727.815C614.312 732.626 614.611 739.784 609.87 744.77C592.026 763.536 555.37 754.238 532.031 754.648C519.928 754.861 504.205 756.789 495.537 766.039C491.102 770.772 490.098 776.849 490.446 783.115C491.854 808.499 508.668 831.325 526.945 847.463Q520.758 845.418 514.754 842.885C486.07 830.465 467.058 801.248 471.118 769.64C471.969 763.018 477.603 748.91 477.751 745.532C477.772 745.054 476.951 743.514 476.741 742.984C478.03 743.039 479.213 742.563 480.445 742.209Z"/>
	<path fill="#D3DCCE" transform="scale(0.966583 0.966583)" d="M1931.27 601.843L1950.6 601.891C1949.66 608.799 1927.37 630.441 1928.86 634.032L1902.17 633.996C1913.69 627.47 1915.08 612.801 1923.44 603.918C1925.6 601.627 1928.38 602.043 1931.27 601.843Z"/>
	<path fill="#FBF8F2" transform="scale(0.966583 0.966583)" d="M1208.49 749.498C1258.26 748.006 1311.86 750.328 1360.18 763.225C1386.38 770.219 1411.17 780.574 1436.48 790.148C1489.47 810.189 1544.09 831.272 1600.16 840.725C1640.35 847.499 1680.7 850.414 1721.38 851.779C1766.09 853.279 1823.68 846.388 1865.56 862.744C1897.64 875.272 1920.67 901.899 1934.17 932.982C1937.88 941.542 1948.39 966.126 1944.85 975.08C1903.84 975.624 1862.77 975.124 1821.75 975.07L1107.56 975.2C1108.35 973.651 1108.97 972.227 1109.07 970.469C1110.53 943.038 1109.02 914.907 1109.2 887.375C1109.4 855.845 1111.44 823.497 1109.08 792.044C1106.48 757.385 1098.36 773.245 1089.42 765.551C1089.77 764.35 1090.24 763.433 1091.05 762.466C1093.29 759.792 1096.67 758.094 1100.01 757.252C1109.78 754.779 1121.77 754.891 1131.93 754.129Q1170.19 751.471 1208.49 749.498Z"/>
	<path fill="#FBF8F2" transform="scale(0.966583 0.966583)" d="M1067.15 261.467C1075.77 260.086 1094.89 266.371 1103.91 268.585C1105.38 270.1 1106.33 271.679 1107.07 273.663C1119.69 307.549 1108.18 351.405 1090.47 381.44C1086.17 388.723 1076.85 397.991 1074.07 404.066L1074.68 405.314C1076.28 405.374 1076.5 405.525 1077.78 404.574C1081.13 402.071 1083.91 397.68 1086.42 394.344C1102.47 372.959 1111.47 347.475 1114.89 321.049C1116.84 305.935 1118.05 282.361 1108.15 269.503C1112.81 270.225 1117.49 271.445 1122.06 272.603C1214.85 296.108 1248.05 342.731 1289.23 423.113C1300.39 444.899 1310.78 468.292 1326.01 487.622C1337.14 501.758 1351.32 512.776 1364.96 524.318C1386.79 542.775 1406.66 563.252 1421.28 588.001C1427.21 598.047 1449.57 646.37 1447.01 656.394Q1445.87 658.167 1444.47 659.741C1396.79 712.474 1268.69 742.845 1199.37 746.103C1199.56 745.194 1199.72 744.213 1199.62 743.283C1198.2 730.143 1189 716.142 1185.04 703.452C1182.48 695.225 1181.52 686.158 1179.59 677.73C1174.78 656.8 1164.73 618.053 1148.38 604.086C1149.16 603.512 1149.78 602.986 1150.36 602.204C1156.87 593.476 1182.89 532.188 1181.52 523.506C1185.92 519.377 1187.74 508.865 1189.2 503.146C1192.34 503.899 1195.27 505.757 1198.12 507.272C1198.71 506.67 1199.25 506.102 1199.76 505.429C1202.7 501.558 1221.7 429.969 1220.94 425.264C1228.86 431.027 1241.97 453.522 1248.28 462.271C1272.18 495.407 1297.87 527.276 1319.52 561.995C1323.06 567.674 1331.34 586.539 1336.82 588.398L1337.68 586.969C1334.84 574.947 1322.22 558.1 1315.17 547.462C1306.63 534.571 1226.97 423.811 1222.4 420.83C1224.33 419.094 1226.85 416.481 1227.92 414.121C1228.83 412.118 1229.08 411.024 1228.33 408.93C1216.57 414.257 1210.35 460.799 1204.3 473.978C1173.79 458.083 1137.85 453.908 1103.94 455.968C1104.52 455.375 1105.04 454.765 1105.47 454.05C1108.01 449.819 1118.22 380.309 1123.26 365.282C1127.44 352.809 1135.18 339.355 1144.6 330.086C1148.13 326.617 1153.78 323.331 1155.96 318.913L1155.09 317.779C1152.58 317.966 1150.83 319.331 1148.96 320.898C1118.41 346.471 1113.62 383.958 1107.48 420.973C1103.92 442.445 1100.66 463.83 1098.66 485.507C1100.21 487.978 1101.42 490.282 1101.57 493.272C1101.92 500.062 1093.52 534.904 1089.27 539.615C1088.8 538.055 1087.1 536.667 1086.05 535.424C1059.41 504.082 1055.82 477.13 1054.83 437.196C1054.58 427.041 1053.27 414.605 1056.2 404.81C1058.61 396.766 1065.15 389.61 1069.1 382.165C1079.37 362.788 1083.81 337.877 1085.51 316.228C1086.45 304.236 1088.44 277.28 1079.95 267.352C1077.27 264.329 1070.95 262.794 1067.15 261.467Z"/>
	<path fill="#010000" transform="scale(0.966583 0.966583)" d="M1349.26 613.481L1351.54 613.902C1358.99 622.625 1370.17 663.359 1372.13 675.197C1372.71 678.683 1372.81 679.622 1370.72 682.511L1369.68 681.851C1366.52 672.806 1365.23 662.973 1362.76 653.7C1360.59 645.544 1357 637.539 1353.99 629.64C1352.33 625.297 1348.15 617.839 1349.26 613.481Z"/>
	<path fill="#010000" transform="scale(0.966583 0.966583)" d="M1167.39 590.386Q1167.68 590.271 1167.98 590.175Q1168.28 590.08 1168.59 590.005Q1168.89 589.93 1169.2 589.875Q1169.51 589.821 1169.83 589.787Q1170.14 589.754 1170.45 589.742Q1170.77 589.729 1171.08 589.738Q1171.4 589.747 1171.71 589.776Q1172.02 589.806 1172.33 589.857Q1172.64 589.908 1172.95 589.979Q1173.26 590.051 1173.56 590.143Q1173.86 590.235 1174.15 590.347Q1174.45 590.459 1174.73 590.59Q1175.02 590.722 1175.29 590.872Q1175.57 591.022 1175.84 591.191Q1176.1 591.359 1176.36 591.545Q1176.61 591.731 1176.85 591.934Q1177.09 592.136 1177.32 592.355Q1177.54 592.573 1177.75 592.806Q1177.97 593.039 1178.16 593.285Q1178.36 593.531 1178.53 593.791Q1178.71 594.05 1178.87 594.32Q1179.03 594.591 1179.18 594.871Q1179.32 595.152 1179.44 595.441Q1179.56 595.731 1179.67 596.028Q1179.77 596.325 1179.85 596.628Q1179.93 596.931 1180 597.24Q1180.06 597.548 1180.1 597.86Q1180.14 598.171 1180.16 598.485Q1180.18 598.799 1180.18 599.113Q1180.18 599.428 1180.16 599.741Q1180.14 600.055 1180.1 600.367Q1180.05 600.678 1179.99 600.986Q1179.93 601.294 1179.84 601.597Q1179.76 601.9 1179.65 602.197Q1179.55 602.494 1179.43 602.783Q1179.3 603.072 1179.16 603.352Q1179.02 603.632 1178.85 603.902Q1178.69 604.172 1178.51 604.43Q1178.33 604.689 1178.14 604.935Q1177.94 605.18 1177.73 605.412Q1177.52 605.645 1177.29 605.862Q1177.06 606.079 1176.82 606.281Q1176.58 606.482 1176.32 606.667Q1176.07 606.852 1175.8 607.019Q1175.54 607.187 1175.26 607.336Q1174.98 607.485 1174.7 607.615Q1174.41 607.745 1174.12 607.856Q1173.82 607.966 1173.52 608.057Q1173.31 608.121 1173.09 608.176Q1172.87 608.23 1172.65 608.274Q1172.43 608.317 1172.21 608.35Q1171.99 608.384 1171.77 608.406Q1171.55 608.429 1171.32 608.441Q1171.1 608.453 1170.88 608.454Q1170.65 608.455 1170.43 608.446Q1170.2 608.436 1169.98 608.416Q1169.76 608.396 1169.54 608.365Q1169.32 608.335 1169.1 608.293Q1168.88 608.252 1168.66 608.201Q1168.44 608.149 1168.23 608.087Q1168.01 608.025 1167.8 607.952Q1167.59 607.88 1167.38 607.798Q1167.17 607.716 1166.97 607.624Q1166.76 607.531 1166.57 607.43Q1166.37 607.328 1166.17 607.217Q1165.98 607.106 1165.79 606.985Q1165.6 606.865 1165.42 606.736Q1165.24 606.607 1165.06 606.469Q1164.88 606.331 1164.71 606.185Q1164.54 606.039 1164.38 605.886Q1164.22 605.732 1164.06 605.57Q1163.91 605.409 1163.76 605.24Q1163.62 605.071 1163.48 604.896Q1163.34 604.72 1163.21 604.538Q1163.08 604.356 1162.96 604.168Q1162.84 603.98 1162.72 603.787Q1162.61 603.593 1162.51 603.395Q1162.41 603.196 1162.31 602.993Q1162.22 602.789 1162.14 602.582Q1162.05 602.374 1161.98 602.163Q1161.91 601.952 1161.84 601.737Q1161.78 601.522 1161.73 601.305Q1161.67 601.088 1161.63 600.868Q1161.59 600.648 1161.56 600.427Q1161.53 600.205 1161.5 599.983Q1161.48 599.76 1161.47 599.537Q1161.46 599.313 1161.46 599.089Q1161.46 598.866 1161.47 598.642Q1161.48 598.419 1161.51 598.196Q1161.53 597.973 1161.56 597.752Q1161.59 597.531 1161.63 597.311Q1161.68 597.091 1161.73 596.874Q1161.78 596.657 1161.85 596.442Q1161.91 596.228 1161.98 596.016Q1162.06 595.805 1162.14 595.598Q1162.22 595.39 1162.32 595.187Q1162.41 594.984 1162.51 594.785Q1162.62 594.586 1162.73 594.393Q1162.84 594.199 1162.96 594.012Q1163.08 593.824 1163.21 593.642Q1163.34 593.46 1163.48 593.285Q1163.62 593.109 1163.77 592.941Q1163.92 592.772 1164.07 592.611Q1164.23 592.449 1164.39 592.295Q1164.55 592.142 1164.72 591.996Q1164.89 591.85 1165.07 591.712Q1165.24 591.575 1165.43 591.446Q1165.61 591.317 1165.8 591.197Q1165.99 591.077 1166.18 590.966Q1166.38 590.855 1166.57 590.753Q1166.77 590.652 1166.98 590.56Q1167.18 590.468 1167.39 590.386Z"/>
	<path fill="#FBF8F2" transform="scale(0.966583 0.966583)" d="M1168.18 594.477Q1168.29 594.413 1168.41 594.354Q1168.52 594.295 1168.64 594.242Q1168.76 594.189 1168.88 594.142Q1169 594.095 1169.12 594.054Q1169.24 594.012 1169.37 593.977Q1169.49 593.942 1169.62 593.913Q1169.74 593.884 1169.87 593.861Q1170 593.838 1170.13 593.822Q1170.25 593.805 1170.38 593.795Q1170.51 593.784 1170.64 593.781Q1170.77 593.777 1170.9 593.779Q1171.03 593.781 1171.16 593.79Q1171.29 593.799 1171.42 593.814Q1171.54 593.829 1171.67 593.85Q1171.8 593.871 1171.93 593.899Q1172.05 593.926 1172.18 593.96Q1172.3 593.994 1172.42 594.033Q1172.55 594.073 1172.67 594.119Q1172.79 594.164 1172.91 594.216Q1173.03 594.268 1173.14 594.325Q1173.26 594.382 1173.37 594.445Q1173.48 594.508 1173.59 594.576Q1173.7 594.645 1173.81 594.718Q1173.91 594.792 1174.02 594.871Q1174.12 594.95 1174.22 595.033Q1174.32 595.117 1174.41 595.205Q1174.5 595.294 1174.59 595.387Q1174.68 595.48 1174.77 595.577Q1174.85 595.674 1174.93 595.775Q1175.02 595.877 1175.09 595.982Q1175.17 596.087 1175.24 596.195Q1175.31 596.304 1175.37 596.416Q1175.43 596.528 1175.49 596.643Q1175.55 596.758 1175.61 596.876Q1175.66 596.994 1175.71 597.114Q1175.75 597.235 1175.8 597.357Q1175.84 597.48 1175.87 597.604Q1175.91 597.728 1175.94 597.854Q1175.97 597.98 1175.99 598.108Q1176.01 598.235 1176.03 598.363Q1176.05 598.491 1176.06 598.62Q1176.07 598.749 1176.07 598.878Q1176.08 599.008 1176.07 599.137Q1176.07 599.266 1176.06 599.395Q1176.05 599.524 1176.04 599.653Q1176.03 599.781 1176 599.909Q1175.98 600.037 1175.96 600.163Q1175.93 600.29 1175.89 600.414Q1175.86 600.539 1175.82 600.663Q1175.78 600.786 1175.74 600.907Q1175.69 601.028 1175.64 601.146Q1175.59 601.265 1175.53 601.381Q1175.47 601.497 1175.41 601.61Q1175.35 601.723 1175.28 601.833Q1175.21 601.943 1175.14 602.049Q1175.06 602.156 1174.99 602.258Q1174.91 602.361 1174.82 602.46Q1174.74 602.558 1174.65 602.653Q1174.56 602.747 1174.47 602.837Q1174.38 602.927 1174.28 603.012Q1174.18 603.098 1174.08 603.178Q1173.98 603.258 1173.87 603.334Q1173.77 603.409 1173.66 603.479Q1173.55 603.549 1173.44 603.614Q1173.33 603.679 1173.21 603.738Q1173.1 603.797 1172.98 603.85Q1172.86 603.903 1172.74 603.951Q1172.62 603.998 1172.5 604.04Q1172.38 604.081 1172.25 604.117Q1172.13 604.152 1172 604.181Q1171.87 604.211 1171.75 604.234Q1171.62 604.257 1171.49 604.273Q1171.36 604.29 1171.23 604.301Q1171.1 604.311 1170.98 604.315Q1170.85 604.319 1170.72 604.317Q1170.59 604.315 1170.46 604.306Q1170.33 604.298 1170.2 604.283Q1170.07 604.268 1169.94 604.247Q1169.82 604.225 1169.69 604.198Q1169.56 604.171 1169.44 604.137Q1169.31 604.103 1169.19 604.063Q1169.07 604.024 1168.95 603.978Q1168.83 603.932 1168.71 603.881Q1168.59 603.829 1168.47 603.772Q1168.36 603.714 1168.24 603.651Q1168.13 603.588 1168.02 603.52Q1167.91 603.452 1167.8 603.378Q1167.7 603.304 1167.59 603.225Q1167.49 603.146 1167.39 603.062Q1167.29 602.979 1167.2 602.89Q1167.11 602.801 1167.02 602.708Q1166.93 602.615 1166.84 602.518Q1166.76 602.42 1166.68 602.319Q1166.6 602.217 1166.52 602.112Q1166.44 602.007 1166.37 601.898Q1166.3 601.789 1166.24 601.677Q1166.18 601.565 1166.12 601.45Q1166.06 601.334 1166 601.216Q1165.95 601.099 1165.9 600.978Q1165.86 600.858 1165.81 600.735Q1165.77 600.612 1165.74 600.488Q1165.7 600.363 1165.67 600.237Q1165.64 600.111 1165.62 599.984Q1165.6 599.856 1165.58 599.728Q1165.56 599.6 1165.55 599.471Q1165.54 599.342 1165.54 599.212Q1165.54 599.083 1165.54 598.953Q1165.54 598.824 1165.55 598.695Q1165.56 598.566 1165.57 598.437Q1165.59 598.309 1165.61 598.181Q1165.63 598.053 1165.66 597.927Q1165.68 597.8 1165.72 597.675Q1165.75 597.55 1165.79 597.427Q1165.83 597.304 1165.88 597.183Q1165.92 597.062 1165.98 596.943Q1166.03 596.824 1166.08 596.708Q1166.14 596.592 1166.2 596.479Q1166.27 596.366 1166.34 596.256Q1166.4 596.146 1166.48 596.04Q1166.55 595.934 1166.63 595.831Q1166.71 595.729 1166.79 595.63Q1166.88 595.531 1166.97 595.437Q1167.06 595.343 1167.15 595.253Q1167.24 595.163 1167.34 595.078Q1167.44 594.993 1167.54 594.912Q1167.64 594.832 1167.74 594.757Q1167.85 594.682 1167.96 594.612Q1168.07 594.542 1168.18 594.477Z"/>
	<path fill="#010000" transform="scale(0.966583 0.966583)" d="M1196.4 666.548Q1196.61 666.465 1196.82 666.392Q1197.03 666.319 1197.24 666.256Q1197.45 666.193 1197.67 666.14Q1197.89 666.087 1198.11 666.045Q1198.32 666.003 1198.54 665.971Q1198.77 665.939 1198.99 665.918Q1199.21 665.897 1199.43 665.886Q1199.65 665.876 1199.88 665.876Q1200.1 665.876 1200.32 665.886Q1200.54 665.897 1200.77 665.918Q1200.99 665.939 1201.21 665.971Q1201.43 666.003 1201.65 666.045Q1201.86 666.088 1202.08 666.14Q1202.3 666.193 1202.51 666.256Q1202.72 666.319 1202.94 666.392Q1203.15 666.465 1203.35 666.548Q1203.56 666.631 1203.76 666.724Q1203.96 666.817 1204.16 666.919Q1204.36 667.022 1204.55 667.133Q1204.74 667.245 1204.93 667.366Q1205.12 667.487 1205.3 667.616Q1205.48 667.746 1205.66 667.884Q1205.83 668.022 1206 668.168Q1206.17 668.315 1206.33 668.469Q1206.49 668.623 1206.64 668.784Q1206.79 668.946 1206.94 669.115Q1207.08 669.284 1207.22 669.459Q1207.36 669.635 1207.49 669.816Q1207.62 669.998 1207.73 670.186Q1207.85 670.374 1207.97 670.567Q1208.08 670.76 1208.18 670.959Q1208.28 671.157 1208.37 671.36Q1208.46 671.563 1208.54 671.77Q1208.63 671.977 1208.7 672.188Q1208.77 672.398 1208.83 672.612Q1208.89 672.826 1208.94 673.043Q1209 673.259 1209.04 673.478Q1209.08 673.697 1209.11 673.917Q1209.14 674.138 1209.16 674.36Q1209.18 674.581 1209.19 674.804Q1209.2 675.026 1209.2 675.249Q1209.2 675.471 1209.18 675.694Q1209.17 675.916 1209.15 676.138Q1209.13 676.359 1209.09 676.579Q1209.06 676.799 1209.02 677.018Q1208.97 677.236 1208.92 677.452Q1208.87 677.668 1208.8 677.881Q1208.74 678.095 1208.66 678.304Q1208.59 678.514 1208.51 678.72Q1208.42 678.927 1208.33 679.128Q1208.23 679.33 1208.13 679.527Q1208.03 679.725 1207.91 679.917Q1207.8 680.109 1207.68 680.295Q1207.56 680.481 1207.43 680.662Q1207.3 680.842 1207.16 681.016Q1207.02 681.19 1206.87 681.357Q1206.72 681.524 1206.57 681.684Q1206.41 681.844 1206.25 681.996Q1206.09 682.148 1205.92 682.293Q1205.75 682.437 1205.57 682.573Q1205.4 682.709 1205.22 682.837Q1205.03 682.964 1204.84 683.083Q1204.66 683.202 1204.46 683.311Q1204.27 683.421 1204.07 683.521Q1203.79 683.662 1203.5 683.784Q1203.21 683.906 1202.92 684.009Q1202.62 684.111 1202.32 684.193Q1202.01 684.276 1201.71 684.337Q1201.4 684.399 1201.09 684.44Q1200.78 684.481 1200.46 684.5Q1200.15 684.52 1199.84 684.519Q1199.52 684.518 1199.21 684.496Q1198.9 684.473 1198.59 684.43Q1198.28 684.387 1197.97 684.323Q1197.66 684.259 1197.36 684.174Q1197.06 684.09 1196.76 683.985Q1196.47 683.88 1196.18 683.756Q1195.89 683.632 1195.61 683.488Q1195.33 683.345 1195.07 683.183Q1194.8 683.021 1194.54 682.842Q1194.28 682.663 1194.04 682.467Q1193.79 682.271 1193.56 682.059Q1193.33 681.847 1193.12 681.62Q1192.9 681.393 1192.7 681.152Q1192.5 680.911 1192.32 680.657Q1192.13 680.403 1191.97 680.137Q1191.8 679.871 1191.65 679.595Q1191.51 679.319 1191.38 679.033Q1191.25 678.748 1191.14 678.454Q1191.03 678.161 1190.94 677.86Q1190.85 677.56 1190.78 677.255Q1190.71 676.949 1190.66 676.64Q1190.61 676.33 1190.59 676.018Q1190.56 675.706 1190.55 675.393Q1190.55 675.079 1190.56 674.766Q1190.57 674.453 1190.61 674.142Q1190.65 673.831 1190.7 673.522Q1190.76 673.214 1190.84 672.91Q1190.91 672.606 1191.01 672.308Q1191.11 672.01 1191.22 671.719Q1191.34 671.429 1191.48 671.146Q1191.61 670.864 1191.77 670.592Q1191.92 670.319 1192.1 670.058Q1192.27 669.796 1192.46 669.547Q1192.65 669.298 1192.85 669.062Q1193.06 668.826 1193.28 668.604Q1193.5 668.383 1193.74 668.177Q1193.98 667.971 1194.23 667.781Q1194.48 667.591 1194.74 667.419Q1195 667.246 1195.27 667.091Q1195.54 666.937 1195.83 666.801Q1196.11 666.665 1196.4 666.548Z"/>
	<path fill="#FBF8F2" transform="scale(0.966583 0.966583)" d="M1197.74 670.506Q1197.85 670.455 1197.97 670.409Q1198.08 670.363 1198.2 670.323Q1198.32 670.282 1198.43 670.248Q1198.55 670.213 1198.67 670.184Q1198.79 670.155 1198.91 670.132Q1199.03 670.108 1199.16 670.091Q1199.28 670.073 1199.4 670.062Q1199.53 670.05 1199.65 670.044Q1199.77 670.039 1199.9 670.039Q1200.02 670.039 1200.14 670.045Q1200.27 670.051 1200.39 670.063Q1200.51 670.075 1200.63 670.093Q1200.76 670.11 1200.88 670.134Q1201 670.158 1201.12 670.187Q1201.24 670.216 1201.36 670.251Q1201.48 670.286 1201.59 670.327Q1201.71 670.367 1201.82 670.413Q1201.94 670.46 1202.05 670.511Q1202.16 670.563 1202.27 670.619Q1202.38 670.676 1202.49 670.738Q1202.59 670.8 1202.7 670.867Q1202.8 670.934 1202.9 671.006Q1203 671.078 1203.1 671.154Q1203.2 671.231 1203.29 671.312Q1203.38 671.393 1203.47 671.479Q1203.56 671.564 1203.65 671.654Q1203.73 671.743 1203.81 671.837Q1203.89 671.93 1203.97 672.028Q1204.05 672.125 1204.12 672.226Q1204.19 672.327 1204.25 672.431Q1204.32 672.535 1204.38 672.642Q1204.44 672.749 1204.5 672.859Q1204.56 672.969 1204.61 673.082Q1204.66 673.194 1204.7 673.309Q1204.75 673.424 1204.79 673.541Q1204.83 673.658 1204.86 673.776Q1204.9 673.895 1204.93 674.015Q1204.96 674.135 1204.98 674.257Q1205 674.378 1205.02 674.5Q1205.04 674.623 1205.05 674.746Q1205.06 674.869 1205.06 674.992Q1205.07 675.116 1205.07 675.239Q1205.07 675.363 1205.06 675.486Q1205.05 675.609 1205.04 675.732Q1205.03 675.855 1205.01 675.977Q1204.99 676.1 1204.97 676.221Q1204.95 676.342 1204.92 676.462Q1204.89 676.582 1204.85 676.7Q1204.82 676.819 1204.78 676.935Q1204.73 677.052 1204.69 677.166Q1204.64 677.281 1204.59 677.393Q1204.54 677.505 1204.48 677.614Q1204.42 677.724 1204.36 677.831Q1204.3 677.937 1204.23 678.041Q1204.16 678.144 1204.09 678.245Q1204.02 678.345 1203.94 678.442Q1203.87 678.538 1203.78 678.631Q1203.7 678.724 1203.62 678.813Q1203.53 678.902 1203.44 678.987Q1203.35 679.071 1203.26 679.152Q1203.16 679.232 1203.07 679.308Q1202.97 679.384 1202.87 679.455Q1202.77 679.526 1202.66 679.592Q1202.56 679.658 1202.45 679.719Q1202.15 679.891 1201.82 680.022Q1201.5 680.152 1201.16 680.238Q1200.82 680.323 1200.48 680.363Q1200.13 680.402 1199.78 680.395Q1199.43 680.388 1199.09 680.333Q1198.74 680.279 1198.41 680.179Q1198.07 680.079 1197.75 679.935Q1197.44 679.791 1197.14 679.606Q1196.84 679.421 1196.58 679.198Q1196.31 678.974 1196.07 678.717Q1195.84 678.46 1195.64 678.173Q1195.44 677.886 1195.28 677.575Q1195.12 677.265 1195 676.935Q1194.89 676.606 1194.82 676.264Q1194.75 675.922 1194.72 675.574Q1194.7 675.225 1194.72 674.877Q1194.74 674.529 1194.81 674.186Q1194.88 673.844 1195 673.515Q1195.11 673.185 1195.27 672.873Q1195.43 672.562 1195.63 672.275Q1195.83 671.988 1196.06 671.729Q1196.3 671.471 1196.56 671.247Q1196.83 671.023 1197.13 670.837Q1197.42 670.651 1197.74 670.506Z"/>
	<path fill="#010000" transform="scale(0.966583 0.966583)" d="M1081.76 502.404Q1081.97 502.305 1082.19 502.219Q1082.41 502.134 1082.64 502.064Q1082.86 501.993 1083.09 501.938Q1083.32 501.882 1083.55 501.842Q1083.78 501.801 1084.02 501.776Q1084.25 501.751 1084.48 501.742Q1084.72 501.732 1084.95 501.738Q1085.19 501.744 1085.42 501.765Q1085.66 501.787 1085.89 501.824Q1086.12 501.861 1086.35 501.913Q1086.58 501.965 1086.81 502.032Q1087.03 502.099 1087.25 502.181Q1087.47 502.263 1087.69 502.359Q1087.9 502.455 1088.11 502.565Q1088.32 502.675 1088.52 502.799Q1088.72 502.922 1088.91 503.059Q1089.1 503.196 1089.28 503.345Q1089.47 503.494 1089.64 503.654Q1089.81 503.815 1089.97 503.987Q1090.13 504.158 1090.28 504.34Q1090.43 504.522 1090.57 504.714Q1090.7 504.905 1090.83 505.105Q1090.95 505.305 1091.06 505.513Q1091.17 505.721 1091.27 505.935Q1091.37 506.15 1091.45 506.37Q1091.53 506.591 1091.6 506.816Q1091.67 507.042 1091.72 507.271Q1091.77 507.501 1091.81 507.733Q1091.85 507.965 1091.87 508.2Q1091.89 508.434 1091.9 508.669Q1091.9 508.905 1091.89 509.14Q1091.88 509.375 1091.86 509.609Q1091.84 509.843 1091.8 510.075Q1091.76 510.307 1091.7 510.536Q1091.64 510.764 1091.57 510.989Q1091.5 511.214 1091.42 511.433Q1091.33 511.653 1091.24 511.866Q1091.14 512.08 1091.02 512.286Q1090.91 512.492 1090.78 512.691Q1090.66 512.889 1090.52 513.079Q1090.38 513.269 1090.23 513.449Q1090.08 513.629 1089.91 513.799Q1089.75 513.969 1089.58 514.127Q1089.4 514.286 1089.22 514.433Q1089.03 514.579 1088.84 514.714Q1088.65 514.848 1088.45 514.97Q1088.24 515.091 1088.04 515.199Q1087.83 515.306 1087.61 515.4Q1087.45 515.469 1087.29 515.53Q1087.13 515.591 1086.96 515.644Q1086.8 515.697 1086.63 515.742Q1086.46 515.787 1086.29 515.824Q1086.12 515.861 1085.95 515.89Q1085.78 515.918 1085.61 515.938Q1085.44 515.958 1085.26 515.97Q1085.09 515.982 1084.92 515.986Q1084.74 515.989 1084.57 515.984Q1084.4 515.979 1084.23 515.965Q1084.05 515.952 1083.88 515.93Q1083.71 515.908 1083.54 515.878Q1083.37 515.848 1083.2 515.81Q1083.03 515.771 1082.86 515.725Q1082.7 515.678 1082.53 515.624Q1082.37 515.569 1082.2 515.506Q1082.04 515.444 1081.89 515.374Q1081.73 515.303 1081.57 515.225Q1081.42 515.147 1081.27 515.062Q1081.12 514.977 1080.97 514.884Q1080.82 514.791 1080.68 514.692Q1080.54 514.592 1080.4 514.486Q1080.27 514.379 1080.13 514.266Q1080 514.154 1079.88 514.034Q1079.75 513.915 1079.63 513.79Q1079.51 513.665 1079.4 513.534Q1079.28 513.403 1079.18 513.267Q1079.07 513.131 1078.97 512.99Q1078.87 512.848 1078.77 512.702Q1078.68 512.556 1078.6 512.406Q1078.51 512.256 1078.43 512.101Q1078.35 511.947 1078.28 511.789Q1078.21 511.631 1078.15 511.47Q1078.08 511.308 1078.03 511.144Q1077.97 510.98 1077.92 510.813Q1077.88 510.646 1077.84 510.477Q1077.8 510.308 1077.77 510.138Q1077.73 509.967 1077.71 509.795Q1077.69 509.623 1077.68 509.45Q1077.66 509.277 1077.66 509.104Q1077.65 508.931 1077.65 508.757Q1077.65 508.584 1077.67 508.411Q1077.68 508.238 1077.7 508.066Q1077.71 507.893 1077.74 507.722Q1077.77 507.551 1077.81 507.381Q1077.84 507.212 1077.89 507.044Q1077.93 506.876 1077.98 506.711Q1078.04 506.545 1078.1 506.383Q1078.16 506.22 1078.22 506.061Q1078.29 505.901 1078.37 505.745Q1078.44 505.589 1078.53 505.437Q1078.61 505.285 1078.7 505.137Q1078.79 504.989 1078.89 504.846Q1078.99 504.703 1079.09 504.564Q1079.2 504.426 1079.31 504.293Q1079.42 504.16 1079.54 504.032Q1079.65 503.905 1079.78 503.783Q1079.9 503.661 1080.03 503.546Q1080.16 503.43 1080.29 503.321Q1080.43 503.212 1080.57 503.11Q1080.71 503.007 1080.85 502.912Q1081 502.816 1081.15 502.728Q1081.3 502.639 1081.45 502.558Q1081.6 502.477 1081.76 502.404Z"/>
	<path fill="#FBF8F2" transform="scale(0.966583 0.966583)" d="M1082.41 506.478Q1082.57 506.329 1082.76 506.204Q1082.94 506.079 1083.14 505.979Q1083.33 505.88 1083.54 505.808Q1083.75 505.736 1083.97 505.692Q1084.19 505.649 1084.41 505.635Q1084.63 505.621 1084.85 505.637Q1085.07 505.653 1085.29 505.698Q1085.5 505.744 1085.71 505.818Q1085.92 505.892 1086.12 505.994Q1086.31 506.096 1086.49 506.223Q1086.67 506.351 1086.84 506.501Q1087 506.652 1087.14 506.823Q1087.28 506.994 1087.4 507.182Q1087.51 507.37 1087.6 507.573Q1087.69 507.775 1087.76 507.987Q1087.82 508.2 1087.85 508.419Q1087.88 508.638 1087.89 508.859Q1087.89 509.08 1087.86 509.3Q1087.84 509.52 1087.78 509.734Q1087.72 509.948 1087.64 510.153Q1087.56 510.358 1087.45 510.549Q1087.33 510.741 1087.2 510.916Q1087.06 511.09 1086.91 511.246Q1086.75 511.401 1086.57 511.533Q1086.44 511.626 1086.31 511.707Q1086.18 511.788 1086.04 511.856Q1085.9 511.924 1085.75 511.979Q1085.6 512.033 1085.45 512.073Q1085.3 512.113 1085.15 512.139Q1084.99 512.165 1084.84 512.175Q1084.68 512.186 1084.53 512.182Q1084.37 512.178 1084.22 512.16Q1084.06 512.141 1083.91 512.107Q1083.76 512.074 1083.61 512.026Q1083.46 511.978 1083.32 511.917Q1083.17 511.855 1083.04 511.78Q1082.9 511.705 1082.77 511.617Q1082.64 511.53 1082.52 511.43Q1082.4 511.331 1082.29 511.22Q1082.18 511.109 1082.08 510.989Q1081.98 510.868 1081.89 510.739Q1081.81 510.61 1081.73 510.472Q1081.66 510.335 1081.6 510.192Q1081.53 510.048 1081.49 509.899Q1081.44 509.751 1081.41 509.598Q1081.37 509.445 1081.36 509.29Q1081.34 509.135 1081.33 508.979Q1081.33 508.823 1081.34 508.667Q1081.35 508.512 1081.38 508.358Q1081.41 508.204 1081.45 508.053Q1081.49 507.903 1081.54 507.756Q1081.6 507.61 1081.67 507.47Q1081.73 507.33 1081.81 507.196Q1081.9 507.063 1081.99 506.938Q1082.08 506.814 1082.19 506.698Q1082.29 506.583 1082.41 506.478Z"/>
	<path fill="#010000" transform="scale(0.966583 0.966583)" d="M1065.9 441.164Q1066.04 441.101 1066.19 441.046Q1066.33 440.99 1066.48 440.942Q1066.63 440.893 1066.78 440.852Q1066.93 440.811 1067.08 440.778Q1067.23 440.744 1067.38 440.718Q1067.53 440.691 1067.69 440.673Q1067.84 440.654 1068 440.643Q1068.15 440.632 1068.31 440.629Q1068.46 440.625 1068.62 440.63Q1068.77 440.634 1068.93 440.646Q1069.08 440.658 1069.24 440.677Q1069.39 440.696 1069.54 440.723Q1069.69 440.75 1069.85 440.785Q1070 440.819 1070.15 440.861Q1070.3 440.903 1070.44 440.952Q1070.59 441.002 1070.73 441.058Q1070.88 441.114 1071.02 441.178Q1071.16 441.241 1071.3 441.311Q1071.44 441.382 1071.57 441.459Q1071.71 441.536 1071.84 441.619Q1071.97 441.703 1072.1 441.793Q1072.22 441.883 1072.34 441.979Q1072.47 442.075 1072.58 442.176Q1072.7 442.278 1072.81 442.386Q1072.92 442.493 1073.03 442.606Q1073.14 442.719 1073.24 442.837Q1073.34 442.955 1073.43 443.078Q1073.53 443.201 1073.62 443.328Q1073.7 443.455 1073.79 443.587Q1073.87 443.718 1073.94 443.854Q1074.02 443.989 1074.09 444.128Q1074.16 444.267 1074.22 444.409Q1074.28 444.551 1074.34 444.696Q1074.39 444.841 1074.44 444.989Q1074.49 445.136 1074.53 445.286Q1074.57 445.436 1074.6 445.587Q1074.63 445.739 1074.66 445.892Q1074.69 446.045 1074.7 446.199Q1074.72 446.353 1074.73 446.508Q1074.74 446.663 1074.74 446.818Q1074.75 446.973 1074.74 447.128Q1074.74 447.283 1074.73 447.437Q1074.71 447.592 1074.69 447.746Q1074.67 447.9 1074.65 448.052Q1074.62 448.205 1074.58 448.356Q1074.55 448.507 1074.5 448.656Q1074.46 448.805 1074.41 448.952Q1074.36 449.099 1074.31 449.243Q1074.25 449.388 1074.18 449.529Q1074.12 449.67 1074.05 449.808Q1073.98 449.946 1073.9 450.081Q1073.82 450.215 1073.74 450.345Q1073.66 450.476 1073.57 450.602Q1073.47 450.728 1073.38 450.849Q1073.28 450.97 1073.18 451.087Q1073.08 451.204 1072.97 451.315Q1072.86 451.426 1072.75 451.532Q1072.63 451.638 1072.52 451.738Q1072.4 451.839 1072.27 451.933Q1072.15 452.027 1072.02 452.115Q1071.9 452.203 1071.76 452.285Q1071.63 452.367 1071.5 452.442Q1071.36 452.517 1071.22 452.585Q1071.08 452.654 1070.94 452.715Q1070.8 452.776 1070.65 452.83Q1070.51 452.884 1070.36 452.931Q1070.22 452.978 1070.07 453.018Q1069.92 453.057 1069.77 453.09Q1069.62 453.122 1069.46 453.147Q1069.31 453.172 1069.16 453.189Q1069 453.207 1068.85 453.217Q1068.7 453.227 1068.54 453.229Q1068.39 453.231 1068.23 453.226Q1068.08 453.221 1067.93 453.208Q1067.77 453.195 1067.62 453.175Q1067.47 453.155 1067.31 453.127Q1067.16 453.099 1067.01 453.064Q1066.86 453.029 1066.71 452.987Q1066.57 452.944 1066.42 452.895Q1066.27 452.845 1066.13 452.788Q1065.99 452.732 1065.85 452.668Q1065.71 452.604 1065.57 452.534Q1065.43 452.463 1065.3 452.386Q1065.16 452.309 1065.03 452.226Q1064.9 452.142 1064.78 452.052Q1064.65 451.963 1064.53 451.867Q1064.41 451.771 1064.3 451.669Q1064.18 451.568 1064.07 451.46Q1063.96 451.353 1063.85 451.241Q1063.75 451.128 1063.65 451.011Q1063.55 450.893 1063.45 450.771Q1063.36 450.649 1063.27 450.522Q1063.18 450.395 1063.1 450.264Q1063.02 450.133 1062.94 449.999Q1062.87 449.864 1062.8 449.726Q1062.73 449.587 1062.67 449.446Q1062.61 449.305 1062.55 449.16Q1062.5 449.016 1062.45 448.87Q1062.4 448.723 1062.36 448.574Q1062.32 448.425 1062.29 448.275Q1062.26 448.124 1062.23 447.972Q1062.21 447.82 1062.19 447.667Q1062.17 447.513 1062.16 447.36Q1062.15 447.206 1062.15 447.052Q1062.14 446.897 1062.15 446.743Q1062.15 446.589 1062.16 446.435Q1062.18 446.282 1062.2 446.129Q1062.22 445.976 1062.24 445.824Q1062.27 445.672 1062.3 445.522Q1062.34 445.371 1062.38 445.223Q1062.42 445.074 1062.47 444.928Q1062.52 444.782 1062.58 444.638Q1062.63 444.495 1062.69 444.354Q1062.76 444.213 1062.83 444.076Q1062.9 443.938 1062.97 443.804Q1063.05 443.67 1063.13 443.54Q1063.22 443.41 1063.3 443.284Q1063.39 443.159 1063.49 443.037Q1063.58 442.916 1063.69 442.799Q1063.79 442.683 1063.89 442.572Q1064 442.46 1064.11 442.354Q1064.22 442.248 1064.34 442.147Q1064.46 442.047 1064.58 441.952Q1064.7 441.858 1064.83 441.769Q1064.95 441.681 1065.08 441.598Q1065.21 441.516 1065.35 441.44Q1065.48 441.365 1065.62 441.295Q1065.76 441.226 1065.9 441.164Z"/>
	<path fill="#010000" transform="scale(0.966583 0.966583)" d="M1175.66 304.492C1177.3 304.327 1178.74 304.497 1180.37 304.72L1181 305.97C1179.24 308.248 1176.88 308.843 1174.27 309.746L1171.26 309.257L1171.4 307.706L1175.66 304.492Z"/>
	<path fill="#D3DCCE" transform="scale(0.966583 0.966583)" d="M1430.76 600.544L1680.6 600.76C1680.77 601.144 1681.09 601.789 1681.2 602.237C1682.2 606.403 1680.3 631.451 1678.17 635.082L1542.42 635.103C1522.6 635.112 1496.7 633.357 1477.55 635.551C1486.61 637.781 1517.86 636.333 1529.12 636.394L1678.46 636.652C1681.2 642.022 1681.27 670.432 1683.06 680.101C1687.72 705.279 1697.79 729.591 1719.68 744.464C1731.75 752.665 1744.74 757.387 1759.42 754.612C1760.27 755.638 1761.06 756.804 1761.67 757.989C1765.28 765.011 1771.74 791.03 1769.6 798.161C1772.62 804.194 1775.7 840.214 1773.5 846.336C1773.43 846.535 1773.35 846.728 1773.27 846.926C1773.18 847.169 1773.1 847.416 1773.01 847.658C1772.95 847.804 1772.88 847.945 1772.82 848.089L1756 848.072C1756.97 843.588 1753.18 835.207 1750.81 831.424C1750.46 830.864 1750.09 830.477 1749.63 830.006C1749.63 829.811 1749.67 829.614 1749.65 829.419C1748.94 819.547 1731.61 800.424 1724.46 793.724C1703.05 773.661 1676.83 762.111 1648.29 756.461C1642.08 755.233 1634.66 753.441 1628.3 753.771C1626.13 753.884 1625.4 754.02 1623.93 755.692C1623.18 764.689 1649.33 809.48 1655.66 819.534C1659.4 825.476 1670.92 839.115 1671.82 845.085C1671.84 845.249 1671.85 845.414 1671.87 845.578C1615.18 840.137 1569.46 832.063 1515.05 814.549C1493.31 807.549 1472.2 797.842 1450.28 791.618C1457.14 777.914 1451.22 681.508 1449.27 661.028C1450.3 659.192 1451.49 657.284 1451.29 655.106C1450.37 644.978 1437.49 606.187 1430.76 600.544Z"/>
	<path fill="#FBF8F2" transform="scale(0.966583 0.966583)" d="M1749.63 830.006C1757.59 821.937 1760.22 804.17 1769.6 798.161C1772.62 804.194 1775.7 840.214 1773.5 846.336C1773.43 846.535 1773.35 846.728 1773.27 846.926C1773.18 847.169 1773.1 847.416 1773.01 847.658C1772.95 847.804 1772.88 847.945 1772.82 848.089L1756 848.072C1756.97 843.588 1753.18 835.207 1750.81 831.424C1750.46 830.864 1750.09 830.477 1749.63 830.006Z"/>
	<path fill="#EAD6C6" transform="scale(0.966583 0.966583)" d="M1105.76 487.513C1123.81 486.378 1171.08 489.07 1185.06 500.748C1186.68 508.793 1160.55 573.524 1155.38 584.542Q1149.16 597.517 1141.22 609.517C1108.12 659.378 1052.16 710.191 1004.08 745.462C992.352 754.066 978.243 765.566 963.759 768.539C946.053 772.173 920.477 762.551 900.947 761.959C890.793 761.651 868.343 765.718 860.311 761.085L859.026 759.313C860.461 756.761 862.393 756.188 865.176 755.429C874.374 752.922 902.885 751.753 908.47 747.839C907.858 747.159 907.236 746.058 906.311 746.003C884.271 744.709 861.257 755.639 841.728 755.95C838.907 755.995 837.622 755.686 835.586 753.768C835.637 753.028 835.48 751.806 836.061 751.335C846.504 742.88 895.992 741.275 903.12 737.246C901.184 735.303 897.334 735.242 894.716 735.246C881.601 735.266 866.126 738.854 853.259 741.639C850.031 740.423 846.016 740.407 842.574 740.072C855.579 735.124 868.365 732.165 882.21 730.705C886.006 730.304 895.688 730.602 898.443 728.222L898.313 726.879C890.482 723.324 857.757 730.105 849.262 733.288C844.619 735.028 834.115 740.931 829.427 740.181C841.775 730.932 881.974 718.613 897.079 720.646C914.898 723.044 932.409 728.006 949.982 731.734C955.617 729.144 960.05 726.125 964.603 721.923C994.277 694.535 1080.07 578.984 1093.81 541.956C1096.91 533.59 1108.39 494.536 1105.76 487.513Z"/>
	<path fill="#EAD6C6" transform="scale(0.966583 0.966583)" d="M680.694 860.116C682.886 860.947 685.028 861.848 687.088 862.975C711.862 876.528 726.136 901.81 733.517 928.137C683.195 947.483 611.475 970.155 557.559 971.23C500.006 972.376 432.257 955.862 375.507 944.323C370.49 943.702 364.857 943.379 360.095 941.658C354.259 939.549 345.838 935.889 343.395 929.756C342.223 926.812 342.639 923.64 343.867 920.798C349.936 906.743 373.737 898.553 386.827 893.354C392.448 902.194 398.525 907.217 407.281 912.898C400.748 913.039 390.481 911.82 384.604 914.482L384.247 915.78C384.724 916.007 384.754 916.032 385.317 916.239C393.84 919.379 432.677 915.016 443.941 914.225C483.335 911.458 524.585 912.114 563.4 904.461C604.762 896.305 642.552 877.287 680.694 860.116Z"/>
	<path fill="#EAD6C6" transform="scale(0.966583 0.966583)" d="M1002.95 214.067C1004.17 214.088 1005.39 214.121 1006.6 214.242C1011.42 214.723 1015.19 217.792 1018.09 221.489C1022.49 227.1 1024.89 234.408 1023.85 241.547C1022.67 249.557 1018.26 253.842 1012.18 258.445L1012.07 259.667C1012.21 259.679 1012.36 259.697 1012.5 259.702C1015.61 259.819 1019.67 257.841 1021.92 255.744C1024.5 253.339 1026.3 249.868 1026.48 246.336C1034.92 251.266 1043.41 255.686 1052.36 259.633C1059.88 262.945 1070.8 265.521 1077.17 270.449C1077.32 270.621 1077.47 270.788 1077.62 270.964C1081.82 276.138 1081.94 290.271 1082.04 296.838C1082.47 324.016 1078.71 353.241 1066.71 377.928C1062.3 387.005 1051.98 398.103 1051.07 408.084C1050.95 409.398 1050.93 409.131 1050.05 409.99C1049.75 409.612 1049.43 409.241 1049.15 408.842C1042.25 399.095 1021.42 358.8 1023.6 347.217C1023.76 346.373 1024.69 346.106 1025.37 345.657C1030.85 346.755 1034.78 351.499 1039.94 353.567L1039.9 351.856C1035.2 343.435 1013.74 332.768 1004.73 327.445C1010.06 318.736 1014.2 310.404 1017.12 300.596C1018.72 294.308 1021.88 283.018 1020.26 276.897L1018.59 276.278C1016.39 278.943 1016.26 289.027 1015.32 293.018C1011.31 310.051 1001.69 330.906 988.188 342.475C984.338 345.775 979.572 348.163 974.38 347.717C968.753 347.233 965.734 343.024 962.341 339.067C961.224 339.005 960.128 338.876 959.015 338.773C954.047 338.314 943.652 331.827 940.025 328.113C935.943 323.934 941.092 321.975 941.124 317.651C934.648 316.117 926.839 323.203 920.436 320.75C919.04 320.215 918.908 319.188 918.297 317.908C921.214 294.697 904.364 285.36 891.501 269.514C884.361 260.719 878.622 250.593 873.913 240.318C871.417 234.875 869.008 228.358 871.31 222.438C873.126 217.766 876.147 217.608 880.569 218.45C918.329 225.645 949.122 251.952 988.833 235.019C991.798 225.021 993.704 219.763 1002.95 214.067Z"/>
	<path fill="#010000" transform="scale(0.966583 0.966583)" d="M927.297 242.7C928.61 242.758 929.068 243.052 930.241 243.602C928.664 247.931 908.612 253.881 902.725 266.472C901.989 266.7 901.037 266.645 900.261 266.692C899.559 264.953 898.964 264.222 899.723 262.367C903.342 253.521 918.95 246.364 927.297 242.7Z"/>
	<path fill="#010000" transform="scale(0.966583 0.966583)" d="M928.69 271.516Q928.851 271.437 929.016 271.37Q929.182 271.303 929.352 271.247Q929.521 271.191 929.695 271.147Q929.868 271.103 930.044 271.071Q930.22 271.039 930.397 271.019Q930.575 270.999 930.753 270.992Q930.932 270.984 931.111 270.989Q931.289 270.994 931.467 271.01Q931.645 271.027 931.822 271.057Q931.998 271.086 932.172 271.127Q932.346 271.168 932.516 271.221Q932.687 271.274 932.854 271.339Q933.021 271.403 933.182 271.479Q933.344 271.555 933.5 271.642Q933.656 271.729 933.806 271.826Q933.956 271.924 934.099 272.031Q934.242 272.138 934.377 272.256Q934.512 272.373 934.639 272.499Q934.766 272.625 934.883 272.759Q935.001 272.894 935.11 273.036Q935.218 273.178 935.316 273.327Q935.414 273.477 935.502 273.632Q935.59 273.788 935.667 273.949Q935.744 274.111 935.809 274.277Q935.875 274.443 935.929 274.614Q935.983 274.784 936.025 274.958Q936.067 275.132 936.097 275.308Q936.128 275.484 936.146 275.662Q936.164 275.84 936.169 276.018Q936.175 276.197 936.168 276.376Q936.162 276.554 936.143 276.732Q936.124 276.91 936.093 277.086Q936.062 277.262 936.019 277.436Q935.976 277.609 935.921 277.779Q935.866 277.949 935.8 278.115Q935.734 278.281 935.656 278.442Q935.578 278.603 935.49 278.759Q935.401 278.914 935.302 279.063Q935.203 279.212 935.094 279.353Q934.986 279.495 934.867 279.629Q934.749 279.763 934.621 279.888Q934.494 280.014 934.358 280.13Q934.223 280.246 934.079 280.353Q933.936 280.46 933.786 280.557Q933.635 280.653 933.479 280.74Q933.322 280.826 933.16 280.901Q932.998 280.976 932.831 281.04Q932.664 281.104 932.493 281.156Q932.261 281.227 932.024 281.276Q931.786 281.325 931.545 281.351Q931.304 281.378 931.062 281.382Q930.82 281.386 930.578 281.368Q930.336 281.349 930.097 281.308Q929.858 281.268 929.624 281.205Q929.39 281.142 929.163 281.057Q928.935 280.973 928.717 280.867Q928.499 280.762 928.291 280.637Q928.083 280.512 927.888 280.368Q927.693 280.224 927.512 280.062Q927.331 279.901 927.166 279.723Q927.001 279.546 926.854 279.353Q926.706 279.161 926.576 278.956Q926.447 278.751 926.338 278.535Q926.228 278.319 926.139 278.093Q926.05 277.867 925.982 277.635Q925.915 277.402 925.869 277.164Q925.823 276.925 925.8 276.684Q925.777 276.443 925.776 276.2Q925.776 275.958 925.797 275.716Q925.819 275.475 925.863 275.236Q925.908 274.998 925.974 274.765Q926.04 274.532 926.128 274.305Q926.216 274.079 926.324 273.862Q926.432 273.646 926.56 273.44Q926.688 273.234 926.835 273.041Q926.982 272.848 927.146 272.669Q927.31 272.49 927.49 272.328Q927.67 272.165 927.864 272.02Q928.058 271.875 928.265 271.749Q928.472 271.623 928.69 271.516Z"/>
	<path fill="#FBF8F2" transform="scale(0.966583 0.966583)" d="M759.776 927.001L794.131 926.875Q795.815 928.947 797.727 930.81C810.889 943.887 829.227 950.495 847.582 951.075C880.463 952.114 906.449 932.234 937.812 928.328C957.295 925.901 978.149 927.342 997.831 927.358L1104.04 927.244C1104.6 928.221 1105.06 929.22 1105.33 930.313C1106.87 936.441 1106.08 970.667 1103.29 975.237L927.5 975.488L650.096 975.259C634.192 975.272 568.978 977.635 560.391 975.077L562.373 975.099L562.459 974.189L563.51 974.749C618.443 969.801 672.12 954.042 723.953 935.79Q724.543 935.999 725.136 936.202C737.838 940.551 748.6 932.478 759.776 927.001Z"/>
	<path fill="#FBF8F2" transform="scale(0.966583 0.966583)" d="M1005.88 333.191C1010.52 335.565 1015.05 338.329 1019.59 340.898L1019.52 341.557C1016.32 369.029 1043.14 396.554 1049.3 420.324C1051.53 428.944 1051.11 437.999 1051.39 446.836C1051.98 466.109 1053.69 484.84 1060.56 503.031C1065 514.787 1072.62 525.149 1080.5 534.818C1082.76 537.587 1085.98 540.055 1087.66 543.162C1087.73 543.282 1087.79 543.405 1087.85 543.527C1088.01 544.269 1088.14 544.862 1088.02 545.625C1086.87 552.492 1078.45 567.292 1072.75 571.139C1069.53 567.806 1064.14 565.344 1060.11 562.969C1045.07 554.116 1029.38 546.257 1017.75 532.86C995.723 507.498 999.634 459.42 994.484 426.272C993.599 420.575 993.108 412.498 990.47 407.473L989.552 408.234C987.752 411.654 988.438 414.293 989.137 417.949C990.762 428.546 992.479 438.931 993.271 449.647C994.46 465.741 994.44 482.312 997.242 498.207C977.624 490.421 955.997 488.023 935.454 483.356C947.686 440.293 949.127 398.721 975.876 360.964C983.067 350.814 993.722 344.153 1000.99 334.05L1001.33 333.573L1000.88 335.465C995.685 357.188 1001.76 378.893 1013.35 397.596C1015.89 401.694 1021.49 411.921 1026.28 413.041L1027.48 411.224C1025.01 403.823 1017.32 397.231 1013.44 390.162C1003.73 372.45 1000.16 352.587 1005.88 333.191Z"/>
	<path fill="#EAD6C6" transform="scale(0.966583 0.966583)" d="M935.658 515.654C960.078 518.802 984.941 525.192 1005.92 538.548C981.748 623.39 956.767 656.91 894.864 716.616C870.06 719.886 838.885 724.698 820.528 743.055C810.749 745.725 776.806 759.214 768.956 755.672C769.331 753.482 770.315 752.88 772.102 751.653C780.098 746.165 800.577 741.483 805.777 735.176L805.546 733.755L806.046 735.278C805.101 734.782 804.754 734.406 804.18 733.51C793.513 737.062 783.264 741.87 772.978 746.384L768.444 748.685L766.675 745.011L770.731 742.115C778.494 736.251 786.455 730.055 796.085 727.76C803.284 726.045 828.607 729.021 831.327 727.098C832.618 726.184 833.689 723.293 834.425 721.826C837.102 716.496 843.387 711.792 847.216 707.046Q856.79 694.979 864.95 681.914C895.855 632.975 922.699 572.153 935.658 515.654Z"/>
	<path fill="#FBF8F2" transform="scale(0.966583 0.966583)" d="M261.284 911.372C271.053 910.425 281.424 911.023 291.241 911.027L344.754 911.141Q343.773 912.522 342.862 913.949C339.984 918.384 338.865 922.858 340.082 928.096C341.879 935.825 349.012 940.967 355.906 943.917C366.174 948.311 380.67 949.229 391.819 951.416C430.254 958.958 468.991 967.278 507.909 971.845C514.298 972.595 540.301 973.088 543.757 975.254C539.893 976.996 426.315 975.113 414.5 975.149L122.332 975.003C157.244 941.536 213.155 916.748 261.284 911.372Z"/>
	<path fill="#937A71" transform="scale(0.966583 0.966583)" d="M948.024 134.321C968.92 132.459 987.727 136.103 1005.51 147.586C1026.9 161.395 1039.13 181.552 1044.37 206.236C1047.19 219.547 1049.15 238.937 1041.45 250.793C1037.46 247.009 1031.44 244.525 1026.61 241.913C1026.72 241.64 1026.84 241.374 1026.93 241.094C1028.52 236.063 1026.23 228.035 1023.8 223.588C1020.06 216.71 1015.46 212.429 1008 210.122C1011.04 204.379 1012.75 199.344 1013.99 192.965L1013.48 192.378C1009 197.383 1006.61 204.277 1003.01 210.05C1002.16 210.397 1001.38 210.745 1000.57 211.173C991.279 216.076 988.88 222.278 986.069 231.806C983.484 234.37 979.091 235.363 975.622 236.161C943.648 243.512 913.222 221.349 883.041 215.387C873.838 213.569 865.758 213.779 856.59 215.645C856.609 212.381 856.412 208.662 857.098 205.467C861.014 187.227 883.408 199.709 889.33 195.939L889.619 194.43C889.229 194.103 889.165 194.035 888.694 193.717C882.308 189.41 872.56 191.058 865.437 192.225Q868.128 187.591 871.236 183.227C889.359 157.869 917.228 139.428 948.024 134.321Z"/>
	<path fill="#010000" transform="scale(0.966583 0.966583)" d="M986.227 170.481C987.142 171.075 987.831 171.88 988.589 172.658C988.657 173.987 988.752 175.453 988.515 176.768C987.038 184.937 975.019 195.328 968.627 200.299C955.541 210.474 937.009 218.372 920.23 216.219L918.245 214.748L918.578 213.079C936.136 209.537 940.542 213.329 958.556 202.809C970.767 195.679 982.588 184.504 986.227 170.481Z"/>
	<path fill="#FBF8F2" transform="scale(0.966583 0.966583)" d="M488.492 831.169C494.573 832.574 501.149 840.871 507.187 844.012C516.133 848.666 526.54 849.637 535.484 853.915C540.879 856.496 545.401 861.33 550.732 864.275C572.949 876.549 594.612 881.575 619.762 883.286C602.294 889.693 584.978 896.083 566.753 900.065C530.826 907.913 492.825 907.405 456.249 909.837C445.358 910.221 433.865 912.512 423.053 911.887C413.155 911.315 401.641 906.824 395.097 899.156C391.354 894.768 389.352 889.194 389.865 883.408C390.471 876.566 394.564 870.761 399.784 866.532C419.002 850.966 451.715 848.357 475.319 850.511C482.062 851.127 488.469 853.108 495.074 853.801C496.854 853.988 497.216 854.202 498.677 853.011L498.264 851.409C487.264 844.157 451.494 846.235 438.098 848.42C454.386 841.599 471.389 835.566 488.492 831.169Z"/>
	<path fill="#010000" transform="scale(0.966583 0.966583)" d="M455.734 866.433C466.203 866.046 480.839 867.474 489.906 873.015C492.747 874.752 495.714 877.406 496.348 880.834C496.74 882.959 496.192 885.005 494.868 886.701C489.16 894.011 473.338 894.266 464.783 895.077C452.138 895.351 436.209 895.41 425.163 888.378C421.902 886.302 419.936 884.198 419.077 880.366C419.563 878.194 419.661 877.153 421.184 875.449C428.285 867.501 445.824 867.013 455.734 866.433Z"/>
	<path fill="#FBF8F2" transform="scale(0.966583 0.966583)" d="M447.149 870.361C460.028 869.165 474.177 870.343 486.227 875.297C489.77 876.754 492.294 878.055 493.761 881.647L492.505 883.923C486.105 888.615 477.957 889.653 470.325 890.914C459.085 891.758 446.265 892.225 435.33 889.119C430.651 887.79 425.22 885.433 422.781 881.001C422.855 879.689 422.706 878.987 423.572 877.924C428.088 872.381 440.356 871.234 447.149 870.361Z"/>
	<path fill="#D3DCCE" transform="scale(0.966583 0.966583)" d="M1442.96 665.497L1445.45 666.1C1445.8 666.845 1446.11 667.609 1446.32 668.409C1449.51 681.116 1450.99 781.752 1446.2 790.163C1441.02 785.995 1429.68 783.154 1423.32 780.681C1381.19 764.276 1340.61 751.672 1295.24 748.603C1284.96 745.51 1256.76 745.943 1244.5 745.394C1278.59 741.693 1313.6 731.088 1346.02 720.252Q1351.69 718.415 1357.29 716.35Q1362.88 714.285 1368.39 711.994Q1373.9 709.703 1379.3 707.191Q1384.71 704.678 1390.01 701.948Q1395.32 699.219 1400.5 696.276Q1405.69 693.333 1410.75 690.182Q1415.82 687.03 1420.75 683.676Q1425.68 680.322 1430.47 676.771C1434.38 673.863 1440.74 669.938 1442.96 665.497Z"/>
	<path fill="#D3DCCE" transform="scale(0.966583 0.966583)" d="M1113.62 649.484L1115.68 650.233C1116.42 651.275 1116.7 652.064 1116.97 653.311C1121.82 675.507 1120.99 698.595 1121.9 721.116C1122.19 728.348 1123.92 735.669 1123.6 742.894C1123.47 745.87 1123.18 748.708 1121.56 751.278C1115.13 752.465 1107.35 752.906 1100.79 753.105C1093.61 753.323 1087.35 762.777 1082.02 766.789L1081.41 767.244C1060.86 770.532 1022.57 766.699 1000.87 764.386L986.79 762.619C1026.22 733.867 1062.87 704.238 1096.94 669.138C1101.84 664.088 1111.16 655.926 1113.62 649.484Z"/>
	<path fill="#FBF8F2" transform="scale(0.966583 0.966583)" d="M1782.14 635.751L1805.72 635.764C1808.48 637.705 1819.98 651.768 1821.74 655.028C1824.58 656.322 1828.94 657.811 1830.59 660.63C1831 671.084 1825.93 684.589 1823.49 694.837C1818.7 714.96 1813.57 735.167 1809.98 755.543Q1806.12 777.834 1803.16 800.262C1801.96 809.527 1800.23 841.624 1796.85 848.637L1776.94 848.243C1780.15 842.228 1777.43 817.118 1775.3 810.51C1775.12 809.966 1774.86 809.424 1774.6 808.914C1774.88 807.772 1775.05 806.544 1775.07 805.365C1775.24 795.356 1770.01 760.814 1763 753.748C1770.93 751.505 1777.31 748.497 1782.89 742.274C1795.16 728.589 1796.47 705.661 1795.53 688.128C1794.86 675.813 1791.69 644.325 1782.14 635.751Z"/>
	<path fill="#D3DCCE" transform="scale(0.966583 0.966583)" d="M1782.14 635.751L1805.72 635.764C1808.48 637.705 1819.98 651.768 1821.74 655.028C1809.44 676.066 1795.02 729.236 1790.5 754.4C1788.67 764.632 1789.22 776.993 1785.71 786.672C1783.87 791.736 1778.59 794.616 1776.36 799.332C1774.84 802.545 1776.88 805.797 1774.6 808.914C1774.88 807.772 1775.05 806.544 1775.07 805.365C1775.24 795.356 1770.01 760.814 1763 753.748C1770.93 751.505 1777.31 748.497 1782.89 742.274C1795.16 728.589 1796.47 705.661 1795.53 688.128C1794.86 675.813 1791.69 644.325 1782.14 635.751Z"/>
	<path fill="#FBF8F2" transform="scale(0.966583 0.966583)" d="M1146.72 608.497C1146.88 608.575 1147.07 608.633 1147.22 608.732C1154.83 613.453 1165.07 641.609 1167.94 650.186C1173.5 666.795 1189.25 731.437 1182.21 745.581Q1170.75 742.974 1159.19 740.82C1155.44 738.37 1147.79 736.834 1143.44 735.208C1136.51 732.62 1130.02 729.621 1123.47 726.182C1124.34 724.648 1124.74 723.082 1124.91 721.324C1126.27 707.928 1125.1 653.891 1117.65 644.872C1125.65 639.881 1141.23 616.787 1146.72 608.497Z"/>
	<path fill="#D3DCCE" transform="scale(0.966583 0.966583)" d="M989.908 599.332Q995.964 583.512 1001.04 567.351C1003.49 559.659 1005.16 550.22 1009.13 543.307C1010.82 543.014 1011.89 543.405 1013.48 543.96C1015.82 542.008 1015.06 540.8 1017.97 539.147L1017.48 539.185C1030.88 549.588 1042.75 557.495 1057.49 565.821C1060.78 567.68 1069.41 571.561 1071.07 574.708C1070.67 580.106 1060.68 594.47 1056.37 598.17C1055.94 598.538 1055.42 598.849 1054.93 599.131C1053.91 600.604 1053 601.805 1051.62 602.957C1051.61 603.397 1051.63 604.18 1051.51 604.655C1050.32 609.521 1033.98 631.207 1029.55 634.097L971.732 634.135C977.932 623.601 983.382 612.558 988.962 601.684L989.908 599.332Z"/>
	<path fill="#D3DCCE" transform="scale(0.966583 0.966583)" d="M1009.72 601.625C1016.19 601.627 1047.46 600.144 1051.3 602.639C1051.43 602.72 1051.51 602.851 1051.62 602.957C1051.61 603.397 1051.63 604.18 1051.51 604.655C1050.32 609.521 1033.98 631.207 1029.55 634.097L971.732 634.135C977.932 623.601 983.382 612.558 988.962 601.684L1009.72 601.625Z"/>
	<path fill="#49403C" transform="scale(0.966583 0.966583)" d="M1054.93 599.131C1053.91 600.604 1053 601.805 1051.62 602.957C1051.51 602.851 1051.43 602.72 1051.3 602.639C1047.46 600.144 1016.19 601.627 1009.72 601.625C1007.92 600.08 1004.87 600.594 1002.52 600.517C1006.17 600.211 1010.61 601.305 1013.71 599.333C1027.39 599.278 1041.29 599.767 1054.93 599.131Z"/>
	<path fill="#57524D" transform="scale(0.966583 0.966583)" d="M989.908 599.332C997.806 599.322 1005.83 598.998 1013.71 599.333C1010.61 601.305 1006.17 600.211 1002.52 600.517C1004.87 600.594 1007.92 600.08 1009.72 601.625L988.962 601.684L989.908 599.332Z"/>
	<path fill="#D3DCCE" transform="scale(0.966583 0.966583)" d="M970.311 635.989C989.488 635.73 1008.7 635.877 1027.88 635.823C1027.89 636.257 1027.95 637.026 1027.84 637.498C1026.32 644.209 980.789 699.058 974.169 706.508C968.576 712.803 962.899 719.17 956.151 724.255C954.24 725.407 952.227 726.667 949.968 726.911C938.977 728.101 913.557 718.803 900.206 717.18C925.876 691.948 950.145 665.895 970.311 635.989Z"/>
	<path fill="#937A71" transform="scale(0.966583 0.966583)" d="M1011.3 97.3603C1021.88 97.0973 1032.86 99.9972 1042.04 105.247C1053.32 111.695 1062.16 122.253 1065.41 134.951Q1065.65 135.857 1065.84 136.775Q1066.03 137.692 1066.17 138.617Q1066.31 139.543 1066.41 140.475Q1066.51 141.406 1066.56 142.342Q1066.61 143.277 1066.61 144.214Q1066.61 145.15 1066.56 146.086Q1066.52 147.021 1066.43 147.953Q1066.34 148.885 1066.2 149.812Q1066.06 150.738 1065.87 151.656Q1065.69 152.574 1065.45 153.482Q1065.22 154.389 1064.95 155.284Q1064.67 156.178 1064.35 157.058Q1064.02 157.938 1063.66 158.8Q1063.29 159.662 1062.88 160.505Q1062.47 161.347 1062.02 162.168Q1061.57 162.989 1061.08 163.786C1057.87 169.05 1053.08 174.286 1046.82 175.654C1044.43 176.175 1040.44 176.025 1038.31 174.698C1035.36 172.856 1028.71 162.982 1025.83 159.776C1019.63 152.879 1013.11 147.379 1005.33 142.353C1003.59 141.391 1001.95 140.315 1000.29 139.216C999.122 137.155 998.056 135.154 997.683 132.785C996.96 128.185 998.613 123.924 1001.31 120.248C1014.62 102.085 1019.6 113.381 1031.02 111.529L1031.1 109.246C1030.55 108.575 1030.12 108.036 1029.33 107.641C1025.01 105.495 1015.51 105.497 1011.02 107.071C991.05 114.055 998.532 124.512 993.803 135.291C990.709 136.234 987.943 134.498 984.948 133.408C983.91 129.861 982.793 126.084 982.408 122.408C981.886 117.412 983.623 111.674 986.751 107.762C992.749 100.262 1002.27 98.2852 1011.3 97.3603Z"/>
	<path fill="#D3DCCE" transform="scale(0.966583 0.966583)" d="M1812.51 537.498L1815.81 537.661C1825.74 542.583 1835.99 557.63 1842.41 566.354C1845.61 570.7 1855.38 582.579 1854.56 588.072C1854.7 588.683 1854.79 589.287 1854.82 589.916C1854.91 592.037 1836.1 644.195 1833.93 646.5C1834.09 647.175 1834.2 647.492 1834.25 648.144C1834.51 651.403 1832.98 653.895 1830.99 656.279C1827.26 652.214 1821.88 649.301 1817.95 645.164C1799.82 626.08 1799.83 584.255 1805.55 560.268C1807.19 553.416 1812.44 544.703 1812.52 537.96C1812.52 537.806 1812.51 537.652 1812.51 537.498Z"/>
	<path fill="#D3DCCE" transform="scale(0.966583 0.966583)" d="M1872.16 699.498C1873.86 699.799 1873.8 699.707 1874.83 701.086C1875.39 708.448 1880.49 744.013 1879.58 748.162C1879.59 748.402 1879.62 748.641 1879.63 748.881C1879.73 751.737 1872.94 760.945 1871.13 763.944C1861.62 779.738 1851.81 796.235 1846.12 813.835C1844.74 818.125 1839.44 841.484 1838.06 843.024L1833.28 840.501C1830.82 833.885 1826.84 828.001 1825.25 821.04C1817.27 786.107 1832.55 747.426 1853.79 720.012C1859.15 713.082 1867.41 707.323 1871.91 699.93C1872 699.788 1872.08 699.642 1872.16 699.498Z"/>
	<path fill="#D3DCCE" transform="scale(0.966583 0.966583)" d="M1929.75 530.5C1930.93 530.4 1932.01 530.694 1933.16 530.944C1933.41 532.074 1933.58 533.209 1933.59 534.369C1933.65 544.51 1928.14 583.203 1922.3 589.379C1909.69 592.424 1896.7 595.261 1884.4 599.391C1873.49 603.055 1862.95 607.917 1852.22 612.092L1851.33 612.56C1849.31 603.875 1878.43 554.494 1879.59 545.693C1886.56 543.811 1893.36 540.584 1900.22 538.273C1909.88 535.018 1919.82 532.784 1929.75 530.5Z"/>
	<path fill="#D3DCCE" transform="scale(0.966583 0.966583)" d="M1683.4 658.498C1685.06 658.502 1686.55 658.845 1688.13 659.37C1700.71 663.578 1746.41 686.199 1751.29 696.23C1752.34 697.287 1753.11 698.381 1753.57 699.804C1756.34 708.379 1762.55 740.346 1759.08 747.502C1748.22 735.529 1712.09 715.786 1695.82 712.319C1696.35 708.057 1690.08 692.752 1688.81 687.572C1686.51 678.2 1686.52 667.416 1683.4 658.498Z"/>
	<path fill="#D3DCCE" transform="scale(0.966583 0.966583)" d="M1964.97 698.499C1969.96 697.976 1975.14 698.127 1980.16 698.029C1980.35 698.84 1980.45 699.388 1980.39 700.222C1979.7 708.617 1966.19 737.504 1959.59 742.746C1934.64 743.626 1909.65 751.869 1886.16 759.831C1882.7 762.679 1876.7 763.796 1872.43 765.028C1880.57 759.291 1887.42 745.492 1893.58 737.309C1917.69 705.282 1926.79 703.884 1964.97 698.499Z"/>
	<path fill="#D3DCCE" transform="scale(0.966583 0.966583)" d="M1856.56 492.498L1859.95 492.583C1861.2 493.663 1862.18 494.775 1863.09 496.154C1868.29 504.045 1880.83 528.462 1878.82 537.663C1878.86 538.143 1878.89 538.592 1878.87 539.077C1878.72 542.456 1858.8 580.752 1856.27 583.129C1856.32 582.419 1856.35 582.457 1856.22 581.622C1855.62 577.809 1852.13 573.766 1849.17 571.499C1849.14 571.106 1849.14 570.763 1849.04 570.384C1846.86 561.842 1823.32 536.284 1815.52 532.08C1823.23 525.222 1829.21 515.317 1836.89 507.987C1842.77 502.379 1851.42 498.508 1856.56 492.498Z"/>
	<path fill="#D3DCCE" transform="scale(0.966583 0.966583)" d="M1935.38 774.5L1938.86 774.459L1939.44 775.348C1937.55 781.126 1932.51 786.156 1928.46 790.554C1907.37 813.489 1878.3 843.463 1845.06 844.876L1844.25 844.595C1839.6 838.177 1851.28 815.321 1851.55 806.632C1859.37 803.455 1867.36 797.288 1875.03 793.277C1893.75 783.49 1914.63 778.062 1935.38 774.5Z"/>
	<path fill="#D3DCCE" transform="scale(0.966583 0.966583)" d="M1684.24 602.498C1693.3 601.395 1706.71 608.598 1714.03 613.735C1730.86 625.559 1746.62 666.595 1750.15 687.262L1748.54 688.871C1742.66 679.261 1695.53 657.528 1682.78 653.681C1684.4 649.766 1685.54 606.511 1684.24 602.498Z"/>
	<path fill="#D3DCCE" transform="scale(0.966583 0.966583)" d="M1690.92 553.497C1691.25 553.444 1691.58 553.381 1691.91 553.336C1699.22 552.342 1722.62 569.332 1729.02 574.165C1737.23 580.368 1763.69 602.114 1765.12 612.447C1765.15 612.778 1765.19 613.109 1765.2 613.442C1765.37 617.215 1753.1 646.559 1750.44 649.501C1750.61 650.126 1750.66 650.175 1750.68 650.932C1750.8 655.543 1748.08 660.241 1745.14 663.539C1745.67 661.367 1745.63 659.874 1744.91 657.75C1737.5 635.993 1708.1 576.29 1688.32 566.745C1690.95 562.335 1691.85 558.591 1690.92 553.497Z"/>
	<path fill="#D3DCCE" transform="scale(0.966583 0.966583)" d="M1914.65 594.499C1917.02 594.167 1919.27 593.523 1921.49 594.667C1919.72 608.575 1906.49 626.181 1896.57 635.691C1881.17 650.464 1862.5 659.329 1840.98 658.9C1839.78 658.586 1838.55 657.956 1837.4 657.491C1834.53 648.008 1848.05 630.139 1847.16 619.68C1856.79 615.653 1865.68 610.372 1875.61 606.661C1888.4 601.88 1901.76 598.955 1914.65 594.499Z"/>
	<path fill="#D3DCCE" transform="scale(0.966583 0.966583)" d="M1767.6 617.498L1769.79 618.079C1772.81 620.982 1774.9 624.77 1776.85 628.442C1783.27 640.495 1794.72 676.951 1790.86 689.479C1789.98 692.914 1769.76 711.091 1765.8 713.5C1765.73 713.757 1765.68 714.024 1765.59 714.273C1764.66 716.625 1762.82 717.899 1760.66 718.986C1760.57 709.873 1754.06 676.801 1748.02 669.44C1749.81 667.522 1766.6 622.297 1767.6 617.498Z"/>
	<path fill="#FBF8F2" transform="scale(0.966583 0.966583)" d="M1107.82 459.498C1138.34 457.732 1176.45 462.015 1203.17 478.04C1203.39 478.708 1203.41 479.122 1203.28 479.816C1202.32 484.939 1200.32 498.127 1196.3 500.965C1165.4 486.554 1134.61 480.753 1100.62 484.398C1104.75 478.202 1102.82 469.98 1104.84 463.056C1105.51 460.751 1105.74 460.664 1107.82 459.498Z"/>
	<path fill="#D3DCCE" transform="scale(0.966583 0.966583)" d="M1926.31 465.5C1927.64 465.253 1929.17 464.846 1930.51 465.16C1932.51 465.634 1932.75 466.994 1933.67 468.657C1933.74 471.377 1933.71 473.447 1932.71 476.048C1929.7 482.898 1910.62 497.024 1904.66 503.606C1896.44 512.678 1890.59 525.292 1881.34 533.11C1881.5 532.388 1881.65 531.666 1881.71 530.925C1881.97 527.453 1880.15 524.999 1878.05 522.497C1878.24 521.739 1878.32 521.035 1878.24 520.252C1877.36 511.813 1868.01 494.69 1861.39 489.381C1869.67 486.757 1877.93 480.872 1886.01 477.261C1898.57 471.644 1912.91 468.488 1926.31 465.5Z"/>
	<path fill="#D3DCCE" transform="scale(0.966583 0.966583)" d="M1682.58 771.499C1683.4 771.583 1684.09 771.764 1684.87 772.017C1708.93 779.831 1734.47 806.241 1745.79 828.349C1747.97 832.612 1752.91 842.548 1751.45 847.073C1748.24 849.283 1739.1 848.083 1735.11 848.028C1735.07 847.815 1735.03 847.6 1734.98 847.389C1734.04 843.539 1693.11 802.184 1686.92 798.268C1688.81 791.484 1684.26 778.531 1682.58 771.499Z"/>
	<path fill="#FBF8F2" transform="scale(0.966583 0.966583)" d="M935 486.565C955.791 492.523 977.13 494.243 997.514 502.021C1001.44 516.128 1007.94 523.934 1011.72 535.549L1010.81 536.643L1008.57 535.364Q1006.27 534.016 1003.92 532.74Q1001.57 531.464 999.191 530.262Q996.808 529.059 994.388 527.93Q991.969 526.801 989.516 525.748Q987.063 524.694 984.578 523.717Q982.094 522.74 979.58 521.84Q977.067 520.939 974.527 520.117Q971.986 519.295 969.422 518.552Q966.858 517.809 964.272 517.145Q961.686 516.481 959.081 515.898Q956.475 515.314 953.853 514.811Q951.231 514.308 948.595 513.887Q945.959 513.465 943.311 513.125Q940.663 512.785 938.005 512.527Q935.348 512.269 932.684 512.093Q930.02 511.917 927.352 511.823C930.241 503.513 932.574 495.019 935 486.565Z"/>
	<path fill="#D3DCCE" transform="scale(0.966583 0.966583)" d="M1955.47 746.5L1957.29 747.148C1957.33 747.488 1957.42 748.011 1957.38 748.379C1956.78 753.597 1947.42 766.646 1943.34 769.835C1912.2 772.79 1885.05 783.624 1857.75 798.21L1857.17 797.984C1859.47 788.975 1867.69 781.016 1869.46 771.979C1897.51 758.549 1924.74 750.691 1955.47 746.5Z"/>
	<path fill="#D3DCCE" transform="scale(0.966583 0.966583)" d="M1989.7 642.5C1991.14 642.359 1992.19 642.464 1993.62 642.726L1994.7 645.212C1994.25 647.881 1993.84 649.942 1992.37 652.294C1987.65 656.38 1979.25 659.007 1973.57 661.938Q1964.58 666.658 1956.25 672.454C1942.7 681.788 1931.38 694.616 1917.87 703.502L1917.48 704.188L1916.57 704.365C1912.41 693.538 1920.93 678.384 1916.99 667.828C1924.71 665.303 1932.61 660.359 1940.25 657.216C1956.24 650.635 1972.82 646.11 1989.7 642.5Z"/>
	<path fill="#937A71" transform="scale(0.966583 0.966583)" d="M638.296 700.275L639.313 700.251C649.717 700.051 659.138 703.562 666.609 710.881Q667.346 711.61 668.047 712.374Q668.747 713.138 669.409 713.936Q670.071 714.734 670.693 715.563Q671.315 716.392 671.896 717.251Q672.476 718.11 673.014 718.996Q673.552 719.882 674.045 720.794Q674.539 721.706 674.987 722.641Q675.435 723.576 675.836 724.531Q676.238 725.487 676.592 726.461Q676.946 727.436 677.251 728.426Q677.557 729.417 677.814 730.421Q678.071 731.426 678.278 732.441Q678.485 733.457 678.641 734.482Q678.798 735.507 678.904 736.538Q679.011 737.569 679.066 738.604Q679.122 739.639 679.126 740.676C679.058 753.221 673.282 761.645 664.682 770.028C662.636 767.942 661.018 765.451 659.317 763.081C660.553 755.585 661.266 748.253 657.872 741.131C654.719 734.513 648.833 729.055 641.958 726.61C638.354 720.907 629.802 712.714 627.802 708.108C626.83 705.871 626.919 705.466 627.75 703.29C630.731 701.072 634.715 700.832 638.296 700.275Z"/>
	<path fill="#D3DCCE" transform="scale(0.966583 0.966583)" d="M1628.5 761.498C1633.43 761.871 1638.61 765.975 1642.68 768.564C1653.81 775.641 1705.29 814.219 1707.58 824.502C1703.18 825.383 1666.58 816.434 1656.52 815.729C1656.58 813.393 1631.35 765.485 1628.5 761.498Z"/>
	<path fill="#D3DCCE" transform="scale(0.966583 0.966583)" d="M1910.58 671.498L1913.04 671.929C1914.43 675.272 1912.37 706.425 1911.01 710.089C1910.43 714.354 1888.81 737.072 1884.48 742.118L1882.28 741.502C1883.1 736.679 1879.1 699.157 1877.54 694.547C1883.22 691.754 1906.69 675.524 1910.58 671.498Z"/>
	<path fill="#937A71" transform="scale(0.966583 0.966583)" d="M864.374 217.87C865.602 217.998 866.061 218.301 867.144 218.861Q867.091 220.556 867.126 222.251C867.69 247.53 884.762 270.111 902.321 286.857C897.943 286.225 893.385 285.775 889.544 283.424C873.918 273.861 862.896 259.569 858.543 241.719C859.167 238.706 860.257 235.657 858.548 232.848L857.03 232.655C855.286 235.265 855.135 238.422 855.163 241.481C855.315 257.963 868.189 270.2 879.069 281.015C875.207 279.558 871.231 278.147 867.538 276.299C858.06 271.556 850.959 263.495 847.67 253.422C845.23 245.948 844.207 236.98 847.988 229.769C851.693 222.701 857.061 220.143 864.374 217.87Z"/>
	<path fill="#D3DCCE" transform="scale(0.966583 0.966583)" d="M1990.42 657.5L1991.68 658.817C1992.09 668.52 1986.97 686.469 1981.94 694.676C1963.4 694.012 1946.1 697.523 1928.21 701.872L1927.53 701.356C1928.22 698.647 1932.52 695.856 1934.65 693.99C1953.71 677.333 1969.67 670.071 1990.42 657.5Z"/>
	<path fill="#D3DCCE" transform="scale(0.966583 0.966583)" d="M1659.86 820.498C1669.86 818.599 1703.11 827.286 1713.44 830.682C1713.67 830.823 1713.9 830.959 1714.12 831.103C1718.14 833.681 1727.88 843.132 1728.73 847.501C1721.93 849.946 1687.47 846.295 1677.86 845.909C1676.89 841.192 1663.79 824.255 1659.86 820.498Z"/>
	<path fill="#D3DCCE" transform="scale(0.966583 0.966583)" d="M1762.37 601.499C1773.02 599.347 1786.15 600.754 1797.05 600.76C1797.56 601.422 1798.04 602.109 1798.42 602.855C1799.98 605.889 1805.32 627.963 1805.16 631.392C1805.12 632.25 1804.5 633.597 1804.25 634.46C1797.63 635.593 1789.36 634.551 1782.57 634.464C1782.58 634.219 1782.61 633.975 1782.61 633.73C1782.69 627.871 1766.81 605.728 1762.37 601.499Z"/>
	<path fill="#D3DCCE" transform="scale(0.966583 0.966583)" d="M1931.35 503.499L1934.44 503.517L1935.27 504.698C1936.11 511.016 1935.89 519.153 1933.58 525.156C1933.31 525.328 1889.44 538.039 1885.38 539.28L1885.06 539.393L1884.25 538.799C1887.52 531.532 1896.9 522.818 1898.18 515.515C1905.65 514.378 1924.74 507.667 1931.35 503.499Z"/>
	<path fill="#D3DCCE" transform="scale(0.966583 0.966583)" d="M1788.58 696.497C1789.95 696.58 1790.48 696.897 1791.57 697.708C1791.66 698.376 1791.73 699.037 1791.79 699.708C1792.76 712.498 1788.52 730.074 1780.12 739.798C1775.9 744.683 1770.12 748.062 1763.62 748.501C1765.2 742.715 1763.55 729.852 1760.6 724.631C1765.58 721.689 1785.51 701.451 1788.58 696.497Z"/>
	<path fill="#D3DCCE" transform="scale(0.966583 0.966583)" d="M1699.87 719.497C1701.13 719.276 1702.4 719.151 1703.66 719.411C1714.9 721.722 1747.91 739.35 1754.79 749.031L1754.33 751.501C1753.69 751.707 1753.19 751.864 1752.51 751.913C1735.93 753.102 1721.18 742.341 1710.32 730.986C1706.9 727.403 1704.09 723.288 1700.4 719.964L1699.87 719.497Z"/>
	<path fill="#D3DCCE" transform="scale(0.966583 0.966583)" d="M1628.27 757.187C1643.73 758.864 1663.37 761.816 1677.21 769.084C1677.55 769.528 1677.69 769.686 1677.95 770.138C1680.23 774.06 1681.59 780.809 1680.38 785.156C1681.59 787.338 1683.13 789.361 1682.67 791.936C1680.19 791.965 1678.73 790.457 1676.87 789.018C1671.02 780.617 1638.59 760.324 1628.27 757.187Z"/>
	<path fill="#D3DCCE" transform="scale(0.966583 0.966583)" d="M1688.42 572.498C1689.38 572.647 1690.46 572.618 1691.24 573.222C1697.42 578.034 1716.89 603.306 1717.98 611.061L1716.23 611.502C1708.36 604.48 1694.78 599.921 1684.58 597.525C1684.69 597.405 1684.79 597.29 1684.89 597.165C1688.23 592.837 1689.02 577.978 1688.42 572.498Z"/>
	<path fill="#D3DCCE" transform="scale(0.966583 0.966583)" d="M1126.62 733.107C1133.63 735.463 1152.5 741.206 1157.68 744.883C1160.99 745.246 1164.88 745.279 1167.76 747.022C1164.63 748.679 1160.21 748.21 1156.72 748.15C1153.3 750.159 1131.35 750.565 1125.92 750.963C1126.06 750.76 1126.2 750.562 1126.33 750.353C1128.87 746.137 1127.59 737.669 1126.62 733.107Z"/>
	<path fill="#D3DCCE" transform="scale(0.966583 0.966583)" d="M1932.38 482.499L1934.52 483.291C1935.82 487.93 1935.37 492.76 1934.03 497.333C1930.47 501.437 1913.38 506.503 1907.39 508.684L1906.49 508.081C1914 498.681 1925.51 492.129 1932.38 482.499Z"/>
	<path fill="#EAD6C6" transform="scale(0.966583 0.966583)" d="M739.309 768.04C748.019 759.765 756.841 751.941 766.675 745.011L768.444 748.685C766.111 751.641 766.753 753.534 765.635 756.737C765.026 758.483 742.198 766.793 739.309 768.04Z"/>
	<path fill="#D3DCCE" transform="scale(0.966583 0.966583)" d="M1185.85 720.489C1186.93 720.774 1187.64 721.369 1188.18 722.358C1191.07 727.654 1196.13 740.78 1194.24 746.312L1189.89 746.752C1184.24 741.729 1188.32 727.821 1185.85 720.489Z"/>
	<path fill="#EAD6C6" transform="scale(0.966583 0.966583)" d="M832.123 744.323C835.493 742.671 839.071 741.414 842.574 740.072C846.016 740.407 850.031 740.423 853.259 741.639L835.721 746.496C832.196 748.775 829.663 750.201 825.301 749.372L824.599 748.085C826.349 745.666 829.404 745.135 832.123 744.323Z"/>
	<path fill="#FBF8F2" transform="scale(0.966583 0.966583)" d="M783.08 915.84L784.536 916.137C786.274 917.921 787.628 919.071 788.047 921.642C785.076 923.545 780.307 922.727 776.75 922.709C775.015 922.885 773.578 922.737 771.861 922.46C773.724 919.561 779.941 917.407 783.08 915.84Z"/>
	<path fill="#49403C" transform="scale(0.966583 0.966583)" d="M334.967 263.069C353.277 261.792 519.121 261.369 525.18 263.886C524.425 276.809 525.095 290.155 525.099 303.117L525.155 380.314L525.104 601.007L333.637 601.079C334.495 569.324 333.869 537.429 333.855 505.66L333.937 357.541C333.87 327.45 332.373 296.641 333.783 266.62C333.847 265.264 334.276 264.231 334.967 263.069Z"/>
	<path fill="#FBF8F2" transform="scale(0.966583 0.966583)" d="M427.794 265.229L522.57 265.157C522.739 376.208 524.246 487.487 522.512 598.52L458.998 598.511C448.908 598.516 437.432 597.509 427.526 598.967C429.068 588.014 428.042 575.759 428.004 564.648L427.89 499.506L427.794 265.229Z"/>
	<path fill="#FBF8F2" transform="scale(0.966583 0.966583)" d="M336.299 265.074Q361.591 265.246 386.883 265.163C395.346 265.152 405.015 264.253 413.307 265.59C411.971 376.552 413.454 487.626 413.004 598.605C387.416 598.947 361.78 598.61 336.186 598.592L336.23 379.517C336.232 341.439 335.204 303.124 336.299 265.074Z"/>
	<path fill="#FBF8F2" transform="scale(0.966583 0.966583)" d="M416.024 265.373C419.311 265.346 421.421 264.797 424.207 266.627C424.998 268.094 425.609 269.526 425.707 271.207C426.044 277.004 425.088 283.022 425.127 288.87Q425.472 319.225 425.396 349.581L425.433 536.722C425.487 551.952 423.812 585.771 426.398 599.114C422.949 598.525 419.1 599.169 416.032 597.22C414.389 588.576 415.755 577.33 415.768 568.414L415.834 500.061C415.886 421.898 414.528 343.511 416.024 265.373Z"/>
	<path fill="#49403C" transform="scale(0.966583 0.966583)" d="M425.142 142.309L525.178 142.317L525.229 239.115L425.105 239.023L425.142 142.309Z"/>
	<path fill="#FBF8F2" transform="scale(0.966583 0.966583)" d="M427.59 144.935L522.827 144.707L522.499 236.665Q475.11 236.883 427.721 236.529L427.59 144.935Z"/>
	<path fill="#49403C" transform="scale(0.966583 0.966583)" d="M1953.77 598.981C1958.69 599.035 1965.12 598.448 1969.63 600.44C1964.75 602.755 1956.05 601.913 1950.6 601.891L1952.59 599.296L1953.77 598.981Z"/>
</svg>
