<?xml version="1.0" encoding="utf-8" ?>
<svg xmlns="http://www.w3.org/2000/svg" xmlns:xlink="http://www.w3.org/1999/xlink" width="1024" height="1024">
	<path transform="scale(2 2)" d="M296.855 78.5587C298.714 74.7926 300.866 73.4552 304.756 75.7902C305.311 76.6976 305.827 77.5742 306.234 78.5587C303.84 90.2647 294.511 99.2769 289.474 109.086C291.756 117.181 292.542 124.814 291.316 133.187C289.307 142.367 285.596 150.598 278.807 157.269L279.28 157.304C282.676 157.543 286.105 157.334 289.507 157.286C327.103 156.758 360.475 170.349 380.236 202.872C386.749 220.653 389.462 233.725 388.945 252.922C388.327 275.838 382.926 288.51 400.013 307.559C402.232 310.033 405.123 312.425 406.458 315.515C413.45 331.699 385.365 337.037 384.774 338.134C382.642 342.09 388.235 346.172 379.753 355.678C381.436 366.931 379.706 371.044 372.215 378.753C372.209 395.62 367.507 411.003 347.65 410.809C329.513 410.632 295.822 398.5 278.807 388.284C284.703 398.288 281.83 408.974 282.185 419.687C283.136 448.379 313.684 448.143 335.346 450.935C355.719 453.56 376.155 455.539 396.489 458.449C387.003 464.12 362.107 461.278 351.498 460.573C330.751 459.194 297.94 459.29 282.157 443.981C269.482 427.496 275.028 418.969 273.212 401.788C269.067 362.57 234.378 357.348 205.556 341.763C192.666 334.792 187.212 329.177 176.662 320.577C172.251 316.257 166.507 318.947 167.066 325.006C168.112 336.327 191.061 356.768 199.634 362.916C204.373 366.315 209.482 368.741 207.617 375.435C199.158 386.447 189.311 379.492 179.6 374.507C155.699 362.238 138.262 343.173 127.704 318.678C126.414 315.686 125.251 312.543 123.687 309.684L123.509 309.362C119.604 305.528 114.225 307.634 114.432 313.418C114.602 318.169 115.847 323.134 116.747 327.808C123.177 361.194 138.186 394.661 168.71 412.159C183.581 422.821 223.322 434.563 220.645 458.449C218.09 461.906 215.344 461.597 212.736 458.449C212.194 457.285 211.932 456.019 211.526 454.803C207.059 441.429 192.749 435.398 181.108 429.57C135.013 406.494 117.369 376.857 107.483 326.487C106.295 320.433 104.254 313.518 106.381 307.493C108.917 300.312 117.15 296.099 124.397 298.969C131.907 301.943 133.22 308.689 136.019 315.358C147.765 343.346 167.606 360.133 195.629 371.581C190.246 367.01 184.453 362.926 179.178 358.202C131.68 315.67 112.83 248.552 147.534 191.536C149.314 188.611 151.502 185.836 152.976 182.743L153.134 182.404C153.581 177.401 152.993 172.343 153.063 167.327C153.713 120.748 184.647 94.8796 228.051 83.7748C230.37 78.4686 242.334 51.492 247.642 49.5552C249.888 48.7359 252.554 50.0122 253.294 52.2951C254.303 55.4105 250.669 59.5085 249.14 61.9264C243.557 70.7568 240.772 79.1264 235.975 87.9111C233.781 91.928 228.941 92.6812 224.916 93.8934C168.813 110.788 151.14 150.814 167.768 205.926C169.183 210.618 170.215 217.674 176.662 215.308C181.585 208.838 177.8 203.094 176.508 196.153C173.995 182.643 175.301 168.046 181.212 155.585C184.221 149.241 189.535 149.931 191.334 156.259L191.229 156.596C189.904 160.749 187.769 164.492 186.614 168.748C184.876 175.155 182.163 207.979 193.941 206.487C198.222 203.547 196.97 197.513 197.773 192.968C199.732 181.876 215.337 152.862 227.965 152.991C230.247 153.015 232.62 155.589 232.378 157.88C232.031 161.167 211.657 172.034 207.834 192.564C207.305 195.403 206.262 198.316 208.52 200.66C210.408 202.207 212.151 201.385 213.778 199.792C226.402 187.523 234.796 178.594 249.901 167.827C267.541 155.252 288.754 141.687 281.774 115.943C281.033 113.212 279.642 110.7 278.897 107.96L278.807 107.621C278.837 107.563 278.866 107.505 278.897 107.447L279.054 107.16C280.782 103.958 283.622 101.279 285.647 98.2287C289.815 91.9539 293.36 85.2252 296.855 78.5587ZM269.629 168.529C269.669 167.357 270.1 165.075 268.492 166.33L268.561 166.184C256.397 174.991 244.164 183.436 232.841 193.356C224.694 200.492 217.157 216.239 204.113 208.986C200.215 215.138 194.651 217.706 187.648 215.308C184.057 224.876 174.845 227.551 166.118 222.452C159.345 215.954 157.791 204.775 155.32 196.031C131.16 232.3 135.502 284.98 158.757 320.577C164.701 306.152 175.917 306.852 186.227 316.24C188.112 239.708 277.849 233.715 293.67 167.494C285.726 167.089 277.566 168.05 269.629 168.529ZM304.756 167.494L304.687 167.724C303.933 170.342 303.695 173.1 302.901 175.702C285.122 233.91 217.706 244.358 200.91 294.479C198.443 301.841 194.491 319.15 198.427 325.907C200.615 329.664 216.321 337.483 220.645 338.952L222.811 339.87C229.792 295.367 258.837 280.015 290.255 252.441C317.358 228.654 327.582 207.528 327.261 172.671C320.72 170.798 309.884 169.422 304.756 167.494ZM338.386 176.998C338.158 211.705 325.901 232.618 301.627 256.57C276.109 281.749 234.108 303.042 233.218 344.772C244.255 349.117 255.588 355.221 264.286 363.382C267.444 366.346 269.847 370.537 273.377 373.011C288.581 383.667 315.15 391.781 333.888 397.365C344.066 400.625 358.009 404.663 361.809 390.811C363.145 385.943 361.563 380.633 363.084 375.919C365.42 368.677 373.517 370.491 370.969 359.433C365.661 359.94 340.587 358.774 339.694 351.917C339.196 348.093 348.566 351.297 350.14 351.635C356.944 353.095 364.469 353.55 370.901 350.384C376.315 347.719 375.323 345.04 375.253 339.871C375.019 322.652 394.226 331.122 397.937 320.919C398.945 318.146 392.495 313.026 390.915 310.989C380.39 297.413 376.689 286.735 378.563 270.434C380.688 251.944 380.332 232.609 374.836 214.735C369.019 195.817 356.158 185.448 338.386 176.998Z"/>
	<path fill="#FECA04" transform="scale(2 2)" d="M271.249 64.3494C278.694 67.8462 290.242 74.156 296.855 78.5587C293.36 85.2252 289.815 91.9539 285.647 98.2287C283.622 101.279 280.782 103.958 279.054 107.16L278.897 107.447C278.866 107.505 278.837 107.563 278.807 107.621L278.897 107.96C279.642 110.7 281.033 113.212 281.774 115.943C288.754 141.687 267.541 155.252 249.901 167.827C234.796 178.594 226.402 187.523 213.778 199.792C212.904 183.407 237.8 167.467 237.833 163.367C237.849 161.459 235.521 158.242 233.391 158.29C230.344 167.304 231.983 162.933 224.722 169.659C216.646 177.141 209.446 189.549 208.52 200.66C206.262 198.316 207.305 195.403 207.834 192.564C211.657 172.034 232.031 161.167 232.378 157.88C232.62 155.589 230.247 153.015 227.965 152.991C215.337 152.862 199.732 181.876 197.773 192.968C196.97 197.513 198.222 203.547 193.941 206.487C191.835 192.72 186.968 184.794 192.495 169.178C194.361 163.905 198.27 159.631 191.334 156.259C189.535 149.931 184.221 149.241 181.212 155.585C175.301 168.046 173.995 182.643 176.508 196.153C177.8 203.094 181.585 208.838 176.662 215.308C161.093 173.108 170.563 136.073 211.786 117.029C222.598 112.034 235.293 109.865 244.775 102.431C258.7 91.5128 263.591 79.2728 271.103 64.6301L271.249 64.3494Z"/>
	<path fill="#FECA04" transform="scale(2 2)" d="M291.316 133.187C327.253 133.469 360.892 156.704 376.551 188.569C378.405 192.341 381.641 198.568 380.236 202.872C360.475 170.349 327.103 156.758 289.507 157.286C286.105 157.334 282.676 157.543 279.28 157.304L278.807 157.269C285.596 150.598 289.307 142.367 291.316 133.187Z"/>
	<path fill="#FECA04" transform="scale(2 2)" d="M269.629 168.529L269.326 168.822C256.148 181.772 240.568 192.39 228.362 206.304C223.371 211.994 220.192 217.375 212.736 219.851C209.998 219.262 204.949 215.887 203.509 217.004C199.776 219.898 202.836 231.066 188.854 223.571C182.717 235.64 170.534 234.987 166.118 222.452C174.845 227.551 184.057 224.876 187.648 215.308C194.651 217.706 200.215 215.138 204.113 208.986C217.157 216.239 224.694 200.492 232.841 193.356C244.164 183.436 256.397 174.991 268.561 166.184L268.492 166.33C270.1 165.075 269.669 167.357 269.629 168.529Z"/>
	<path transform="scale(2 2)" d="M364.472 271.642C355.211 283.045 333.258 275.29 322.17 270.702C318.486 269.178 304.706 264.956 307.16 260.215C310.606 259.938 315.012 261.994 318.359 262.96C337.332 268.438 345.96 269.118 364.208 264.317C369.231 262.995 365.768 269.764 364.472 271.642Z"/>
	<path fill="#FECA04" transform="scale(2 2)" d="M123.509 309.362L123.687 309.684C125.251 312.543 126.414 315.686 127.704 318.678C138.262 343.173 155.699 362.238 179.6 374.507C189.311 379.492 199.158 386.447 207.617 375.435C209.409 375.07 211.274 371.464 211.319 369.866C211.437 365.703 203.468 360.649 200.799 358.184C194.888 352.725 166.745 328.557 176.662 320.577C187.212 329.177 192.666 334.792 205.556 341.763C234.378 357.348 269.067 362.57 273.212 401.788C275.028 418.969 269.482 427.496 282.157 443.981C262.243 448.049 240.385 453.485 220.645 458.449C223.322 434.563 183.581 422.821 168.71 412.159C168.497 411.016 165.502 408.969 164.555 408.166C140.889 388.096 129.407 357.964 123.081 328.44C122.016 323.468 118.174 312.8 123.509 309.362Z"/>
</svg>
