<?xml version="1.0" encoding="utf-8" ?>
<svg xmlns="http://www.w3.org/2000/svg" xmlns:xlink="http://www.w3.org/1999/xlink" width="1024" height="1024">
	<path transform="scale(2 2)" d="M149.792 202.94L149.686 202.917C146.703 195.025 160.291 174.568 161.59 165.846C167.121 128.708 99.7416 102.723 146.492 68.6627L146.829 68.8922C145.313 73.8048 139.777 78.933 137.899 87.5383C132.221 113.567 180.284 130.901 167.468 167.781C163.102 180.346 152.712 189.606 149.792 202.94Z"/>
	<path transform="scale(2 2)" d="M298.388 110.262C300.743 108.168 302.409 104.784 304.258 102.227C313.326 89.6863 327.023 79.3324 342.928 78.618C355.141 78.4749 365.247 83.9835 374.168 91.9896C391.857 107.863 407.75 131.658 396.677 155.708C385.698 179.554 349.205 194.305 325.781 202.94C351.253 217.879 370.901 230.348 381.982 260.315C383.281 263.829 383.906 267.778 385.49 271.139C392.263 285.5 412.343 305.65 425.087 314.629C435.946 322.28 432.523 324.58 424.504 332.864C404.877 353.14 377.572 360.917 351.695 369.635C350.378 371.236 349.318 373.203 348.182 374.944L341.3 385.365C336.878 391.999 332.038 398.35 327.622 404.984C328.236 412.176 330.08 419.94 332.748 426.619C334.238 430.347 343.298 443.447 332.063 443.579C320.352 443.717 316.821 401.327 317.014 393.21C294.87 412.08 285.958 424.902 255.831 424.988C237.496 425.041 230.109 421.851 215.314 411.535C206.654 405.277 198.779 398.647 191.088 391.263C194.416 404.569 192.088 431.361 184.316 440.679C182.387 442.992 178.504 444.043 176.104 441.788C172.293 438.206 176.31 432.421 177.663 428.651C180.507 420.729 182.341 412.293 182.248 403.848C174.92 391.961 167.197 380.297 159.799 368.445C155.192 366.755 150.14 365.783 145.424 364.366C123.593 357.807 102.041 346.798 85.7346 330.697C75.272 320.366 80.305 320.247 88.8979 313.496C104.249 301.435 124.6 278.416 130.152 258.885C139.619 225.588 177.011 201.234 208.779 193.132C211.832 192.353 215.001 191.855 217.997 190.885L218.272 190.794C211.385 186.223 207.174 179.585 207.252 171.048C183.575 159.078 182.58 124.699 205.089 109.941C228.903 94.3269 262.474 97.206 288.251 106.763C291.414 107.936 294.724 109.557 298.026 110.196L298.388 110.262ZM215.314 257.09C207.037 251.907 190.756 269.237 186.72 275.752C171.845 299.768 175.714 332.526 182.776 358.599C184.902 366.449 185.413 367.987 190.708 374.528C200.535 386.666 220.286 404.893 235.302 410.637C238.676 415.231 259.908 414.47 265.504 413.96C283.717 412.299 322.41 376.86 327.984 362.78C333.467 348.931 333.74 314.183 332.419 299.816C290.66 295.329 249.358 282.135 215.314 257.09ZM128.601 296.706C127.963 294.145 127.312 291.382 127.128 288.742C124.009 291.283 119.315 298.37 116.448 301.818C109.743 309.883 101.946 317.143 93.5378 323.409C95.2643 324.779 96.9686 326.159 98.6289 327.609C117.87 344.899 132.363 345.568 151.805 355.634C145.192 337.051 129.535 317.419 128.601 296.706ZM342.928 89.6195C298.72 92.6735 306.61 168.636 234.387 174.035C229.009 174.437 223.645 174.016 218.272 174.247C221.258 186.417 245.847 180.887 254.292 178.485C288.16 168.854 314.775 141.759 335.218 114.3C337.986 110.582 346.344 96.034 349.813 109.586L349.845 109.704C346.278 125.726 306.239 163.652 289.363 174.247C284.527 177.732 281.182 178.708 276.671 181.252C302.53 180.147 337.607 162.094 357.435 144.272C360.338 141.664 362.901 138.494 365.905 136.049C369.522 133.105 374.763 134.497 374.758 139.674C374.753 143.443 368.352 148.714 365.627 151.261C346.461 169.182 316.611 184.291 290.758 190.794C298.296 192.657 300.865 192.481 308.649 191.415C339.252 187.225 410.418 163.943 384.004 121.517C375.61 108.035 361.013 88.3107 342.928 89.6195ZM242.317 110.262C229.365 111.259 213.824 114.011 204.921 124.485C196.586 134.29 198.225 150.663 208.149 158.853C216.104 165.418 237.032 163.81 247.313 160.834C267.82 155.362 283.367 139.405 292.463 120.649C278.842 112.336 257.764 110.158 242.317 110.262ZM247.313 197.717C241.28 198.554 235.28 198.763 229.252 199.832C182.129 208.193 130.893 238.133 138.527 292.801C142.476 321.071 161.077 347.597 174.78 372.024C172.498 363.462 169.936 354.814 168.288 346.109C161.585 310.693 166.151 263.339 203.933 247.373C201.784 245.221 177.657 220.867 193.109 221.145C197.443 221.223 200.073 227.253 202.331 230.225C221.99 256.109 266.268 274.807 296.792 282.756C307.782 285.414 319.19 287.722 330.464 288.742C327.837 267.225 311.098 243.64 290.2 236.932C284.786 235.194 275.044 231.208 284.445 225.25C296.016 225.083 310.655 234.437 318.785 242.387C345.849 268.855 347.602 314.032 341.572 349.475L337.847 371.145C371.878 316.47 400.687 261.545 333.327 219.679C305.798 202.569 279.382 197.065 247.313 197.717ZM384.584 289.681C380.331 320.131 371.191 330.758 360.063 355.634C368.461 353.308 376.606 349.692 384.584 346.223C396.443 340.247 409.635 333.655 418.404 323.409C409.276 316.719 400.914 309.248 393.478 300.692C390.444 297.2 387.863 292.896 384.584 289.681Z"/>
	<path transform="scale(2 2)" d="M128.601 240.782C91.1959 224.458 85.936 198.544 103.219 163.955C114.143 142.092 127.832 121.071 107.049 99.9667C105.184 98.0729 103.111 96.4271 101.227 94.5755L100.867 94.2169C112.411 95.9247 124.769 112.991 125.768 124.663C129.247 165.302 75.561 194.452 119.858 232.868C121.441 234.241 128.567 239.025 128.601 240.782Z"/>
	<path fill="#FECA04" transform="scale(2 2)" d="M215.314 257.09C249.358 282.135 290.66 295.329 332.419 299.816C333.74 314.183 333.467 348.931 327.984 362.78C322.41 376.86 283.717 412.299 265.504 413.96C259.908 414.47 238.676 415.231 235.302 410.637C233.182 408.35 230.253 406.601 227.983 404.369C198.274 375.164 189.24 362.25 189.209 318.399C189.192 294.596 194.156 271.961 215.314 257.09ZM201.189 304.055C194.485 305.351 194.747 311.525 200.134 315.05C211.759 322.658 222.484 321.41 235.302 319.083C240.337 315.447 241.849 308.05 235.955 307.799C233.252 307.684 230.353 309.055 227.777 309.788C211.908 314.304 207.126 304.391 201.189 304.055ZM311.624 305.546C309.452 306.214 307.437 307.302 305.346 308.182C290.3 314.514 278.935 306.555 274.578 308.528C268.719 311.181 272.162 317.192 277.557 319.083C286.189 322.659 312.795 322.005 316.68 312.548C318.233 308.767 315.241 305.652 311.624 305.546ZM259.463 372.024C258.123 372.308 257.038 373.387 255.886 373.641C254.899 373.858 252.826 371.761 250.733 372.167C247.157 372.859 237.028 378.561 233.061 380.402C239.625 381.803 244.261 386.722 250.571 388.36C264.089 391.383 267.198 383.507 277.557 380.402C274.475 377.931 263.803 371.982 259.463 372.024Z"/>
	<path fill="#FECA04" transform="scale(2 2)" d="M360.063 355.634C371.191 330.758 380.331 320.131 384.584 289.681C387.863 292.896 390.444 297.2 393.478 300.692C400.914 309.248 409.276 316.719 418.404 323.409C409.635 333.655 396.443 340.247 384.584 346.223C376.606 349.692 368.461 353.308 360.063 355.634Z"/>
	<path fill="#FECA04" transform="scale(2 2)" d="M98.6289 327.609C100.87 324.844 104.357 322.544 107.035 320.155C112.092 315.642 126.366 297.937 128.601 296.706C129.535 317.419 145.192 337.051 151.805 355.634C132.363 345.568 117.87 344.899 98.6289 327.609Z"/>
	<path transform="scale(2 2)" d="M235.302 319.083C222.484 321.41 211.759 322.658 200.134 315.05C194.747 311.525 194.485 305.351 201.189 304.055C207.126 304.391 211.908 314.304 227.777 309.788C230.353 309.055 233.252 307.684 235.955 307.799C241.849 308.05 240.337 315.447 235.302 319.083Z"/>
	<path transform="scale(2 2)" d="M277.557 319.083C272.162 317.192 268.719 311.181 274.578 308.528C278.935 306.555 290.3 314.514 305.346 308.182C307.437 307.302 309.452 306.214 311.624 305.546C315.241 305.652 318.233 308.767 316.68 312.548C312.795 322.005 286.189 322.659 277.557 319.083Z"/>
	<path transform="scale(2 2)" d="M233.061 380.402C237.028 378.561 247.157 372.859 250.733 372.167C252.826 371.761 254.899 373.858 255.886 373.641C257.038 373.387 258.123 372.308 259.463 372.024C263.803 371.982 274.475 377.931 277.557 380.402C267.198 383.507 264.089 391.383 250.571 388.36C244.261 386.722 239.625 381.803 233.061 380.402Z"/>
</svg>
