<?xml version="1.0" encoding="utf-8" ?>
<svg xmlns="http://www.w3.org/2000/svg" xmlns:xlink="http://www.w3.org/1999/xlink" width="1024" height="1024">
	<path transform="scale(2 2)" d="M373.251 339.842C373.312 293.653 345.658 292.754 309.042 280.72C292.368 275.24 277.162 262.838 272.344 245.423C258.876 251.662 249.038 251.95 236.001 245.423C230.543 266.974 222.523 263.366 230.154 241.138C220.563 233.729 212.901 224.137 206.683 213.794C196.942 229.441 176.719 243.827 158.832 248.002C145.64 251.081 122.555 250.195 110.53 242.468C109.074 241.533 109.467 240.941 111.079 241.112C133.013 243.45 150.81 246.224 171.006 231.431C176.464 227.432 182.726 221.84 182.923 214.603L182.783 214.295C180.589 209.573 170.775 208.182 166.242 205.821C151.236 198.005 138.591 182.801 145.021 165.077C150.435 150.154 165.991 142.969 179.345 136.56C180.983 95.3698 211.326 68.5003 252.772 70.2904C278.443 71.3991 299.819 84.9021 314.077 105.618C330.16 105.765 358.054 110.271 357.51 131.598C357.02 150.799 330.207 163.351 314.077 164.85C312.907 170.651 312.623 176.594 311.485 182.412C306.345 208.712 297.462 220.302 281.056 239.071C289.409 267.109 307.524 269.492 332.139 276.168C363.033 284.547 385.744 304.094 383.756 337.508C383.223 346.473 380.422 354.781 378.743 363.524C375.21 381.917 374.495 402.385 365.425 419.462C357.116 435.102 341.182 433.438 326.937 429.116C306.752 423.038 274.468 412.14 258.785 398.158C249.466 404.893 242.751 407.226 233.995 412.609C218.61 419.133 189.877 429.972 173.736 431.546C158.215 433.06 147.786 425.07 143.235 410.976C141.704 406.234 134.029 371.518 134.567 367.988L135.368 367.978C142.817 379.256 148.691 408.247 157.627 417.597C171.704 432.325 241.673 399.876 252.298 389.892C234.159 363.95 257.537 331.94 245.578 316.032C237.609 331.022 251.819 347.671 235.015 365.574C223.067 378.304 207.938 383.237 191.103 383.74C177.6 379.993 177.257 375.783 177.539 362.671C177.771 351.906 168.37 348.026 161.892 341.262C199.176 341.929 182.192 368.076 190.14 372.248C200.763 377.823 225.957 363.318 231.207 353.159C236.835 343.368 225.961 301.776 247.367 305.694C251.17 306.39 253.254 309.054 255.265 312.074C258.09 307.378 262.918 304.58 268.463 306.303C285.11 311.473 275.319 339.363 281.943 352.09C287.986 362.821 313.605 379.574 325.359 373.08C334.389 368.091 314.924 340.772 353.019 341.262C337.645 350.18 337.484 351.486 338.419 367.054C339.245 380.798 328.627 384.87 317.01 384.788C294.249 380.3 269.568 366.204 268.933 340.262C268.865 337.491 270.111 315.353 264.938 316.118C261.188 319.305 258.769 337.8 257.921 342.777C255.921 354.532 252.369 369.063 258.785 380.03C266.528 400.957 319.3 417.409 338.275 421.359C351.611 424.134 355.372 417.543 359.941 406.743L366.61 391.258C370.502 382.141 375.777 373.299 377.737 363.492C364.07 366.021 371.544 348.176 373.251 339.842ZM276.27 86.8648C260.691 79.7695 241.741 78.7474 225.638 84.8246C206.868 91.9084 189.757 111.629 189.99 132.543C192.863 131.82 195.619 130.709 198.323 129.51C216.057 122.018 237.867 116.405 245.785 96.911L246.761 94.4385C252.643 110.668 234.248 123.813 221.996 130.036C219.702 131.202 215.932 132.577 214.029 134.099C198.263 140.381 162.443 151.757 155.574 167.595C152.86 173.85 154.527 180.983 158.931 186.005C170.223 202.225 193.559 196.602 192.917 216.812C196.416 212.856 199.758 208.623 201.554 203.603C196.445 189.475 192.449 180.922 191.103 164.85C181.802 169.852 173.213 179.912 174.788 191.136L174.363 191.346C172.958 190.902 171.93 189.169 171.21 187.938C155.472 161.045 216.206 140.038 232.155 132.939C255.228 122.668 263.598 117.545 270.239 92.9494L270.498 92.8237C274.973 98.0694 270.339 110.147 268.257 115.699C279.492 123.735 290.54 117.557 300.891 125.443C310.021 132.397 312.633 143.572 314.077 154.346C325.707 152.873 337.371 146.989 344.646 137.684C356.175 117.529 319.232 115.992 308.334 115.663C295.889 115.289 281.752 113.411 276.27 100.325C283.955 102.467 292.032 103.907 299.979 104.622C294.813 97.2836 284.385 90.2549 276.27 86.8648ZM266.37 121.94C251.202 140.931 221.688 147.376 200.532 159.453C202.753 185.688 216.745 223.235 241.589 236.355C281.809 257.854 311.515 175.304 301.741 144.732C294.136 120.946 277.433 138.707 266.37 121.94Z"/>
	<path fill="#FECA04" transform="scale(2 2)" d="M276.27 86.8648C284.385 90.2549 294.813 97.2836 299.979 104.622C292.032 103.907 283.955 102.467 276.27 100.325L275.731 100.477C274.695 103.236 276.15 108.671 277.339 111.309C284.06 126.215 328.037 120.525 344.646 137.684C337.371 146.989 325.707 152.873 314.077 154.346C312.633 143.572 310.021 132.397 300.891 125.443C290.54 117.557 279.492 123.735 268.257 115.699C270.339 110.147 274.973 98.0694 270.498 92.8237L270.239 92.9494C263.598 117.545 255.228 122.668 232.155 132.939C216.206 140.038 155.472 161.045 171.21 187.938C171.93 189.169 172.958 190.902 174.363 191.346L174.788 191.136C173.213 179.912 181.802 169.852 191.103 164.85C192.449 180.922 196.445 189.475 201.554 203.603C199.758 208.623 196.416 212.856 192.917 216.812C193.559 196.602 170.223 202.225 158.931 186.005C159.009 184.964 158.819 183.91 158.788 182.865C158.205 163.586 177.891 155.04 191.985 146.89C194.34 145.528 213.617 134.793 214.029 134.099C215.932 132.577 219.702 131.202 221.996 130.036C234.248 123.813 252.643 110.668 246.761 94.4385L245.785 96.911C237.867 116.405 216.057 122.018 198.323 129.51C204.667 98.8763 239.559 81.2723 268.963 85.8079C271.325 86.1722 273.937 87.744 276.27 86.8648Z"/>
	<path transform="scale(2 2)" d="M266.37 175.463C264.006 174.093 260.098 171.907 262.001 168.597C263.566 165.875 270.72 169.75 273.543 170.147C281.242 171.231 282.247 168.04 288.325 166.505C299.588 165.42 287.251 185.992 266.37 175.463Z"/>
	<path transform="scale(2 2)" d="M243.251 175.463C229.122 184.932 209.088 171.772 220.372 166.505C223.827 166.32 228.123 170.494 232.85 170.56C236.436 170.61 248.685 164.177 247.814 170.359C247.526 172.405 244.724 174.277 243.251 175.463Z"/>
	<path transform="scale(2 2)" d="M353.019 228.137C345.025 229.399 338.236 205.225 344.646 201.445C352.661 204.145 359.062 222.053 353.019 228.137Z"/>
	<path transform="scale(2 2)" d="M369.432 229.842C361.946 224.027 371.796 207.601 379.935 204.524C386.523 204.645 379.581 227.555 369.432 229.842Z"/>
	<path transform="scale(2 2)" d="M339.44 238.133C329.56 240.279 314.817 228.051 320.868 223.271C328.778 222.97 346.321 232.264 339.44 238.133Z"/>
	<path transform="scale(2 2)" d="M383.687 243.25C380.764 242.671 371.124 242.948 376.065 237.121C379.85 232.658 388.664 230.344 394.278 229.842C415.753 230.363 393.67 242.593 383.687 243.25Z"/>
	<path fill="#FECA04" transform="scale(2 2)" d="M358.44 260.874C340.348 264.482 338.759 238.125 355.464 236.355C371.153 232.023 376.507 256.155 358.44 260.874Z"/>
	<path transform="scale(2 2)" d="M397.309 270.732C383.85 271.096 367.438 256.715 375.546 253.508C387.349 252.772 405.889 268.552 397.309 270.732Z"/>
	<path transform="scale(2 2)" d="M137.225 356.719C132.659 354.216 131.423 342.567 130.773 337.79C124.9 294.613 159.918 281.588 194.637 271.748C202.692 269.465 210.886 266.943 219.197 265.851C221.015 265.839 222.543 267.453 220.61 268.876C218.119 270.708 214.669 271.914 211.856 273.195C179.759 287.813 131.497 294.88 141.9 341.829C143.108 347.283 147.127 352.896 141.055 356.719C139.732 356.839 138.548 356.841 137.225 356.719Z"/>
	<path fill="#FECA04" transform="scale(2 2)" d="M281.943 352.09C286.993 347.994 291.252 345.159 295.625 340.052C305.511 328.507 311.898 312.205 326.098 305.417C344.24 296.745 362.655 311.927 369.131 328.334C370.627 332.123 371.459 336.169 373.251 339.842C371.544 348.176 364.07 366.021 377.737 363.492C375.777 373.299 370.502 382.141 366.61 391.258L359.941 406.743C355.372 417.543 351.611 424.134 338.275 421.359C319.3 417.409 266.528 400.957 258.785 380.03C273.07 385.253 303.547 395.231 317.01 384.788C328.627 384.87 339.245 380.798 338.419 367.054C337.484 351.486 337.645 350.18 353.019 341.262C314.924 340.772 334.389 368.091 325.359 373.08C313.605 379.574 287.986 362.821 281.943 352.09Z"/>
	<path fill="#FECA04" transform="scale(2 2)" d="M191.103 383.74C185.971 385.014 176.18 382.808 171.516 380.37C146.986 367.552 135.409 316.072 165.265 307.096C179.099 302.937 188.465 314.52 196.463 323.868C208.953 338.466 213.834 343.756 231.207 353.159C225.957 363.318 200.763 377.823 190.14 372.248C182.192 368.076 199.176 341.929 161.892 341.262C168.37 348.026 177.771 351.906 177.539 362.671C177.257 375.783 177.6 379.993 191.103 383.74Z"/>
	<path fill="#FECA04" transform="scale(2 2)" d="M233.995 412.609C242.751 407.226 249.466 404.893 258.785 398.158C274.468 412.14 306.752 423.038 326.937 429.116C303.592 439.793 259.611 442.497 234.833 440.081C229.679 439.579 199.357 435.283 195.507 432.311C195.497 430.915 197.923 430.439 199.029 430.091C206.271 427.812 228.895 418.654 233.995 412.609Z"/>
</svg>
